<svg width="1373" height="636" viewBox="0 0 1373 636" fill="none" xmlns="http://www.w3.org/2000/svg">
<path d="M814.577 283.274C814.426 268.667 814.092 254.039 813.149 239.457C813.149 239.446 813.145 239.435 813.145 239.421C813.184 239.018 813.195 238.612 813.172 238.205C812.854 231.594 807.68 227.055 800.682 226.631C736.961 222.771 673.057 224.21 609.308 226.713C545.816 229.206 482.339 232.735 418.772 233.058C382.89 233.242 346.985 232.386 311.201 229.846C304.731 229.386 298.54 235.45 298.824 241.317C299.146 247.949 304.269 252.265 311.201 252.787C313.068 252.927 314.935 253.064 316.801 253.193C316.848 253.316 316.902 253.438 316.953 253.557C316.763 255.164 316.503 256.772 316.359 258.322C316.06 261.524 315.777 264.728 315.505 267.933C314.958 274.339 314.465 280.752 314.011 287.165C313.106 299.995 312.365 312.832 311.752 325.677C310.525 351.369 309.796 377.079 309.21 402.793C309.074 408.836 308.713 414.932 309.198 420.968C309.637 426.395 310.545 431.967 312.866 436.959C307.646 438.301 303.31 442.714 303.566 447.973C303.865 454.123 308.989 459.457 315.901 459.403C377.651 458.918 439.401 458.011 501.143 457.101C562.567 456.195 623.995 454.933 685.364 452.228C719.794 450.71 754.201 448.732 788.558 446.131C795.051 445.638 801.366 441.16 801.047 434.556C801.012 433.841 800.904 433.118 800.725 432.402C802.414 431.183 803.95 429.499 804.944 427.928C806.694 425.151 806.935 422.288 807.3 419.166C808.049 412.788 808.744 406.404 809.38 400.016C810.665 387.121 811.713 374.209 812.524 361.278C814.162 335.313 814.849 309.29 814.577 283.274Z" fill="#C4C1BB"/>
<path d="M841.047 306.768C840.818 296.902 841.614 285.867 831.014 280.227C826.384 277.763 820.969 277.533 815.773 277.224C810.828 276.932 805.875 276.778 800.923 276.717C791.558 276.605 738.529 276.184 735.436 276.08C718.374 275.501 712.804 277.454 706.559 287.478C703.808 291.895 703.944 312.012 703.738 316.577C703.338 325.45 700.563 365.033 705.585 372.302C712.082 381.701 801.843 380.093 820.321 377.964C833.09 376.493 837.558 369.055 838.85 357.653C839.727 349.847 841.249 315.523 841.047 306.768Z" fill="#E3E0DA"/>
<path d="M821.854 299.19C819.708 291.345 811.088 286.849 802.988 285.734C796.518 284.845 789.951 284.529 783.427 284.148C771.736 283.464 759.969 283.137 748.294 284.22C741.587 284.842 734.865 285.741 728.321 287.263C724.355 288.183 720.648 289.507 717.776 292.302C712.602 297.334 712.548 304.948 716.286 310.699C719.41 315.501 724.258 318.134 729.652 319.569C730.634 320.263 731.702 320.864 732.839 321.357C739.701 324.31 747.832 324.418 755.292 324.9C767.184 325.669 779.072 325.795 790.878 324.101C796.708 323.263 802.2 321.558 807.533 319.213C815.862 315.544 824.474 308.764 821.854 299.19Z" fill="#356B68"/>
<path d="M716.674 341.546C719.798 343.79 724.646 345.021 730.041 345.693C731.023 346.017 732.09 346.297 733.227 346.528C740.089 347.909 748.22 347.959 755.68 348.182C767.572 348.542 779.46 348.599 791.267 347.808C797.096 347.416 802.588 346.617 807.921 345.52C816.25 343.808 824.862 340.636 822.243 336.162C820.096 332.493 811.476 330.392 803.376 329.871C796.906 329.453 790.339 329.306 783.815 329.13C772.125 328.81 760.357 328.659 748.682 329.162C741.975 329.453 735.253 329.874 728.71 330.583C724.743 331.014 721.036 331.633 718.164 332.939C712.991 335.298 712.936 338.856 716.674 341.546ZM802.6 353.613C796.13 353.196 789.563 353.049 783.039 352.872C771.348 352.552 759.581 352.401 747.906 352.905C741.199 353.196 734.477 353.617 727.933 354.325C723.967 354.757 720.26 355.376 717.388 356.681C712.214 359.034 712.16 362.595 715.898 365.285C719.022 367.529 723.87 368.76 729.265 369.432C730.246 369.756 731.314 370.036 732.451 370.267C739.313 371.648 747.444 371.698 754.904 371.921C766.796 372.281 778.684 372.338 790.49 371.547C796.32 371.155 801.812 370.357 807.145 369.26C815.474 367.547 824.086 364.375 821.466 359.901C819.32 356.235 810.7 354.135 802.6 353.613Z" fill="#27374D"/>
<path d="M748.368 124.808C748.313 118.395 742.682 113.442 735.878 113.233C698.211 112.068 492.596 111.241 482.028 111.715C479.451 111.831 476.874 111.953 474.297 112.079C471.289 112.226 468.044 112.197 465.168 113.05C458.155 115.132 454.173 121.528 455.57 128.146C455.659 151.924 455.776 175.703 455.884 199.478C455.997 223.919 456.098 248.359 456.206 272.8C456.315 297.121 456.428 321.44 456.532 345.761C456.637 370.083 456.746 394.405 456.858 418.727C456.913 430.949 456.971 443.171 457.025 455.393C457.041 458.389 457.049 461.385 457.068 464.381C457.095 469.636 457.153 467.234 460.813 471.287C466.204 477.258 730.134 474.927 734.683 474.445C737.951 474.1 741.172 473.424 743.52 471.053C745.74 468.813 747.246 465.978 747.18 462.863C746.264 419.885 745.604 376.888 746.462 333.903C746.897 312.358 748.41 130.12 748.368 124.808ZM674.004 357.872C674.202 344.003 674.404 330.13 674.602 316.26C674.668 311.505 674.737 306.75 674.803 301.995C675.203 298.409 675.622 294.823 676.076 291.241C676.352 299.359 676.6 307.48 676.814 315.598C675.584 331.374 674.621 347.164 673.93 362.969C673.961 361.267 673.981 359.566 674.004 357.872ZM548.299 377.683C552.115 376.313 555.674 374.604 558.301 371.594C560.979 368.526 562.823 365.386 564.073 361.577C565.043 358.613 565.54 355.509 565.862 352.376C567.337 353.502 569.052 354.343 570.713 354.768C572.933 355.322 575.154 355.322 577.37 354.768C579.493 354.218 581.332 353.221 582.897 351.782C584.938 350.304 586.727 348.214 587.927 346.103C589.731 342.927 590.372 340.086 590.818 336.561C591.167 333.809 589.169 330.227 587.15 328.356C586.285 327.554 585.194 326.831 584.003 326.259C579.613 288.568 582.194 250.557 581.763 212.718C581.732 210.006 581.686 207.298 581.616 204.586C584.344 205.913 587.542 206.384 590.539 205.485C596.112 203.812 599.24 199.618 599.725 194.302C599.788 193.633 599.846 192.964 599.908 192.295C600.312 192.882 600.731 193.464 601.169 194.029C604.173 197.91 608.299 200.23 613.64 199.565C618.254 198.989 623.055 195.727 624.045 191.256C624.092 191.044 624.134 190.831 624.181 190.623C624.883 191.126 625.609 191.59 626.354 192.011C613.201 219.887 602.07 248.579 593.325 277.911C590.539 287.263 588.004 296.675 585.675 306.135C584.228 312.012 587.616 318.918 594.381 320.346C600.723 321.684 608.163 318.58 609.716 312.278C615.281 289.658 622.213 267.322 630.445 245.406C630.208 247.525 629.972 249.643 629.739 251.765C629.541 253.56 630.282 255.664 631.381 257.441C631.361 258.725 631.342 260.009 631.318 261.29C630.86 287 629.968 312.699 628.916 338.395C628.326 352.858 627.682 367.317 627.041 381.776C626.774 387.848 632.991 393.653 639.562 393.38C641.623 393.294 643.734 392.862 645.578 391.974C645.609 393.689 645.644 395.408 645.687 397.124C645.83 402.922 650.344 407.753 656.546 408.523C662.473 409.26 668.846 405.857 670.29 400.207C671.916 393.84 672.785 387.38 673.274 380.888C672.948 391.495 672.746 402.109 672.661 412.72C669.711 412.724 666.765 412.727 663.816 412.72C662.88 412.526 661.922 412.393 660.959 412.296C624.581 408.562 587.934 407.141 551.346 408.095C547.966 408.181 544.585 408.3 541.205 408.425C541.701 398.254 542.152 388.075 542.59 377.899C544.5 378.331 546.495 378.331 548.299 377.683Z" fill="#FFFFF7"/>
<path d="M712.137 414.385C711.163 404.843 709.874 395.326 708.318 385.852C707.588 381.41 706.785 376.978 705.919 372.558C705.279 369.288 701.254 367.353 697.99 367.76C694.245 368.227 692.048 370.972 691.726 374.338C691.035 381.55 690.344 388.762 689.657 395.977C689.308 399.642 688.954 403.307 688.605 406.972C688.446 408.627 688.287 410.281 688.132 411.94C688.054 412.767 687.973 413.594 687.895 414.421C687.852 414.864 687.771 415.313 687.767 415.756C687.767 415.785 687.767 415.803 687.767 415.824C687.759 415.842 687.755 415.857 687.747 415.878C687.747 415.882 687.744 415.889 687.744 415.896C687.387 415.972 687.026 416.083 686.672 416.166C685.764 416.374 684.844 416.551 683.924 416.72C682.112 417.061 680.292 417.353 678.46 417.605C678.215 417.637 677.967 417.669 677.722 417.702C677.532 417.723 677.179 417.766 677.086 417.774C675.984 417.885 674.885 418.004 673.783 418.101C666.277 418.752 658.724 418.81 651.19 418.633C635.918 418.277 620.688 417.284 605.404 417.248C589.677 417.212 573.954 417.738 558.255 418.561C543.937 419.313 529.635 420.32 515.337 421.381C517.114 408.94 518.383 396.444 518.907 383.899C519 381.625 517.51 379.424 515.418 378.216C515.961 373.266 516.594 368.324 517.273 363.389C517.429 362.253 517.592 361.113 517.751 359.976C517.84 359.343 517.933 358.714 518.022 358.081C518.038 357.973 518.057 357.832 518.084 357.66C518.453 355.156 518.826 352.653 519.202 350.153C519.959 345.15 520.728 340.147 521.473 335.14C522.963 325.119 524.388 315.084 525.416 305.013C526.545 293.963 527.182 282.874 526.969 271.775C526.903 268.43 524.267 265.642 520.704 265.2C517.463 264.797 513.369 266.703 512.779 269.994C511.979 274.443 511.211 278.896 510.473 283.356C510.636 278.58 510.757 273.8 510.815 269.019C510.927 260.067 510.846 251.111 510.497 242.162C510.159 233.472 509.359 224.804 509.006 216.117C508.832 211.797 508.793 207.47 509.068 203.151C509.134 202.104 509.22 201.057 509.325 200.011C509.371 199.547 509.422 199.083 509.48 198.619C509.464 198.755 509.612 197.698 509.654 197.335C509.72 196.957 509.821 196.349 509.817 196.371C509.883 196.004 509.953 195.64 510.023 195.274C510.206 194.356 510.407 193.446 510.633 192.54C511.04 190.9 511.517 189.278 512.072 187.677C512.379 186.789 512.709 185.904 513.066 185.03C513.21 184.681 513.357 184.336 513.505 183.987C513.536 183.915 513.563 183.854 513.586 183.796C513.625 183.724 513.668 183.634 513.722 183.526C514.483 182.012 515.282 180.523 516.187 179.081C516.586 178.444 517.005 177.815 517.44 177.199C517.712 176.815 517.987 176.433 518.275 176.059C518.341 175.973 518.717 175.495 518.938 175.214C519.16 174.962 519.493 174.574 519.493 174.574C519.746 174.293 520.006 174.016 520.27 173.743C520.859 173.128 521.473 172.534 522.105 171.955C522.742 171.38 523.394 170.822 524.073 170.286C524.209 170.178 524.345 170.078 524.481 169.973C524.434 170.02 525.303 169.398 525.447 169.304C528.509 167.294 530.26 163.395 528.028 160.186C526.068 157.367 521.473 155.64 518.189 157.795C503.254 167.589 496.586 183.62 494.921 200.011C493.998 209.111 494.646 218.261 495.263 227.357C495.888 236.526 496.291 245.698 496.408 254.884C496.866 291.715 493.384 328.446 490.904 365.17C489.662 383.546 488.669 401.944 488.537 420.36C488.479 428.391 488.917 437.545 497.017 442.383C501.349 444.973 506.662 444.883 511.614 444.962C516.641 445.041 521.663 445.11 526.689 445.163C566.891 445.599 607.1 445.203 647.278 443.977C657.323 443.671 667.367 443.311 677.408 442.901C682.298 442.7 687.192 442.509 692.083 442.264C696.542 442.045 701.083 441.559 705.058 439.52C715.145 434.359 713.037 423.23 712.137 414.385Z" fill="#F2EFE9"/>
<path d="M1372.67 103.288C1270.7 100.983 858.307 102.27 799.495 103.313C795.753 103.378 788.627 105.471 787.84 119.215C787.696 121.711 788.674 213.423 789.097 256.531C789.524 300.369 789.963 344.204 790.397 388.042C790.642 412.716 790.886 437.387 791.135 462.061C791.158 464.392 791.81 466.77 792.978 468.885C795.311 474.409 800.818 478.704 807.684 478.467C843.81 477.226 1329.12 477.56 1365.06 480.592C1367.6 480.808 1370.14 481.038 1372.67 481.276V103.288Z" fill="#FFFFF7"/>
<path d="M1290.4 353.696C1289.91 349.481 1289.03 345.33 1287.51 341.327C1286.07 337.55 1284.23 333.899 1281.96 330.493C1280.25 327.932 1276.58 326.946 1273.72 328.493C1270.96 329.989 1269.85 333.55 1271.57 336.122C1273.98 339.74 1275.9 343.805 1277.12 347.891C1270.18 346.686 1263.12 348.038 1256.2 349.671C1255.97 349.686 1255.73 349.707 1255.49 349.743C1248.51 350.7 1241.49 351.545 1234.44 352.272C1234.24 352.225 1234.05 352.182 1233.86 352.132C1233.33 351.991 1232.81 351.815 1232.28 351.66C1232.14 351.621 1232.05 351.592 1231.98 351.578C1231.91 351.542 1231.82 351.495 1231.69 351.43C1230.82 350.991 1229.98 350.57 1229.16 350.049C1229 349.923 1228.84 349.794 1228.69 349.657C1228.29 349.322 1227.93 348.966 1227.58 348.599C1227.56 348.585 1227.55 348.574 1227.54 348.56C1227.44 348.423 1227.34 348.29 1227.24 348.15C1226.9 347.653 1226.62 347.143 1226.35 346.614C1224.95 343.895 1220.75 343.186 1218.11 344.614C1215.11 346.24 1214.55 349.513 1215.96 352.243C1216.05 352.426 1216.15 352.603 1216.25 352.783C1211.48 352.898 1206.73 353.304 1202.13 354.358C1188.62 352.164 1174.76 352.833 1161.11 353.829C1152.9 354.43 1144.73 354.937 1136.56 355.138C1131.28 354.908 1126.02 354.617 1120.76 354.264C1108.48 353.437 1095.73 352.232 1083.84 350.743C1081.21 350.412 1078.29 351.146 1076.98 353.329C1063.86 351.869 1050.67 351.078 1037.44 351.293C1037.15 351.297 1036.87 351.308 1036.58 351.315C1022.8 349.369 1009 347.621 994.921 350.851C993.283 351.229 991.82 352.434 991.056 353.898C988.207 353.646 985.362 353.369 982.521 353.059C982.579 352.905 982.633 352.747 982.672 352.585C983.445 349.448 981.644 346.787 978.469 345.726C978.298 345.668 978.174 345.628 978.085 345.603C978.011 345.564 977.925 345.517 977.809 345.459C977.475 345.287 977.141 345.125 976.815 344.938C976.757 344.905 975.853 344.28 975.923 344.362C975.651 344.143 975.387 343.916 975.131 343.679C974.871 343.438 974.626 343.19 974.386 342.934C974.366 342.898 974.06 342.532 973.928 342.341C973.831 342.204 973.745 342.06 973.66 341.92C973.629 328.547 973.256 315.178 972.527 301.819C972.465 300.675 972.038 299.549 971.339 298.611C971.56 291.262 971.785 283.918 972.007 276.569C972.073 274.354 970.439 272.307 968.308 271.476C966.278 270.681 963.235 270.915 961.737 272.627C961.357 273.059 960.999 273.501 960.662 273.943C960.666 273.85 960.666 273.756 960.67 273.663C960.852 265.174 961.038 256.69 961.221 248.201C961.26 246.385 961.287 244.565 961.36 242.748C961.395 241.867 961.442 240.986 961.508 240.108C961.551 239.561 961.601 239.011 961.659 238.464C961.671 238.349 961.78 237.615 961.791 237.508C962.098 235.727 962.571 233.972 963.247 232.281C963.286 232.184 963.313 232.112 963.328 232.062C963.363 232.001 963.406 231.932 963.452 231.853C963.635 231.54 963.798 231.22 963.988 230.911C964.174 230.602 964.372 230.296 964.578 229.997C964.663 229.875 965.172 229.235 965.218 229.152C965.634 228.699 966.072 228.26 966.538 227.854C966.717 227.699 966.899 227.548 967.085 227.397C967.178 227.336 967.442 227.152 967.528 227.106C967.706 227.008 969.053 226.347 968.859 226.379C969.635 226.109 970.454 225.944 971.269 225.814C974.382 225.329 976.4 221.62 975.473 218.955C974.386 215.84 971.405 214.542 968.071 215.06C959.513 216.394 953.435 223.53 951.079 230.868C948.436 239.094 949.185 248.316 948.999 256.805C948.615 274.497 948.23 292.19 947.85 309.879C947.66 318.605 947.473 327.331 947.283 336.061C947.093 344.751 946.519 353.52 946.767 362.206C946.895 366.738 948.137 370.849 951.223 374.403C953.777 377.342 957.285 379.241 961.027 380.593C969.317 383.589 978.376 381.705 986.763 380.144C1004.42 376.86 1023.22 379.14 1041.37 380.129C1060.39 381.165 1079.44 381.661 1098.49 381.759C1136.37 381.953 1174.24 380.557 1212.06 378.655C1230.86 377.709 1249.73 376.95 1268.5 375.547C1276.39 374.957 1285.21 372.993 1288.81 365.652C1290.66 361.886 1290.87 357.764 1290.4 353.696Z" fill="#F2EFE9"/>
<path d="M706.191 181.958C706.33 175.861 707.491 168.851 704.84 163.089C702.069 157.072 695.587 154.888 689.005 154.45C682.209 154 675.261 154.414 668.454 154.45C653.775 154.532 639.096 154.611 624.418 154.694C594.932 154.856 565.443 155.007 535.957 155.194C532.352 155.216 519.152 156.546 517.483 157.262C509.243 160.794 509.239 170.401 508.622 177.624C507.275 193.403 509.79 289.554 509.111 321.814C508.773 338.007 508.463 354.203 508.455 370.4C508.451 378.377 508.521 386.352 508.696 394.326C508.785 398.372 508.587 415.285 510.648 418.763C513.008 422.748 517.549 423.341 521.989 423.474C526.247 423.6 530.504 423.719 534.762 423.831C543.537 424.061 552.313 424.266 561.088 424.438C578.639 424.784 596.197 425 613.752 425.05C631.179 425.1 644.01 425.179 661.433 424.874C670.208 424.719 678.983 424.514 687.755 424.255C691.675 424.14 696.379 424.597 700.113 423.374C705.185 421.708 705.973 417.079 706.21 412.702C706.431 408.684 705.861 349.477 705.624 325.526C705.348 298.125 706.031 188.774 706.191 181.958Z" fill="white"/>
<path d="M1294.66 341.413C1294.47 337.284 1292.21 233.824 1291.84 230.677C1291.12 224.649 1287.39 219.725 1281.37 217.275C1276.17 215.157 1270.46 214.617 1264.82 214.599C1257.29 214.578 1249.76 214.65 1242.24 214.675C1212.16 214.776 1182.07 214.876 1151.99 214.981C1121.78 215.081 1091.57 215.186 1061.36 215.286C1046.38 215.337 1031.4 215.387 1016.43 215.437C1008.81 215.463 1004.22 215.301 996.602 215.329C990.334 215.355 971.762 212.93 965.288 218.685C961.95 221.653 962.707 229.666 962.94 233.713C963.437 242.299 961.729 328.946 962.222 337.532C962.463 341.679 962.606 345.844 962.952 349.984C963.266 353.768 964.073 357.832 967.085 360.641C970.582 363.9 975.313 364.058 979.959 364.371C984.554 364.681 989.154 364.954 993.753 365.191C1002.82 365.659 1265.77 363.17 1274.98 363.576C1279.19 363.763 1283.56 363.774 1287.36 361.832C1291.05 359.947 1293.47 356.379 1294.28 352.603C1295.08 348.894 1294.84 345.168 1294.66 341.413Z" fill="white"/>
<path d="M342.572 433.042C342.503 421.439 342.421 409.832 342.301 398.229C342.056 374.899 341.517 351.578 340.729 328.259C339.142 281.263 336.855 234.274 336.677 187.245C336.576 160.766 337.197 113.503 335.074 111.442C334.329 109.863 333.304 108.396 331.911 107.086C328.142 103.551 323.108 102.551 318.098 101.533C314.189 100.738 86.549 44.0267 84.8606 44.1275C72.5417 44.8504 10.8966 44.6526 10.1785 44.6814C5.20672 44.8864 0.758863 48.4796 0.855893 53.321C2.17938 119.103 3.16133 184.019 3.56109 249.812C3.95697 315.268 3.85994 380.726 3.27776 446.182C2.94786 482.959 2.46659 519.733 1.82619 556.504C1.74081 561.349 6.19643 564.989 11.1993 565.19C36.7803 566.219 62.3613 567.247 87.9423 568.276C89.5026 568.337 90.9502 567.992 92.2155 567.352C95.4059 566.891 98.4332 565.898 101.464 564.726C110.904 561.079 329.64 485.225 334.162 480.844C336.813 478.28 338.338 475.334 339.277 472.19C339.693 471.478 339.999 470.723 340.139 469.935C342.305 457.691 342.642 445.419 342.572 433.042Z" fill="#FFFCF5"/>
<path d="M85.3109 141.922C84.8956 109.683 83.8865 77.4341 81.876 45.2425C81.9032 44.9152 81.9303 44.5879 81.9575 44.2606C64.7094 44.8217 11.0984 44.6526 10.4308 44.6778C5.459 44.8828 1.01114 48.476 1.10817 53.3174C2.43166 119.1 3.41361 184.015 3.80949 249.809C4.20537 315.264 4.10834 380.723 3.52616 446.178C3.19626 482.955 2.71499 519.729 2.07459 556.5C1.98921 561.345 6.44483 564.985 11.4477 565.186C36.0351 566.175 60.6187 567.164 85.2061 568.15C85.2992 560.827 85.3885 553.5 85.4622 546.177C85.7262 519.952 85.8542 493.728 85.8465 467.5C85.8387 441.401 85.6951 415.303 85.4195 389.208C85.1479 363.113 85.9202 189.465 85.3109 141.922Z" fill="#F2EFE9"/>
<path d="M300.298 431.132C296.817 428.168 291.686 427.356 287.494 429.6C282.336 432.362 277.069 434.945 271.698 437.33C269.237 438.423 266.753 439.473 264.25 440.48C264.137 440.527 263.928 440.613 263.703 440.707C263.128 440.937 262.546 441.149 261.968 441.369C260.473 441.934 258.975 442.484 257.469 443.02C246.462 446.933 235.129 450.059 223.606 452.35C218.498 453.368 213.158 454.569 207.914 455.012C207.538 455.033 206.878 455.073 206.598 455.105C205.861 455.191 205.12 455.271 204.382 455.35C203.148 455.479 201.914 455.602 200.68 455.709C197.939 455.954 195.195 456.155 192.451 456.357C182.023 457.127 171.462 457.853 161.258 460.112C156.123 461.249 151.035 462.871 146.265 465.058C146.595 460.08 146.921 455.105 147.255 450.127C147.577 445.279 142.993 441.135 138.111 440.527C137.393 440.437 136.655 440.426 135.914 440.484C138.293 411.864 140.63 383.244 142.687 354.602C144.08 335.233 145.345 315.857 146.409 296.47C147.464 277.278 148.722 258.006 147.934 238.784C147.131 219.167 143.071 199.946 140.032 180.57C139.881 179.606 139.737 178.638 139.589 177.674C139.589 177.663 139.586 177.66 139.586 177.649C139.504 177.038 139.415 176.426 139.333 175.811C139.007 173.365 138.712 170.919 138.464 168.466C138.006 163.956 137.703 159.431 137.633 154.903C137.56 150.266 137.734 145.626 138.231 141.012C138.285 140.508 138.347 140.005 138.406 139.501C138.394 139.533 138.382 139.559 138.367 139.591C138.382 139.555 138.394 139.515 138.406 139.479C138.417 139.382 138.429 139.285 138.441 139.188C138.476 138.854 138.58 138.598 138.65 138.515C138.771 137.771 138.802 136.962 138.922 136.314C138.992 135.944 139.826 132.48 140.261 131.041C140.304 130.966 140.346 130.894 140.393 130.818C145.388 131.973 151.357 128.29 152.467 123.765C153.837 118.186 150.628 113.751 145.124 111.78C138.584 109.439 130.88 111.96 126.036 116.276C121.786 120.064 119.706 125.506 118.693 130.764C116.756 140.796 116.221 150.968 116.818 161.132C117.439 171.606 120.824 406.979 117.447 447.483C116.613 457.483 115.782 467.482 114.963 477.481C114.595 481.984 114.338 486.236 115.429 490.703C116.826 496.436 120.898 501.044 126.836 503.123C133.55 505.475 139.904 502.501 145.877 499.882C150.523 497.846 284.506 472.24 297.38 457.785C300.5 454.281 299.976 447.167 301.956 443.002C303.799 439.103 304.001 434.283 300.298 431.132ZM140.207 130.437C140.226 130.462 140.304 130.448 140.482 130.372C140.502 130.365 140.513 130.358 140.533 130.351C140.591 130.336 140.645 130.318 140.7 130.304C140.707 130.293 140.719 130.279 140.731 130.268H140.734C140.738 130.264 140.742 130.261 140.742 130.254C140.789 130.2 140.843 130.138 140.913 130.066C140.971 130.005 141.022 129.955 141.064 129.908C140.994 130.027 140.932 130.124 140.874 130.207C141.379 130.002 141.251 130.099 140.932 130.236C141.01 130.214 141.057 130.2 141.053 130.203C140.967 130.239 140.89 130.268 140.812 130.297C140.653 130.505 140.56 130.563 140.579 130.495C140.583 130.487 140.587 130.48 140.591 130.477C140.618 130.433 140.653 130.387 140.684 130.34C140.68 130.34 140.676 130.343 140.672 130.343H140.668C140.447 130.419 140.249 130.469 140.086 130.502C140.013 130.509 139.943 130.509 139.896 130.495C139.916 130.505 140.044 130.48 140.207 130.437Z" fill="#F2EFE9"/>
<path d="M300.155 146.367C294.267 143.961 236.969 130.232 212.766 125.074C200.07 122.369 186.3 118.067 173.604 115.363C167.193 113.996 160.781 112.629 154.369 111.262C148.932 110.104 143.048 108.482 137.486 109.964C136.015 110.356 134.73 110.949 133.585 111.715C132.025 112.323 130.768 113.471 130.185 114.942C129.083 116.355 129.114 118.326 129.883 119.967C130.535 165.344 131.187 210.718 131.843 256.096C132.51 302.524 133.178 348.948 133.845 395.376C134.222 421.46 134.594 447.548 134.971 473.632C135.006 475.999 136.807 478.452 139.388 479.01C146.506 480.538 153.585 479.819 160.692 478.614C167.554 477.449 174.392 476.147 181.231 474.877C194.873 472.345 208.496 469.733 222.104 467.043C235.583 464.374 249.047 461.63 262.492 458.803C269.338 457.364 276.181 455.904 283.015 454.425C288.391 453.263 294.201 452.156 298.746 449.073C302.006 446.861 304.401 444.124 305.74 440.552C306.951 437.326 306.997 433.783 307.063 430.402C307.137 426.417 307.211 422.428 307.288 418.443C307.583 415.968 307.727 413.483 307.797 411.04C308.076 401.307 307.995 391.556 308.076 381.82C308.243 361.99 308.41 342.157 308.577 322.328L309.082 262.121C309.249 242.374 307.859 171.423 307.859 160.323C307.855 151.331 302.907 147.493 300.155 146.367ZM146.933 468.766C146.933 468.636 146.929 468.503 146.929 468.374C147.096 468.51 147.27 468.644 147.445 468.773C147.278 468.769 147.104 468.773 146.933 468.766ZM285.721 442.329C285.771 442.131 285.802 441.933 285.829 441.736C286.221 441.844 286.617 441.93 287.021 441.98C286.59 442.106 286.155 442.218 285.721 442.329Z" fill="white"/>
<path opacity="0.25" d="M413.94 565.801C411.483 562.327 406.508 560.348 402.425 559.057C398.365 557.769 394.029 557.212 389.76 556.942C386.302 556.723 382.821 556.683 379.331 556.748C373.847 556.543 368.348 556.708 362.84 557.086C353.417 557.737 343.88 558.471 334.569 559.992C330.137 560.715 325.744 561.708 321.529 563.19C317.182 564.719 311.752 567.164 311.752 572.222C311.752 577.883 318.575 579.469 323.45 579.671C328.247 579.872 333.091 579.66 337.888 579.502C347.471 579.185 357.034 578.739 366.624 578.919C376.083 579.095 385.557 579.584 395.011 579.052C399.638 578.793 404.687 578.574 409.158 577.383C414.677 575.912 417.165 570.362 413.94 565.801ZM321.172 570.024C320.927 569.963 320.686 569.891 320.446 569.812C320.733 569.772 320.974 569.844 321.172 570.024Z" fill="#C4C1BB"/>
<path opacity="0.25" d="M539.4 539.505C533.559 532.797 523.184 531.326 514.479 530.75C511.296 530.541 508.133 530.581 504.982 530.782C495.356 528.203 485.017 529.577 475.224 530.48C470.229 530.941 465.238 531.469 460.258 532.066C455.492 532.638 450.396 532.901 445.89 534.57C438.314 537.375 425.347 548.27 436.505 554.763C444.637 559.496 455.306 558.086 464.341 557.5C484.838 556.169 505.381 558.046 525.893 557.187C530.691 556.985 535.95 556.572 539.416 553.076C543.425 549.022 542.994 543.634 539.4 539.505Z" fill="#C4C1BB"/>
<path opacity="0.25" d="M968.432 528.973C967.031 524.031 962.175 520.916 957.363 519.017C955.166 518.15 952.822 517.888 950.672 517.125C942.676 514.287 934.6 510.849 926.034 511.827C917.049 512.856 908.778 516.744 899.677 517.068C890.897 517.384 882.064 516.258 873.44 518.334C865.743 520.183 856.001 525.563 855.59 533.843C855.093 543.807 869.194 546.083 877.243 545.993C882.102 545.939 886.888 545.022 891.689 544.429C896.226 543.868 900.806 543.58 905.378 543.479C915.077 543.263 924.586 544.217 934.188 545.31C938.985 545.853 943.674 545.893 948.428 544.993C952.961 544.137 957.456 542.555 961.648 540.756C966.604 538.634 969.903 534.153 968.432 528.973Z" fill="#C4C1BB"/>
<path opacity="0.25" d="M1284.33 614.431C1283.66 609.593 1273.77 603.345 1272.68 602.734C1251.48 590.95 1226.28 595.195 1203.19 598.043C1197.04 598.802 1190.86 599.425 1184.66 599.554C1178.26 599.687 1172.01 598.964 1165.66 598.363C1159.53 597.781 1153.4 597.903 1147.43 599.457C1141.93 600.885 1136.67 603.288 1131.95 606.255C1127.48 609.064 1121.61 612.679 1120.48 617.966C1119.27 623.613 1123.24 628.3 1128.52 630.649C1134.08 633.123 1140.33 634.173 1146.4 634.896C1152.46 635.619 1158.57 635.724 1164.66 635.486C1177.33 634.994 1189.87 633.012 1202.53 632.267C1208.95 631.886 1215.37 631.897 1221.79 632.404C1228.23 632.915 1234.64 633.763 1241.09 634.166C1252.57 634.882 1264.85 633.961 1274.91 628.311C1280.23 625.325 1285.2 620.671 1284.33 614.431Z" fill="#C4C1BB"/>
<path d="M467.276 487.826C466.391 479.229 466.348 470.593 467.155 461.99C467.245 461.037 466.585 460.404 465.758 460.159C465.195 458.796 463.165 458.231 462.203 459.235C461.788 459.101 461.318 459.087 460.875 459.188C459.773 458.238 457.522 458.35 457.262 460.011C457.157 460.673 457.064 461.339 456.967 462.004C455.888 461.59 454.425 462.011 454.01 463.238C453.458 463.177 452.869 463.299 452.399 463.608C451.176 463.126 449.352 463.705 449.236 465.338C448.828 471.039 449.077 476.704 449.864 482.362C449.864 482.373 449.864 482.38 449.861 482.391C449.864 482.391 449.864 482.391 449.868 482.391C449.892 482.567 449.911 482.743 449.938 482.916C450.109 484.081 451.087 484.463 452.061 484.308C452.193 484.603 452.368 484.891 452.593 485.164C453.439 486.189 454.832 486.326 455.733 485.704C456.074 486.204 456.594 486.441 457.146 486.473C457.902 488.336 461.073 488.103 461.275 485.804C461.302 485.488 461.333 485.168 461.361 484.851C461.423 485.222 461.485 485.592 461.555 485.963C461.694 486.7 462.253 487.135 462.921 487.301C462.936 487.473 462.952 487.649 462.967 487.826C463.235 490.358 467.539 490.383 467.276 487.826Z" fill="#F28168"/>
<path d="M463.286 547.436C463.286 547.407 463.286 547.382 463.286 547.353C465.653 535.548 465.96 523.254 467.419 511.324C468.153 505.335 468.875 499.407 468.067 493.39C467.668 490.408 466.988 487.466 466.286 484.535C465.673 481.981 464.054 478.352 465.063 475.798C466.006 473.413 463.588 472.568 462.638 474.942C462.614 475.003 462.595 475.064 462.572 475.129C462.28 475.039 461.962 475.003 461.648 475.017C461.644 474.848 461.64 474.679 461.636 474.507C461.562 472.046 457.549 471.715 457.359 474.068C456.664 473.848 455.845 473.989 455.244 474.442C454.797 472.726 451.821 472.122 451.172 474.201C448.033 484.261 451.887 494.336 453.544 504.292C455.512 516.122 456.75 528.092 458.318 539.976C458.62 542.278 459.055 544.645 459.016 546.99C458.818 547.968 463.262 548.267 463.286 547.436Z" fill="#F28168"/>
<path d="M448.871 548.486C450.641 547.418 452.275 546.414 454.095 545.422C455.395 544.713 456.684 543.943 458.19 543.688C459.61 543.447 463.433 543.576 463.623 543.584C465.475 543.634 465.424 546.752 465.506 548.475C465.653 551.583 462.432 551.105 460.026 551.288C456.373 551.565 452.904 552.137 449.247 552.223C448.297 552.245 446.655 552.309 446.115 551.763C445.801 551.446 444.718 550.989 448.871 548.486Z" fill="#27374D"/>
<path d="M492.697 543.224C492.686 543.199 492.674 543.174 492.662 543.149C489.674 531.466 484.582 520.107 480.705 508.651C478.76 502.9 476.827 497.21 473.462 492.009C471.793 489.433 469.888 486.995 467.966 484.578C466.294 482.473 463.224 479.761 463.03 477.049C462.847 474.514 460.27 474.647 460.437 477.179C460.441 477.244 460.452 477.308 460.456 477.373C460.15 477.398 459.847 477.485 459.564 477.618C459.486 477.463 459.408 477.308 459.331 477.157C458.19 474.938 454.374 476.139 455.228 478.362C454.495 478.423 453.812 478.859 453.458 479.495C452.302 478.093 449.313 478.657 449.632 480.801C451.157 491.178 459.082 498.943 464.947 507.425C471.917 517.503 478.275 527.988 484.9 538.264C486.185 540.257 487.617 542.257 488.599 544.415C488.847 545.386 493.039 543.994 492.697 543.224Z" fill="#F28168"/>
<path d="M480.045 549.821C481.135 548.144 482.133 546.58 483.305 544.95C484.139 543.789 484.939 542.573 486.173 541.738C487.338 540.951 490.838 539.523 491.013 539.451C492.701 538.749 494.122 541.573 495.007 543.091C496.602 545.828 493.478 546.698 491.397 547.835C488.242 549.558 485.385 551.475 482.137 553.029C481.291 553.432 479.843 554.155 479.102 553.881C478.679 553.727 477.487 553.752 480.045 549.821Z" fill="#27374D"/>
<path d="M349.419 566.679C350.292 559.748 355.035 527.081 355.769 527.495C356.735 528.034 357.667 529.664 358.68 529.977C359.262 529.657 360.178 529.797 360.403 530.459C360.74 530.545 361.078 530.631 361.42 530.721C361.427 530.725 361.435 530.725 361.443 530.728C361.955 530.149 363.038 530.401 363.415 531.056C363.547 531.286 363.655 531.523 363.748 531.761C364.09 532.02 364.393 532.325 364.645 532.703C364.695 532.779 364.734 532.854 364.765 532.93C365.103 533.12 365.324 533.466 365.227 533.944C364.703 536.566 360.806 550.788 359.762 553.216C358.256 557.64 356.673 562.086 354.771 566.348C354.053 567.963 352.671 569.635 350.552 569.384C348.383 569.121 349.194 568.448 349.419 566.679Z" fill="#C67F60"/>
<path d="M339.852 567.247C341.711 566.323 343.434 565.445 345.336 564.6C346.694 563.996 348.049 563.327 349.57 563.194C351.006 563.064 354.802 563.492 354.996 563.514C356.836 563.708 356.502 566.808 356.428 568.535C356.296 571.642 353.129 570.916 350.711 570.912C347.047 570.901 343.535 571.204 339.887 571.002C338.94 570.952 337.294 570.887 336.809 570.301C336.526 569.959 335.489 569.42 339.852 567.247Z" fill="#27374D"/>
<path d="M396.467 567.736C395.194 560.859 389.795 528.283 390.626 528.484C391.716 528.75 393.106 530.067 394.173 530.103C394.635 529.642 395.555 529.538 395.97 530.113C396.319 530.11 396.669 530.103 397.026 530.099C397.034 530.099 397.041 530.099 397.049 530.099C397.363 529.412 398.481 529.369 399.04 529.898C399.238 530.085 399.413 530.283 399.576 530.488C399.979 530.646 400.368 530.862 400.725 531.157C400.794 531.214 400.857 531.279 400.907 531.34C401.287 531.437 401.606 531.707 401.66 532.192C401.959 534.843 402.549 549.508 402.285 552.112C402.188 556.748 402.021 561.431 401.497 566.013C401.299 567.751 400.484 569.715 398.373 570.028C396.215 570.351 396.793 569.495 396.467 567.736Z" fill="#C67F60"/>
<path d="M386.244 567.952C388.068 566.967 389.752 566.035 391.623 565.125C392.958 564.474 394.286 563.766 395.803 563.578C397.235 563.402 401.043 563.704 401.237 563.719C403.084 563.852 402.871 566.963 402.863 568.69C402.848 571.801 399.657 571.179 397.243 571.254C393.583 571.366 390.082 571.783 386.43 571.704C385.479 571.682 383.834 571.675 383.325 571.103C383.026 570.772 381.967 570.265 386.244 567.952Z" fill="#27374D"/>
<path d="M402.653 438.29C401.543 429.769 400.01 421.295 397.953 412.95C397.216 409.965 393.886 410.174 392.574 412.105C392.512 411.602 392.454 411.098 392.388 410.594C391.937 407.113 387.121 406.08 386.352 409.868C386.151 410.868 385.98 411.868 385.832 412.871C385.681 412.875 385.53 412.878 385.382 412.882C385.18 412.091 384.971 411.299 384.749 410.508C384.082 408.141 380.899 407.555 379.506 409.13C379.114 409.393 378.757 409.778 378.462 410.307C378.268 410.242 378.066 410.195 377.845 410.174C377.422 410.13 377.003 410.181 376.611 410.307C376.351 407.469 372.031 406.156 370.715 408.929C370.451 408.688 370.133 408.487 369.749 408.343C368.289 407.789 366.582 408.328 365.813 409.778C365.588 410.202 365.382 410.634 365.184 411.066C364.625 411.256 364.105 411.573 363.636 412.073C363.807 410.407 363.034 408.764 361.319 408.332C359.789 407.947 357.752 408.954 357.503 410.684C356.358 418.651 351.127 427.395 350.001 437.639C346.213 472.147 346.791 516.46 344.68 543.497C344.486 545.983 344.296 548.468 344.113 550.954C343.946 553.212 343.516 555.694 345.192 557.511C346.741 559.183 348.91 559.194 351.006 559.331C353.51 559.496 356.009 559.658 358.513 559.823C359.995 559.921 361.074 558.629 361.517 557.356C367.036 541.411 373.444 513.759 378.78 487.247C381.458 508.799 384.346 529.79 387.393 545.343C387.87 547.785 388.355 550.227 388.844 552.669C389.287 554.885 389.547 557.392 391.569 558.701C393.436 559.91 395.434 559.352 397.398 558.939C399.743 558.446 402.087 557.949 404.431 557.457C405.82 557.165 406.473 555.637 406.538 554.299C408.087 524.315 406.566 468.306 402.653 438.29Z" fill="#B38740"/>
<path d="M371.674 314.063C372.213 313.135 372.741 312.25 373.222 311.343C374.026 304.743 375.644 298.359 382.987 296.222C387.288 294.971 396.331 294.079 399.599 297.139C402.677 300.024 404.357 304.121 404.788 308.113C405.483 314.523 402.917 321.713 397.883 326.36C397.418 327.856 397.103 329.396 396.855 330.928C396.195 335.014 397.033 341.431 397.033 345.553C397.033 346.894 395.489 345.848 394.161 346.337C393.851 347.923 391.941 348.84 390.272 348.686C390.001 348.873 389.714 349.024 389.419 349.128C383.515 351.16 382.735 352.711 382.398 349.52L382.646 332.604C379.809 331.507 377.333 331.572 375.466 329.209C373.494 326.716 372.784 322.864 372.683 319.318C371.748 319.105 370.804 318.72 370.405 317.857C369.741 316.451 370.995 315.228 371.674 314.063Z" fill="#C67F60"/>
<path d="M410.23 305.218C409.275 302.455 407.862 300.779 405.432 299.118C404.02 298.15 402.502 297.398 401.016 296.546C399.638 295.758 399.347 294.395 398.19 293.359C396.04 291.431 393.199 291.277 390.513 292.161C390.102 292.298 389.003 292.827 388.518 292.568C388.045 292.316 388.196 291.273 388.049 290.849C387.653 289.712 386.57 288.845 385.347 288.514C382.762 287.813 379.261 289.115 377.748 291.104C377.332 291.647 377.061 292.464 376.548 292.924C375.893 293.514 374.837 293.539 374.064 293.978C372.877 294.654 372.167 295.852 371.872 297.089C371.247 299.704 372.302 302.495 374.297 304.376C376.285 306.47 377.061 307.66 377.573 309.167C377.919 310.182 378.163 311.221 378.838 312.106C379.549 313.037 380.566 313.552 381.753 313.775C383.476 314.098 384.866 313.742 385.731 315.483C386.446 316.922 386.403 318.58 386.768 320.105C387.067 321.35 387.587 322.551 388.301 323.644C389.826 325.979 392.073 327.766 394.383 329.41C395.186 329.982 396.137 329.594 396.665 328.928C399.273 326.666 401.633 324.191 403.977 321.699C406.131 319.407 408.328 317.059 409.838 314.343C411.316 311.674 411.254 308.185 410.23 305.218Z" fill="#27374D"/>
<path d="M406.671 370.738C405.727 353.628 397.678 341.14 397.639 341.017C396.479 337.403 391.107 336.91 386.993 339.161C378.92 343.582 373.638 349.84 370.187 356.89C367.16 363.08 360.849 392.844 358.466 404.908C355.187 410.368 352.182 415.954 350.098 421.925C348.449 426.647 346.966 432.873 352.113 436.208C352.753 436.621 353.622 436.513 354.274 436.208C358.474 434.226 362.363 431.809 365.965 429.064C372.702 429.406 380.562 429.154 383.003 429.158C387.272 429.169 397.604 429.147 401.249 426.669C413.428 418.385 407.361 383.241 406.671 370.738Z" fill="#FFFCF5"/>
<path d="M477.312 466.698C476.82 465.37 475.935 464.273 475.069 463.162C475.069 457.572 475.069 451.983 475.069 446.394C475.069 445.739 474.786 445.253 474.367 444.937C474.347 442.808 474.227 440.678 474.006 438.552C474.541 433.772 474.363 428.924 473.431 424.19C473.167 422.859 472.764 421.399 472.147 420.061C473.936 417.968 472.531 414.867 470 413.353C469.682 413.162 469.356 412.993 469.022 412.832C470.672 411.738 470.974 409.069 468.502 408.465C464.784 407.559 460.976 406.958 457.134 406.778C454.076 406.634 449.018 405.929 447.582 409.224C446.923 410.735 446.849 412.558 446.484 414.148C446.076 415.936 445.618 417.709 445.122 419.475C444.105 423.086 442.905 426.647 442.207 430.33C440.817 437.628 440.429 445.153 439.649 452.523L438.461 463.741C438.302 465.245 437.965 466.834 438.423 468.313C438.935 469.964 440.422 470.938 441.993 471.69C449.62 475.334 473.769 473.841 475.488 472.801C477.673 471.474 478.116 468.863 477.312 466.698ZM473.435 469.018C473.35 469.277 473.136 469.467 472.841 469.611C472.876 469.273 472.845 468.928 472.756 468.604C473.004 468.629 473.253 468.615 473.493 468.568C473.493 468.723 473.482 468.874 473.435 469.018Z" fill="#627A94"/>
<path d="M461.481 407.501C460.969 402.552 459.529 397.869 457.115 393.427C456.87 392.981 456.501 392.704 456.082 392.563C456.028 392.114 455.97 391.664 455.904 391.215C455.698 389.841 454.328 389.571 453.195 389.97C453.738 388.521 454.281 387.071 454.794 385.622C455.648 383.201 451.561 382.179 450.691 384.575C449.457 387.97 448.246 391.376 447.023 394.775C446.057 397.466 444.691 400.387 444.807 403.271C444.912 405.89 446.484 407.875 449.255 408.523C452.457 409.267 456.051 409.21 459.331 409.494C460.414 409.587 461.582 408.501 461.481 407.501Z" fill="white"/>
<path d="M450.361 333.895C451.972 336.413 456.404 337.424 459.257 337.874L459.172 338.593C463.907 337.399 466.756 337.924 471.576 337.179C471.96 335.798 467.784 332.086 468.355 330.755C473.854 326.583 481.784 321.99 481.768 315.548C481.756 311.538 479.905 308.322 477.142 305.175C474.211 301.833 465.323 301.564 460.91 302.42C453.381 303.883 451.502 309.415 450.012 315.915C449.441 316.771 448.824 317.605 448.188 318.479C447.388 319.58 446.014 320.681 446.519 322.141C446.825 323.037 447.726 323.501 448.634 323.799C448.362 327.338 448.665 331.237 450.361 333.895Z" fill="#F28168"/>
<path d="M478.772 343.852C477.553 340.097 474.46 334.946 472.694 331.381C472.426 330.838 471.964 330.547 471.444 330.446C470.939 329.971 470.237 329.791 469.573 329.853C468.479 328.399 465.777 328.964 465.548 330.518C465.513 330.529 465.479 330.543 465.447 330.558C464.186 330.119 462.591 330.698 462.474 331.921C462.09 332 461.741 332.158 461.465 332.388C460.522 332.299 459.544 332.838 459.121 333.802C458.818 334.489 458.776 335.162 458.9 335.813C458.861 336.165 458.931 336.543 459.144 336.931C460.146 338.733 463.926 346.377 465.599 348.078C466.414 348.909 478.845 344.078 478.772 343.852Z" fill="#F28168"/>
<path d="M489.55 297.377C488.894 294.711 485.894 294.467 483.646 295.607C480.565 297.172 478.337 300.006 477.324 303.146C473.963 301.718 469.709 300.909 466.107 300.966C457.941 301.096 454.673 304.304 454.239 305.081C453.474 306.444 453.338 307.905 453.773 309.387C454.246 310.998 455.457 312.296 456.001 313.872C456.47 315.235 456.451 316.609 457.344 317.843C458.252 319.094 460.445 319.224 460.934 320.735C461.372 322.076 461.419 324.551 460.161 325.72C458.985 326.813 462.568 328.094 463.647 329.252C465.529 331.273 468.696 334.442 471.863 334.046C474.898 333.669 477.541 330.241 479.319 328.202C481.601 325.58 483.456 322.663 484.427 319.397C485.327 316.368 485.242 313.045 484.108 310.12C485.948 308.631 487.415 306.703 488.343 304.621C489.294 302.499 490.116 299.679 489.55 297.377Z" fill="#574443"/>
<path d="M511.917 507.543C509.682 504.806 507.295 502.148 505.502 499.13C503.821 496.303 502.862 493.131 502.42 489.937C501.492 483.232 502.416 476.42 502.428 469.694C502.439 462.9 501.201 456.289 499.012 449.814C496.85 443.415 494.013 437.24 491.607 430.92C489.154 424.478 487.252 417.918 486.914 411.062C486.546 403.584 487.504 396.128 488.25 388.697C489.084 380.37 489.313 372.141 488.292 363.818C487.244 355.25 485.37 346.797 483.398 338.377C482.556 334.78 476.951 335.992 476.982 339.316C476.059 339.769 475.372 340.632 475.356 341.906C475.348 342.65 475.341 343.391 475.333 344.136C475.119 344.031 474.89 343.959 474.65 343.913C473.94 342.233 471.494 341.668 469.872 342.506C469.674 342.384 469.465 342.28 469.251 342.193C468.944 339.956 465.871 338.165 463.72 340.28C456.723 347.157 452.081 356.066 450.598 365.415C448.564 368.774 446.259 372.008 443.946 375.212C441.566 378.511 439.164 381.798 437.01 385.23C434.906 388.582 432.721 393.045 436.11 396.39C441.652 401.858 449.927 397.606 454.526 393.071C454.929 394.24 455.341 395.409 455.752 396.574C458.256 403.627 460.72 410.699 462.688 417.896C464.625 424.978 465.964 432.129 466.585 439.416C467.194 446.559 467.384 453.731 468.261 460.853C469.135 467.96 470.699 474.866 473.687 481.484C476.532 487.79 480.219 493.829 481.974 500.512C483.93 507.946 483.464 515.841 486.969 522.916C489.988 529.013 495.93 534.566 503.437 534.282C516.757 533.775 520.359 529.268 520.293 525.682C520.176 518.866 516.217 512.809 511.917 507.543Z" fill="#F07556"/>
<path d="M489.189 337.704C487.896 332.737 489.507 327.497 487.384 322.659C486.449 320.53 485.059 318.634 484.5 316.372C484 314.329 483.876 312.207 483.076 310.232C482.141 307.919 480.468 305.754 477.829 304.959C474.922 304.085 472.279 305.653 471.289 308.185C470.998 308.926 470.757 309.692 470.544 310.473C469.663 310.002 468.556 309.998 467.621 310.419C467.245 310.25 466.818 310.153 466.336 310.153C465.087 310.153 463.515 311.041 463.325 312.278C463.29 312.516 463.255 312.753 463.22 312.987C460.868 310.919 456.459 313.584 458.411 316.49C459.676 318.375 461.244 320.551 461.341 322.846C461.427 324.928 459.579 326.36 458.403 327.95C457.115 329.691 456.474 331.687 456.905 333.791C457.231 335.395 458.95 337.122 458.357 338.751C457.724 340.488 456.381 341.852 456.036 343.722C455.613 346.006 456.497 348.186 458.426 349.664C460.161 350.991 462.416 351.592 464.648 351.455C467.419 351.286 469.756 350.07 472.348 349.311C473.489 348.977 474.658 348.689 475.83 349.052C476.816 349.358 477.701 349.98 478.679 350.333C480.945 351.142 483.518 350.962 485.657 349.89C490.776 347.33 490.365 342.229 489.189 337.704Z" fill="#574443"/>
<path d="M895.935 373.885C895.415 373.461 894.658 373.27 893.975 373.396C894.025 373.191 894.08 372.989 894.13 372.784C894.759 370.317 890.676 369.407 890.004 371.86C888.677 376.691 887.423 381.571 886.791 386.528C886.473 389.017 885.06 395.074 889.686 396.804C892.36 397.804 896.855 398.847 897.487 397.203C898.368 394.909 894.906 388.305 895.543 385.938C896.152 383.679 896.649 381.395 897.029 379.097C897.34 377.223 897.631 375.27 895.935 373.885Z" fill="#7D483E"/>
<path d="M960.258 424.385C960.39 423.514 960.417 422.626 960.32 421.709C960.301 421.536 958.997 417.601 958.403 416.227C958.414 416.004 951.758 388.107 951.719 387.769C950.741 379.424 948.731 371.069 946.592 362.911C946.239 361.559 946.674 362.221 945.591 362.609C945.021 361.246 944.07 360.174 942.288 360.091C938.132 359.897 939.009 364.749 939.37 367.13C940.452 374.238 941.683 381.712 944.345 388.481C944.411 388.646 944.477 388.819 944.547 388.999C944.803 390.815 944.904 392.671 945.222 394.448C945.94 398.437 947.605 402.246 949.022 406.055C950.26 409.382 953.124 414.788 955.764 416.903C955.826 417.191 955.868 417.486 955.884 417.784C955.931 418.691 955.756 419.561 955.919 420.468C956.156 421.795 956.897 422.949 957.739 424.029C957.758 425.054 957.654 426.082 957.351 427.118C957.064 428.093 958.682 428.701 959.156 427.762C959.676 426.73 960.029 425.683 960.215 424.608C960.231 424.546 960.242 424.482 960.25 424.41C960.258 424.403 960.258 424.392 960.258 424.385Z" fill="#7D483E"/>
<path d="M904.283 489.073C903.41 488.138 902.323 491.483 901.73 492.58C901.45 493.098 901.206 493.634 900.992 494.181C900.996 494.138 900.996 494.091 901 494.048C901.167 491.512 896.94 491.534 896.75 494.048C896.222 501.126 896.141 508.23 896.164 515.327C896.172 518.542 895.951 521.859 896.312 525.056C896.556 527.229 897.15 530.732 900.239 528.97C901.423 528.293 901.722 527.067 901.924 525.898C902.246 524.056 902.502 522.2 902.781 520.355C903.263 517.176 903.717 513.989 904.105 510.798C904.524 507.324 904.866 503.838 905.063 500.346C905.211 497.641 906.348 491.278 904.283 489.073Z" fill="#7D483E"/>
<path d="M902.145 528.801C901.827 526.621 901.524 526.812 899.537 526.657C899.257 526.636 897.515 526.618 897.286 526.654C895.9 526.88 895.454 528.815 895.353 529.696C895.194 531.128 894.588 533.898 896.203 534.782C896.921 535.174 897.814 535.07 898.617 535.066C899.521 535.063 900.523 535.174 901.276 534.61C902.095 533.991 902.087 532.786 902.168 531.883C902.261 530.865 902.292 529.812 902.145 528.801Z" fill="#27374D"/>
<path d="M923.79 531.567C924.862 524.657 929.298 491.958 928.471 492.181C927.388 492.476 926.038 493.829 924.97 493.89C924.497 493.44 923.573 493.361 923.173 493.947C922.824 493.951 922.475 493.955 922.118 493.962C922.11 493.962 922.102 493.962 922.094 493.962C921.757 493.282 920.643 493.268 920.099 493.811C919.909 494.001 919.739 494.203 919.579 494.415C919.18 494.584 918.799 494.807 918.45 495.113C918.38 495.174 918.322 495.235 918.271 495.303C917.895 495.408 917.584 495.688 917.546 496.174C917.328 498.832 917.169 513.503 917.507 516.1C917.744 520.733 918.046 525.409 918.702 529.977C918.951 531.707 919.824 533.653 921.943 533.912C924.12 534.174 923.519 533.333 923.79 531.567Z" fill="#7D483E"/>
<path d="M934.056 531.693C932.232 530.711 930.544 529.783 928.669 528.876C927.334 528.229 926.003 527.52 924.485 527.34C923.053 527.168 919.246 527.477 919.051 527.491C917.208 527.632 917.429 530.739 917.441 532.466C917.464 535.577 920.654 534.948 923.069 535.016C926.728 535.12 930.229 535.527 933.885 535.44C934.836 535.419 936.482 535.404 936.986 534.833C937.281 534.505 938.341 533.998 934.056 531.693Z" fill="#27374D"/>
<path d="M940.577 382.704C940.585 382.651 951.724 380.751 952.62 379.888C954.111 378.453 953.614 375.91 953.078 374.223C951.848 370.328 950.493 366.454 949.096 362.595C948.009 356.063 945.665 349.743 942.172 343.92C939.789 339.996 926.092 338.039 924.617 336.395C923.736 335.413 913.595 335.935 911.833 337.312C910.835 337.535 898.862 339.812 894.938 345.639C891.588 350.61 890.835 353.7 888.809 359.239C887.796 362.012 886.973 364.843 886.306 367.702C885.677 370.385 884.649 373.572 884.889 376.331C885.138 379.158 887.886 380.546 890.478 381.374C892.054 381.874 893.688 382.205 895.341 382.388C895.392 382.633 895.442 382.877 895.493 383.122C895.202 391.963 891.949 400.703 889.422 409.148C886.108 420.227 882.793 431.305 879.483 442.38C877.825 447.919 876.168 453.458 874.511 458.997C873.032 463.939 871.468 468.895 870.781 473.996C869.555 483.049 871.216 496.077 882.281 499.325C887.769 500.936 910.854 499.303 913.404 500.145C918.92 501.965 924.381 501.846 930.07 501.044C931.514 500.839 933.039 500.598 934.507 500.717C935.791 500.821 937.006 501.256 938.24 501.569C941.058 502.281 943.864 502.249 946.666 501.497C949.205 500.817 951.949 499.677 954.161 498.328C956.633 496.821 957.503 494.559 957.398 491.912C957.181 486.394 955.958 480.855 954.503 475.514C951.603 464.853 941.792 403.066 940.577 382.704Z" fill="#F7D5D9"/>
<path d="M935.166 319.249C934.887 317.487 934.58 315.124 933.063 313.861C931.242 312.347 929.166 313.394 927.823 314.868C926.344 316.487 925.296 318.357 924.365 320.281C923.911 321.217 923.464 322.163 923.069 323.13C920.961 323.896 918.927 325.331 917.949 327.151C917.918 326.997 917.887 326.846 917.868 326.695C917.546 324.191 913.292 324.285 913.606 326.821C914.119 330.982 916.956 334.892 921.473 336.064C926.01 337.241 930.109 334.521 932.527 331.151C934.995 327.702 935.81 323.306 935.166 319.249Z" fill="#7D483E"/>
<path d="M940.895 344.995C938.834 343.283 936.14 342.218 933.625 341.219C930.835 340.111 927.823 339.096 925.459 337.276C924.07 336.205 923.053 334.892 922.25 333.46C927.963 332.514 933.42 328.015 934.945 323.159C937.107 316.264 934.642 308.473 928.044 304.463C920.585 299.931 910.435 302.776 907.117 310.437C906.69 311.426 906.375 312.437 906.166 313.462C905.859 314.278 905.646 315.106 905.537 315.926C905.079 319.389 906.29 323.382 908.549 326.705C909.624 328.658 910.979 330.471 912.523 332.057C912.609 333.313 912.69 334.564 912.779 335.82C913.001 338.927 913.439 341.913 914.848 344.769C917.565 350.272 922.622 354.235 927.908 357.588C930.749 359.39 933.241 359.706 936.152 357.804C938.446 356.304 940.371 354.311 941.667 351.998C943.065 349.516 943.305 346.999 940.895 344.995Z" fill="#2C294C"/>
<path d="M565.439 155.255C555.565 155.313 545.695 155.367 535.822 155.428C532.216 155.449 519.016 156.78 517.347 157.496C509.107 161.028 509.103 170.635 508.486 177.858C507.586 188.382 508.405 234.655 508.851 273.882C512.651 276.968 516.85 279.558 521.434 281.389C535.461 286.996 551.102 286.716 565.722 283.281C580.393 279.835 594.172 272.94 603.265 261.502C608.229 255.258 611.156 247.712 611.816 240C612.153 236.069 611.971 231.346 610.05 227.771C609.91 227.508 609.751 227.26 609.584 227.019C608.396 222.437 605.52 218.297 601.251 215.711C599.403 214.592 597.308 213.873 595.134 213.563C592.763 211.912 590.03 210.61 587.267 209.679C584.507 204.366 581.088 199.244 577.983 194.216C575.864 190.785 573.962 187.256 572.227 183.645C572.161 183.508 572.107 183.397 572.064 183.307C571.82 182.767 571.583 182.228 571.35 181.685C570.966 180.789 570.597 179.886 570.236 178.98C569.479 177.066 568.781 175.135 568.14 173.185C566.859 169.286 565.812 165.323 565.008 161.319C564.888 160.73 564.787 160.14 564.678 159.546C565.004 158.449 565.222 157.287 565.365 156.043C565.4 155.78 565.423 155.518 565.439 155.255Z" fill="#B38740"/>
<path d="M676.973 337.546C666.304 333.115 657.097 326.684 647.212 320.976C635.984 314.494 623.129 309.649 609.658 310.419C595.584 311.221 582.047 316.577 572.324 326.177C563.824 334.568 558.659 344.974 554.669 355.746C550.912 365.893 548.272 376.374 543.941 386.334C540.918 392.657 537.273 398.714 532.849 404.289C529.697 407.904 526.212 411.238 522.338 414.184C519.043 416.389 515.542 418.27 511.84 419.831C511.603 419.921 511.374 420.011 511.145 420.105C513.648 422.986 517.661 423.471 521.597 423.59C525.855 423.716 530.112 423.834 534.37 423.946C543.145 424.176 551.921 424.381 560.696 424.554C578.247 424.899 595.806 425.115 613.36 425.165C630.787 425.216 643.618 425.295 661.041 424.989C669.816 424.834 678.592 424.629 687.363 424.37C691.283 424.255 695.987 424.712 699.721 423.489C704.794 421.824 705.581 417.195 705.818 412.817C705.993 409.613 705.667 371.292 705.407 343.762C703.54 343.654 701.677 343.503 699.818 343.305C691.989 342.19 684.336 340.258 676.973 337.546Z" fill="#27374D"/>
<path d="M585.718 187.335C585.703 186.99 585.703 187.091 585.718 187.335V187.335ZM705.62 325.763C705.547 318.336 705.543 304.887 705.578 289.09C701.072 288.191 696.453 287.68 691.803 287.259C689.696 287.068 687.588 286.896 685.485 286.691C684.708 286.615 683.936 286.529 683.164 286.446C682.574 286.356 681.98 286.281 681.39 286.191C679.476 285.892 677.575 285.536 675.696 285.079C673.872 284.637 671.714 284.216 670.045 283.364C670.414 283.533 671.594 284.026 670.356 283.45C670.002 283.285 669.642 283.13 669.288 282.961C668.407 282.54 667.55 282.083 666.719 281.583C666.389 281.385 666.071 281.177 665.745 280.972C664.953 280.296 664.146 279.659 663.408 278.925C663.137 278.655 662.88 278.375 662.617 278.102C661.569 277.019 662.721 278.332 662.845 278.414C662.182 277.976 661.635 276.799 661.204 276.141C660.746 275.436 660.319 274.713 659.923 273.976C659.702 273.566 659.5 273.145 659.283 272.731C659.271 272.713 659.263 272.699 659.255 272.681C659.244 272.649 659.228 272.616 659.213 272.577C656.527 265.908 655.386 258.909 653.453 252.05C651.338 244.55 648.05 237.08 642.186 231.404C635.491 224.922 626.16 222.764 617.338 219.894C615.417 219.268 613.527 218.592 611.633 217.905C611.486 217.851 611.373 217.822 611.288 217.804C611.066 217.704 610.849 217.592 610.725 217.538C609.657 217.096 608.598 216.632 607.55 216.142C605.753 215.304 603.995 214.398 602.295 213.402C601.585 212.984 600.882 212.553 600.191 212.103C600.075 212.028 599.772 211.841 599.512 211.686C599.139 211.416 598.782 211.111 598.433 210.83C597.009 209.697 595.666 208.474 594.428 207.165C594.16 206.884 593.908 206.589 593.64 206.309C593.624 206.291 593.609 206.276 593.593 206.258C592.984 205.449 592.363 204.651 591.796 203.809C590.834 202.381 589.972 200.896 589.2 199.37C589.118 199.205 588.978 198.978 588.866 198.752C588.831 198.633 588.792 198.511 588.749 198.41C588.346 197.443 587.977 196.464 587.639 195.475C586.995 193.576 586.475 191.641 586.068 189.684C585.97 189.217 585.877 188.749 585.792 188.281C585.753 188.062 585.726 187.616 585.71 187.346C585.714 187.505 585.726 187.753 585.734 188.123C585.707 187.181 585.497 186.224 585.415 185.282C585.016 180.681 585.202 176.052 585.761 171.47C585.811 171.063 585.854 170.65 585.92 170.243C585.978 169.916 586.04 169.563 586.056 169.484C586.265 168.236 586.502 166.992 586.758 165.751C587.247 163.377 587.814 161.017 588.431 158.669C588.742 157.485 589.064 156.306 589.398 155.129C579.566 155.183 569.735 155.241 559.908 155.298C559.349 157.604 558.86 159.931 558.453 162.28C556.667 172.599 555.763 183.167 557.048 193.587C558.263 203.435 560.82 213.146 566.269 221.782C571.513 230.091 579.287 236.77 588.641 240.943C597.245 244.78 606.467 247.118 615.324 250.359C615.763 250.543 616.205 250.722 616.64 250.913C617.598 251.33 618.545 251.766 619.477 252.23C620.401 252.69 621.305 253.175 622.194 253.693C622.636 253.952 623.071 254.215 623.502 254.488C623.641 254.578 623.812 254.708 623.979 254.841C623.87 254.74 623.75 254.629 623.614 254.503C623.777 254.654 623.94 254.798 624.103 254.945C624.065 254.913 624.022 254.877 623.979 254.844C624.926 255.715 624.767 255.528 624.348 255.157C625.489 256.136 626.684 257.038 627.724 258.136C627.903 258.51 628.501 259.074 628.699 259.355C629.455 260.423 630.139 261.535 630.752 262.678C630.985 263.11 631.198 263.545 631.419 263.98C631.423 263.995 631.427 264.006 631.435 264.02C631.839 265.063 632.262 266.095 632.63 267.149C633.407 269.372 634.063 271.627 634.691 273.89C635.933 278.339 637.082 282.831 638.848 287.133C641.076 292.554 643.913 297.258 647.845 301.762C651.408 305.844 655.789 309.239 660.451 312.203C671.182 319.03 684.134 322.49 696.833 324.497C699.717 324.954 702.651 325.4 705.609 325.785C705.62 325.774 705.62 325.77 705.62 325.763Z" fill="#27374D"/>
<path d="M704.999 162.938C702.228 156.92 695.746 154.737 689.164 154.298C682.368 153.849 675.421 154.262 668.613 154.298C653.934 154.378 639.256 154.46 624.577 154.543C620.366 154.565 616.155 154.59 611.944 154.611C610.461 159.492 609.56 164.506 609.533 169.639C609.467 181.383 614.16 194.061 624.325 201.557C629.723 205.539 635.813 208.524 642.609 209.898C649.599 211.308 656.294 211.269 663.319 210.24C675.133 208.513 687.021 202.298 694.617 193.716C700.672 186.871 704.914 178.778 706.656 170.157C706.49 167.646 706.039 165.193 704.999 162.938Z" fill="#B38740"/>
<path d="M307.855 160.323C307.855 151.331 302.907 147.49 300.155 146.367C294.267 143.961 236.969 130.232 212.766 125.074C209.552 124.391 206.272 123.603 202.958 122.765C198.673 128.405 195.227 134.645 192.49 141.174C186.261 156.029 184.879 172.326 185.085 188.127C185.318 206.042 187.262 223.926 185.24 241.813C183.296 259.006 179.446 276.497 184.798 293.543C187.569 302.376 193.045 312.016 202.345 316.3C208.151 318.972 214.935 320.091 221.227 318.113C226.47 316.465 231.077 313.573 234.737 309.718C240.943 303.175 245.958 295.456 250.968 288.111C255.758 281.083 260.326 273.929 264.681 266.663C282.239 237.367 296.421 206.309 308.018 174.588C307.917 167.815 307.855 162.701 307.855 160.323Z" fill="#627A94"/>
<path d="M171.016 230.08C168.555 229.81 165.287 231.209 164.895 233.785C164.328 237.482 163.296 240.155 161.157 243.183C159.5 245.532 160.649 248.924 163.168 250.287C165.916 251.776 169.149 250.762 170.833 248.424C173.732 244.403 175.246 239.925 175.855 235.159C176.174 232.645 173.484 230.353 171.016 230.08Z" fill="#27374D"/>
<path d="M146.564 302.376C144.103 302.107 140.835 303.506 140.443 306.081C139.877 309.779 138.844 312.451 136.706 315.48C135.048 317.828 136.197 321.22 138.716 322.583C141.464 324.072 144.697 323.058 146.382 320.72C149.281 316.699 150.795 312.221 151.404 307.455C151.722 304.941 149.032 302.65 146.564 302.376Z" fill="#27374D"/>
<path d="M171.776 257.891C168.955 257.172 165.59 258.772 164.911 261.506C163.533 267.03 161.258 271.634 157.754 276.328C156.034 278.63 157.296 282.083 159.76 283.421C162.574 284.946 165.648 283.842 167.414 281.562C171.392 276.422 174.194 270.426 175.681 264.257C176.333 261.531 174.784 258.657 171.776 257.891Z" fill="#27374D"/>
<path d="M190.794 308.606C187.973 307.887 184.608 309.487 183.928 312.221C182.551 317.746 180.276 322.35 176.771 327.044C175.052 329.346 176.313 332.799 178.778 334.137C181.592 335.662 184.666 334.557 186.432 332.277C190.41 327.137 193.212 321.141 194.699 314.973C195.351 312.246 193.802 309.372 190.794 308.606Z" fill="#27374D"/>
<path d="M204.378 327.31C201.557 326.59 198.192 328.191 197.513 330.925C196.135 336.449 193.86 341.053 190.356 345.747C188.636 348.049 189.898 351.502 192.362 352.84C195.176 354.365 198.25 353.261 200.016 350.98C203.994 345.841 206.796 339.845 208.283 333.676C208.935 330.95 207.386 328.076 204.378 327.31Z" fill="#27374D"/>
<path d="M181.479 392.053C178.658 391.333 175.293 392.934 174.613 395.667C173.236 401.192 170.961 405.796 167.457 410.49C165.737 412.792 166.999 416.245 169.463 417.583C172.277 419.108 175.351 418.004 177.117 415.723C181.095 410.583 183.897 404.588 185.384 398.419C186.036 395.693 184.487 392.819 181.479 392.053Z" fill="#27374D"/>
<path d="M162.85 428.381C160.028 427.661 156.663 429.262 155.984 431.996C154.606 437.52 152.332 442.124 148.827 446.818C147.107 449.12 148.369 452.573 150.833 453.911C153.647 455.436 156.721 454.332 158.487 452.051C162.465 446.912 165.268 440.916 166.754 434.747C167.406 432.021 165.857 429.147 162.85 428.381Z" fill="#27374D"/>
<path d="M205.155 359.681C202.333 358.962 198.968 360.562 198.289 363.296C196.911 368.821 194.637 373.425 191.132 378.119C189.412 380.421 190.674 383.874 193.138 385.212C195.952 386.737 199.026 385.632 200.792 383.352C204.77 378.212 207.573 372.216 209.059 366.048C209.711 363.321 208.163 360.447 205.155 359.681Z" fill="#27374D"/>
<path d="M228.442 313.642C225.62 312.922 222.255 314.523 221.576 317.257C220.198 322.781 217.924 327.385 214.419 332.079C212.7 334.381 213.961 337.834 216.426 339.172C219.24 340.697 222.313 339.593 224.079 337.313C228.058 332.173 230.86 326.177 232.346 320.008C232.998 317.282 231.45 314.408 228.442 313.642Z" fill="#27374D"/>
<path d="M157.028 329.468C154.206 328.749 150.841 330.349 150.162 333.083C148.784 338.607 146.51 343.211 143.005 347.905C141.286 350.207 142.547 353.66 145.012 354.998C147.825 356.523 150.899 355.419 152.665 353.139C156.644 347.999 159.446 342.003 160.932 335.834C161.584 333.108 160.036 330.234 157.028 329.468Z" fill="#27374D"/>
<path d="M162.357 295.629C160.917 300.355 158.961 304.524 156.321 308.779C152.723 314.577 162.279 319.738 165.986 314.012C169.125 309.156 171.505 303.833 173.111 298.377C175.005 291.949 164.305 289.223 162.357 295.629Z" fill="#27374D"/>
<path d="M240.369 279.083C238.929 283.81 236.973 287.978 234.334 292.233C230.736 298.032 240.291 303.193 243.998 297.467C247.138 292.611 249.517 287.288 251.124 281.831C253.018 275.404 242.317 272.677 240.369 279.083Z" fill="#27374D"/>
<path d="M211.648 292.392C210.208 297.118 208.252 301.287 205.613 305.542C202.015 311.34 211.57 316.501 215.277 310.775C218.417 305.919 220.796 300.596 222.403 295.14C224.297 288.712 213.596 285.986 211.648 292.392Z" fill="#27374D"/>
<path d="M195.021 273.634C192.176 272.911 188.877 274.519 188.163 277.242C187.111 281.238 185.574 284.41 183.063 287.892C181.382 290.219 182.574 293.629 185.069 294.978C187.848 296.485 190.992 295.424 192.715 293.118C195.661 289.183 197.765 284.655 198.918 279.99C199.589 277.274 198.017 274.397 195.021 273.634Z" fill="#27374D"/>
<path d="M154.656 365.713C151.811 364.99 148.512 366.598 147.798 369.321C146.746 373.317 145.209 376.489 142.698 379.971C141.018 382.298 142.209 385.708 144.705 387.057C147.484 388.564 150.628 387.503 152.351 385.197C155.297 381.262 157.4 376.734 158.553 372.069C159.224 369.353 157.653 366.476 154.656 365.713Z" fill="#27374D"/>
<path d="M178.72 351.326C175.875 350.603 172.576 352.211 171.862 354.933C170.81 358.929 169.273 362.102 166.762 365.583C165.081 367.911 166.273 371.32 168.768 372.669C171.547 374.176 174.691 373.115 176.414 370.81C179.36 366.875 181.464 362.346 182.617 357.681C183.288 354.966 181.716 352.088 178.72 351.326Z" fill="#27374D"/>
<path d="M153.104 399.164C150.259 398.441 146.96 400.048 146.246 402.771C145.194 406.767 143.657 409.94 141.146 413.421C139.465 415.749 140.657 419.158 143.152 420.507C145.931 422.014 149.075 420.953 150.798 418.648C153.744 414.713 155.848 410.184 157.001 405.519C157.672 402.804 156.1 399.926 153.104 399.164Z" fill="#27374D"/>
<path d="M85.5049 141.746C85.0897 109.507 84.0805 77.2579 82.0701 45.0662C82.0973 44.7389 82.1244 44.4116 82.1516 44.0843C64.9035 44.6454 11.2925 44.4763 10.6249 44.5015C5.65307 44.7065 1.20521 48.2998 1.30224 53.1411C2.62573 118.924 3.60767 183.839 4.00744 249.633C4.24419 288.719 4.30241 327.806 4.18597 366.893C21.1468 362.821 37.0442 353.103 48.0552 340.694C54.9366 332.935 60.2228 324.591 63.8672 315.109C67.8455 304.758 68.8468 293.474 69.0486 282.562C69.2582 271.214 68.579 259.826 69.9685 248.525C70.9621 242.759 72.6349 237.188 74.9597 231.767C78.0453 225.347 81.8139 219.264 85.7456 213.265C85.7495 182.818 85.6913 156.338 85.5049 141.746Z" fill="#E3E0DA"/>
<path d="M307.91 166.456C294.29 162.42 279.487 164.19 266.66 169.819C252.548 176.013 241.921 187.918 237.19 201.604C232.288 215.786 233.961 231.785 238.762 245.78C244.165 261.534 253.22 275.871 260.299 290.974C264.397 300.229 267.654 309.797 269.307 319.699C270.045 325.738 270.134 331.806 269.431 337.852C268.616 342.578 267.308 347.2 265.438 351.66C263.66 355.225 261.514 358.588 259.018 361.767C252.094 369.616 243.497 375.968 235.036 382.341C225.547 389.488 216.554 397.027 208.656 405.71C191.043 425.072 175.941 448.753 174.008 474.528C173.969 475.035 173.942 475.549 173.915 476.06C176.356 475.607 178.794 475.15 181.231 474.697C194.873 472.165 208.496 469.554 222.104 466.863C235.583 464.194 249.047 461.45 262.492 458.623C269.338 457.184 276.181 455.724 283.016 454.245C288.391 453.084 294.201 451.976 298.746 448.893C302.006 446.681 304.401 443.944 305.74 440.372C306.951 437.146 306.997 433.603 307.063 430.222C307.137 426.237 307.211 422.248 307.289 418.263C307.584 415.788 307.727 413.303 307.797 410.86C308.076 401.127 307.995 391.376 308.076 381.64C308.243 361.81 308.41 341.978 308.577 322.148L309.082 261.941C309.221 244.539 308.162 187.393 307.91 166.456Z" fill="#F79E88"/>
<path d="M704.739 225.494C698.809 224.307 693.472 220.131 690.235 215.538C686.618 210.402 685.807 203.96 686.168 197.964C686.49 192.583 687.674 187.267 687.759 181.872C687.767 181.498 687.774 177.664 687.534 177.649C687.495 177.646 687.65 178.372 687.67 178.462C687.674 178.473 687.674 178.476 687.67 178.462C687.662 178.419 687.623 178.257 687.545 177.908C687.472 177.577 687.413 177.246 687.336 176.919C687.204 176.347 687.049 175.779 686.878 175.214C686.661 174.495 686.412 173.783 686.133 173.081C686.074 172.934 686.012 172.757 685.946 172.585C685.904 172.513 685.857 172.441 685.826 172.383C685.193 171.2 684.541 170.038 683.773 168.923C683.377 168.351 682.954 167.797 682.527 167.247C682.884 167.718 682.011 166.657 681.696 166.323C680.757 165.33 679.756 164.391 678.696 163.506C678.366 163.229 678.029 162.96 677.687 162.693C677.664 162.676 677.625 162.647 677.582 162.611C675.281 162.017 672.972 161.467 670.666 160.956C663.602 159.395 656.166 158.323 648.896 159.032C635.86 160.298 623.428 166.6 619.066 178.66C617.032 184.278 617.42 190.447 620.257 195.752C622.993 200.87 628.101 204.618 633.298 207.47C638.215 210.168 643.54 212.172 648.33 215.071C652.712 217.721 656.224 220.955 657.024 225.775C657.524 228.796 657.163 231.925 657.284 234.972C657.408 238.062 657.912 241.137 659.213 243.996C662.186 250.528 668.597 253.053 675.797 253.762C682.469 254.42 689.828 254.801 696.305 252.906C699.779 251.891 702.88 250.19 705.675 248.1C705.713 240.392 705.752 232.807 705.795 225.674C705.438 225.62 705.088 225.563 704.739 225.494Z" fill="#F79E88"/>
<path d="M1074.39 317.656C1072.46 312.257 1069.8 306.944 1066.17 302.333C1062.66 297.87 1058.69 293.881 1054.37 290.082C1050.72 286.863 1046.94 283.745 1043.52 280.306C1042.75 279.526 1041.99 278.731 1041.25 277.911C1041.18 277.824 1041.1 277.738 1041.03 277.652C1040.76 277.314 1040.49 276.976 1040.24 276.634C1039.6 275.767 1039 274.871 1038.44 273.958C1038.11 273.422 1037.8 272.875 1037.5 272.321C1037.37 272.084 1037.26 271.843 1037.13 271.602C1036.48 270.372 1037.37 272.307 1037.53 272.498C1036.82 271.645 1036.55 269.969 1036.26 268.944C1036 268.012 1035.79 267.07 1035.61 266.124C1035.3 263.049 1035.37 259.973 1035.71 256.902C1037.9 244.824 1044.83 233.173 1041.04 220.707C1040.46 218.797 1039.69 216.988 1038.76 215.279C1031.28 215.304 1023.81 215.329 1016.33 215.355C1008.71 215.38 1004.11 215.218 996.497 215.247C990.229 215.272 971.657 212.848 965.183 218.603C961.846 221.57 962.602 229.584 962.835 233.63C963.332 242.216 961.624 328.864 962.117 337.449C962.358 341.596 962.501 345.761 962.847 349.901C963.161 353.685 963.969 357.75 966.98 360.559C970.477 363.818 975.209 363.976 979.854 364.289C984.45 364.598 989.049 364.871 993.648 365.109C996.695 365.267 1028.4 365.091 1069.51 364.803C1077.8 350.506 1080.04 333.396 1074.39 317.656Z" fill="#627A94"/>
<path d="M1110.13 338.539C1109.19 328.493 1107.21 318.505 1103.72 308.944C1100.43 299.916 1095.56 291.629 1091.43 282.961C1090.27 280.245 1089.32 277.476 1088.71 274.613C1088.6 273.127 1088.59 271.645 1088.71 270.156C1089.14 268.117 1089.76 266.131 1090.54 264.182C1092.86 259.614 1095.87 255.402 1099.15 251.377C1106.02 243.252 1113.32 234.954 1115.18 224.451C1115.74 221.268 1115.98 218.164 1115.99 215.049C1097.86 215.11 1079.74 215.171 1061.62 215.232C1046.64 215.283 1031.66 215.333 1016.69 215.383C1012.85 215.398 1009.78 215.362 1006.7 215.326C1005.76 218.182 1005.01 221.088 1004.51 224.034C1002.9 233.49 1002.9 242.532 1004.8 251.97C1006.24 259.171 1009.98 265.771 1011.51 272.911C1012.14 281.022 1009.75 289.162 1009.69 297.28C1009.63 306.675 1011.13 316.17 1013.43 325.306C1015.54 333.705 1018.47 341.909 1021.68 349.999C1023.66 354.984 1025.56 360.145 1027.84 365.105C1049.06 364.99 1078.11 364.782 1108.86 364.551C1110.95 356.12 1110.93 347.096 1110.13 338.539Z" fill="#627A94"/>
<path d="M1172.75 364.008C1173.72 362.185 1174.62 360.336 1175.49 358.476C1185.49 336.859 1193.24 314.232 1198.4 291.201C1201.06 279.342 1203.19 267.264 1204.23 255.19C1205.18 244.241 1204.76 232.583 1200.77 222.142C1199.79 219.57 1198.63 217.085 1197.31 214.711C1182.12 214.761 1166.92 214.812 1151.73 214.865C1130.13 214.937 1108.53 215.013 1086.93 215.085C1083.11 221.498 1080.36 228.49 1078.96 235.86C1077.09 245.669 1076.74 255.614 1075.47 265.484C1074.68 270.246 1073.53 274.929 1071.69 279.432C1068.93 284.939 1065.29 289.989 1061.34 294.827C1055.15 302.117 1048.53 309.124 1042.92 316.821C1040.33 320.382 1038.02 324.108 1036.18 328.054C1034.82 330.971 1033.49 333.888 1032.56 336.953C1031.48 340.553 1030.96 344.254 1030.45 347.959C1029.69 353.584 1029.26 359.365 1029.28 365.04C1065.37 364.832 1122.61 364.382 1172.75 364.008Z" fill="#B38740"/>
<path d="M1238.21 354.048C1242.81 338.086 1240.87 321.393 1238.25 305.311C1235.89 290.82 1233.04 276.235 1229.16 262.023C1225.29 247.82 1219.76 233.662 1211.28 221.232C1209.75 218.995 1208.15 216.826 1206.47 214.714C1188.28 214.776 1170.09 214.837 1151.89 214.898C1129.38 214.973 1106.87 215.049 1084.35 215.124C1084.31 217.498 1084.41 219.861 1084.68 222.185C1085.33 227.728 1086.35 233.119 1088.6 238.306C1091.22 244.323 1094.41 249.413 1098.93 254.391C1105.34 261.459 1113.93 266.545 1121.85 272.062C1125.07 274.44 1128.14 276.972 1130.81 279.871C1131.82 281.213 1132.72 282.608 1133.5 284.072C1134.14 285.773 1134.63 287.511 1134.99 289.284C1135.4 293.794 1135.08 298.312 1134.49 302.801C1132.34 316.569 1128.95 330.529 1133.03 344.297C1135.14 351.416 1139.05 358.203 1143.59 364.26C1177.14 364.008 1209.99 363.76 1234.47 363.609C1236.03 360.498 1237.28 357.282 1238.21 354.048Z" fill="#F79E88"/>
<path d="M1291.87 230.684C1291.15 224.656 1287.42 219.732 1281.4 217.283C1276.2 215.164 1270.49 214.625 1264.85 214.607C1257.33 214.585 1249.8 214.657 1242.27 214.682C1216.03 214.772 1189.8 214.858 1163.56 214.948C1163.52 215.567 1163.48 216.182 1163.44 216.804C1162.9 227.311 1164.36 237.752 1169.96 247.046C1174.57 254.686 1181.39 260.916 1187.28 267.696C1189.13 270.037 1190.8 272.472 1192.17 275.08C1193.12 277.483 1193.82 279.95 1194.29 282.472C1194.78 287.27 1194.55 292.082 1193.96 296.866C1192.82 303.941 1191.07 310.912 1189.5 317.915C1187.44 327.133 1185.93 336.467 1184.83 345.826C1184.12 351.865 1183.57 357.969 1183.89 364.048C1232.15 363.692 1271.54 363.436 1275 363.587C1279.22 363.774 1283.59 363.785 1287.39 361.843C1291.08 359.958 1293.5 356.39 1294.31 352.613C1295.11 348.898 1294.86 345.172 1294.69 341.417C1294.5 337.287 1292.24 233.832 1291.87 230.684Z" fill="#627A94"/>
<path d="M1150.77 372.569L1147.6 372.101C1146.31 371.91 1145.42 370.781 1145.63 369.58L1148.13 355.016C1148.33 353.815 1149.55 352.995 1150.85 353.185L1154.02 353.653C1155.31 353.843 1156.2 354.973 1155.99 356.174L1153.49 370.738C1153.29 371.943 1152.07 372.763 1150.77 372.569Z" fill="#27374D"/>
<path d="M1175.72 616.61C1175.87 609.632 1177.19 576.696 1177.96 577.041C1178.98 577.494 1180.08 579.03 1181.12 579.25C1181.67 578.879 1182.59 578.937 1182.88 579.573C1183.23 579.631 1183.57 579.689 1183.92 579.746C1183.93 579.746 1183.94 579.75 1183.94 579.75C1184.39 579.127 1185.5 579.282 1185.94 579.897C1186.09 580.113 1186.23 580.34 1186.35 580.57C1186.71 580.796 1187.04 581.073 1187.34 581.429C1187.4 581.498 1187.44 581.57 1187.48 581.642C1187.84 581.804 1188.09 582.124 1188.05 582.609C1187.8 585.264 1185.4 599.77 1184.61 602.28C1183.57 606.816 1182.46 611.388 1181.01 615.797C1180.46 617.47 1179.26 619.258 1177.12 619.193C1174.94 619.132 1175.68 618.394 1175.72 616.61Z" fill="#F28168"/>
<path d="M1165.57 615.197C1167.54 614.499 1169.37 613.837 1171.38 613.225C1172.81 612.787 1174.24 612.287 1175.77 612.333C1177.22 612.377 1180.92 613.254 1181.11 613.297C1182.9 613.711 1182.14 616.747 1181.83 618.448C1181.27 621.513 1178.23 620.416 1175.83 620.124C1172.2 619.678 1168.67 619.556 1165.08 618.923C1164.15 618.757 1162.53 618.498 1162.12 617.858C1161.89 617.488 1160.94 616.83 1165.57 615.197Z" fill="#27374D"/>
<path d="M1229.89 617.858C1229.03 610.923 1225.62 578.117 1226.44 578.361C1227.52 578.685 1228.83 580.073 1229.89 580.163C1230.38 579.728 1231.31 579.67 1231.68 580.268C1232.03 580.282 1232.38 580.296 1232.74 580.311C1232.75 580.311 1232.75 580.311 1232.76 580.311C1233.12 579.638 1234.24 579.656 1234.76 580.214C1234.95 580.411 1235.11 580.616 1235.26 580.829C1235.66 581.008 1236.03 581.242 1236.37 581.559C1236.43 581.62 1236.49 581.685 1236.54 581.753C1236.91 581.868 1237.21 582.156 1237.24 582.641C1237.37 585.303 1237.07 599.975 1236.65 602.561C1236.27 607.186 1235.82 611.851 1235.02 616.401C1234.72 618.124 1233.78 620.045 1231.66 620.246C1229.48 620.455 1230.1 619.631 1229.89 617.858Z" fill="#F28168"/>
<path d="M1219.62 617.707C1221.48 616.776 1223.19 615.891 1225.1 615.038C1226.45 614.427 1227.8 613.758 1229.33 613.614C1230.76 613.481 1234.56 613.891 1234.75 613.912C1236.59 614.099 1236.27 617.204 1236.21 618.927C1236.09 622.034 1232.92 621.322 1230.5 621.326C1226.84 621.329 1223.33 621.642 1219.68 621.459C1218.73 621.412 1217.09 621.351 1216.6 620.768C1216.31 620.43 1215.27 619.894 1219.62 617.707Z" fill="#27374D"/>
<path d="M1246.15 525.639C1245.39 515.935 1244.54 506.241 1243.64 496.548C1242.75 486.905 1242.04 477.208 1240.81 467.604C1240.18 462.63 1234.6 457.519 1232.77 452.821C1231.08 448.465 1233.22 443.084 1227.98 442.38C1225.77 442.081 1223.54 442.908 1222.9 445.261C1222.67 446.077 1222.76 447.041 1223.09 447.915C1222.55 447.775 1222 447.732 1221.5 447.807C1220.38 447.976 1219.54 448.48 1218.94 449.206C1217.55 446.484 1213.48 446.822 1211.8 449.224C1210.52 448.462 1208.78 448.386 1207.41 449.066C1207.41 449.005 1207.41 448.947 1207.42 448.886C1207.54 446.843 1205.74 445.03 1203.8 444.8C1201.63 444.541 1200 445.793 1199.23 447.782C1199.03 448.296 1198.85 448.814 1198.65 449.332C1198.46 449.368 1198.27 449.419 1198.09 449.498C1197.52 449.735 1196.98 450.008 1196.47 450.314C1196.25 450.019 1195.99 449.76 1195.72 449.555C1194.24 448.451 1190.74 451.566 1190.27 453.544C1187.94 463.256 1183.66 464.633 1181.65 469.769C1177.71 479.876 1176.58 490.462 1174.94 502.371C1172.09 522.956 1167.65 556.579 1165.69 577.268C1165.45 579.868 1165.21 582.465 1164.98 585.066C1164.76 587.576 1164.28 590.184 1164.72 592.687C1165.71 598.209 1171.58 599.493 1176.23 600.701C1180.92 601.924 1186.21 603.118 1191.08 602.985C1197.14 602.82 1198.76 596.863 1200.43 592.08C1202.26 586.821 1209.24 549.112 1210.26 543.641C1211.14 549.641 1211.12 587.691 1212 593.691C1212.47 596.896 1212.93 600.176 1215.94 602.057C1218.64 603.748 1222.51 603.568 1225.59 603.708C1233.37 604.064 1238.86 603.435 1246.53 602.09C1248.29 601.78 1249.61 599.773 1249.59 598.075C1249.34 578.138 1247.7 545.508 1246.15 525.639Z" fill="#27374D"/>
<path d="M1229.57 339.463C1227.22 335.748 1218.23 334.532 1213.72 334.755C1206.04 335.136 1202.76 340.953 1200.22 347.161C1199.51 347.927 1198.77 348.664 1197.99 349.437C1197.02 350.412 1195.48 351.308 1195.74 352.822C1195.9 353.75 1196.7 354.336 1197.55 354.761C1196.71 358.217 1196.36 362.116 1197.61 364.983C1198.76 367.655 1202.67 368.022 1205.08 369.673C1205.46 369.727 1204.29 369.939 1204.68 369.954C1206.05 370.004 1207.5 369.756 1208.87 369.598C1211.77 369.263 1214.55 368.814 1217.33 367.972C1218.35 367.666 1219.62 367.173 1220.88 366.911C1226.59 363.462 1230.67 357.376 1231.66 351.286C1232.31 347.323 1231.78 342.963 1229.57 339.463Z" fill="#F28168"/>
<path d="M1219.83 366.831L1205.16 368.26L1207.76 391.153L1222.42 389.724L1219.83 366.831Z" fill="#F28168"/>
<path d="M1241.51 454.26C1240.88 443.484 1240.93 426.021 1241.31 415.234C1241.65 405.695 1242.99 394.851 1238.98 388.258C1236.29 383.823 1235.3 381.237 1229.8 380.586C1223.74 379.87 1206.33 380.158 1200.56 381.604C1195.88 382.776 1192.14 385.665 1188.92 389.067C1183.67 394.599 1184.27 398.52 1183.25 405.66C1182.7 409.515 1182.41 413.403 1181.78 417.252C1181.15 421.119 1179.48 442.574 1178.92 446.44C1177.08 459.08 1174.94 458.54 1186.78 460.393C1190.86 461.029 1211.99 461.677 1221.56 460.529C1226.28 459.957 1241.79 459.159 1241.51 454.26Z" fill="#27374D"/>
<path d="M1198.84 388.01C1197.67 386.643 1194.41 385.862 1192.31 386.805C1184.04 390.524 1176.58 395.711 1169.28 400.894C1167.63 402.055 1165.95 403.235 1164.35 404.508C1162.57 400.721 1160.24 397.142 1158.18 393.488C1154.89 387.661 1152 381.665 1149.46 375.525C1150.39 372.637 1149.94 369.54 1148.04 366.972C1147.67 366.465 1146.97 366.335 1146.46 366.583C1146.49 366.224 1146.49 365.846 1146.52 365.515C1146.61 364.558 1146.71 363.605 1146.8 362.648C1146.85 362.184 1146.4 361.713 1145.94 361.602C1142.35 360.735 1141.12 366.551 1140.8 368.792C1140.52 370.666 1140.56 372.59 1140.99 374.442C1141.16 375.209 1141.42 375.942 1141.91 376.59C1142.28 377.068 1142.85 377.449 1143.3 377.899C1146.1 391.049 1150.28 405.667 1156.71 417.662C1158.74 421.46 1163.29 419.806 1166.39 418.666C1170.66 417.09 1174.62 414.892 1178.55 412.684C1182.45 410.49 1186.27 408.184 1190.01 405.774C1193.4 403.591 1197.02 401.372 1199.34 398.128C1201.55 395.027 1201.56 391.171 1198.84 388.01Z" fill="#F28168"/>
<path d="M1242.02 359.778C1241.2 356.685 1240.13 353.656 1239.51 350.516C1238.9 347.452 1238.41 344.51 1236.93 341.672C1233.92 335.92 1227.71 332.007 1220.94 331.183C1217.67 330.788 1213.79 330.867 1211.01 332.701C1209.8 333.496 1208.98 334.586 1208.44 335.809C1206.68 337.971 1206.31 341.474 1205.51 344.013C1203.48 350.473 1206.13 355.739 1205.61 357.052C1204.86 358.929 1198.89 361.76 1196.01 367.555C1195.34 368.907 1194.61 370.202 1194.55 371.709C1194.29 378.111 1199.64 379.687 1205.6 379.111C1208.78 378.806 1211.89 377.752 1215.09 377.73C1218.13 377.708 1221.05 378.698 1223.91 379.528C1226.84 380.381 1230.08 381.384 1233.18 381.129C1236.66 380.845 1239.21 378.971 1240.9 376.209C1243.98 371.184 1243.45 365.177 1242.02 359.778Z" fill="#FFF2E8"/>
<path d="M1208 348.074C1205.38 347.251 1202.81 346.319 1200.28 345.276C1200.67 344.445 1201.09 343.629 1201.55 342.823C1202.01 342.003 1200.68 341.276 1200.21 342.096C1198.94 344.337 1197.92 346.672 1197.17 349.107C1196.89 349.999 1198.39 350.38 1198.66 349.488C1198.97 348.506 1199.32 347.546 1199.71 346.603C1202.29 347.664 1204.92 348.625 1207.59 349.463C1208.54 349.758 1208.95 348.369 1208 348.074Z" fill="#27374D"/>
<path d="M1182.16 398.488C1182.13 398.452 1182.1 398.419 1182.07 398.383C1182.56 397.93 1182.57 397.024 1182.12 396.506C1181.5 395.801 1180.89 395.096 1180.27 394.387C1180.56 393.29 1179.3 392.236 1178.53 391.488C1177.51 390.503 1176.41 389.6 1175.31 388.697C1174.14 387.355 1162.41 374.928 1160.87 373.241C1160.94 373.04 1160.16 370.785 1160.07 370.544C1159.45 368.857 1158.67 367.227 1157.65 365.713C1157.23 365.087 1154.68 361.998 1153.93 362.393C1151.71 363.58 1151.98 365.544 1152.28 367.584C1152.5 369.083 1153.27 370.745 1154.02 371.997C1154.43 372.684 1155.87 374.486 1156.46 374.95C1157.78 377.863 1159.24 382.42 1160.58 385.32C1163.94 392.56 1167.44 396.437 1173.8 401.667C1174.33 402.106 1174.97 402.063 1175.45 401.793C1176.16 402.559 1176.89 403.318 1177.64 404.055C1178.7 405.095 1180.57 403.757 1179.78 402.53C1179.73 402.466 1179.69 402.404 1179.65 402.34C1180.23 402.084 1180.61 401.469 1180.38 400.804C1180.5 400.743 1180.61 400.653 1180.71 400.556C1180.75 400.57 1180.8 400.581 1180.84 400.595C1182.23 401.023 1182.97 399.372 1182.16 398.488Z" fill="#F28168"/>
<path opacity="0.58" d="M309.097 251.657C308.926 224.408 307.886 169.88 307.886 160.265C307.886 151.273 302.938 147.432 300.186 146.31C296.099 144.641 267.277 137.523 241.925 131.599C238.098 139.447 235.304 147.741 233.437 156.273C229.61 173.757 227.755 193.223 234.962 210.2C238.552 218.66 243.722 226.462 251.287 232.382C258.537 238.058 266.885 242.77 275.253 246.899C284.335 251.38 296.406 256.2 306.726 252.621C307.545 252.334 308.332 252.01 309.097 251.657Z" fill="white"/>
<path opacity="0.58" d="M258.059 396.412C254.31 390.373 248.795 385.373 243.109 380.902C239.833 378.327 236.418 375.824 232.777 373.702C229.478 371.781 225.942 370.339 222.333 368.993C210.449 364.558 197.4 363.832 185.469 359.573C183.758 358.847 182.089 358.037 180.49 357.106C179.938 356.782 179.407 356.437 178.867 356.095C177.951 355.365 177.066 354.617 176.228 353.807C175.735 353.329 175.258 352.84 174.796 352.336C174.866 352.433 174.939 352.538 175.017 352.653C174.936 352.534 174.85 352.419 174.765 352.304C174.765 352.304 174.765 352.304 174.765 352.3C174.454 351.959 174.02 351.322 173.981 351.236C173.562 350.675 173.142 350.11 172.758 349.524C171.536 347.661 170.48 345.715 169.517 343.726C165.035 333.28 162.776 322.17 157.843 311.85C152.82 301.348 143.983 292.356 132.367 288.111C132.883 323.907 133.395 359.699 133.911 395.495C134.288 421.579 134.66 447.667 135.037 473.751C135.072 476.118 136.873 478.571 139.454 479.128C146.572 480.657 153.651 479.938 160.758 478.733C167.62 477.567 174.458 476.265 181.297 474.996C194.939 472.463 208.562 469.852 222.17 467.162C234.57 464.709 246.951 462.184 259.321 459.598C261.828 452.271 263.528 444.725 264.467 436.963C266.09 423.532 265.496 408.393 258.059 396.412ZM146.999 468.885C146.999 468.755 146.995 468.622 146.995 468.493C147.162 468.629 147.336 468.762 147.511 468.892C147.34 468.892 147.169 468.892 146.999 468.885ZM174.8 352.336C174.155 351.419 173.958 351.175 173.985 351.239C174.249 351.592 174.513 351.948 174.769 352.304C174.78 352.315 174.788 352.326 174.8 352.336Z" fill="white"/>
<path d="M631.268 306.606C629.595 303.15 627.166 299.743 624.088 297.233C619.613 293.586 614.532 291.74 608.641 291.201C598.22 290.248 588.804 295.413 581.115 301.315C577.991 303.711 575.138 306.739 571.742 308.8C571.882 308.714 574.032 307.257 572.476 308.264C572.025 308.556 571.587 308.858 571.133 309.146C570.325 309.653 569.503 310.138 568.66 310.595C567.283 311.343 565.866 312.019 564.418 312.638C560.455 314.055 556.357 315.037 552.169 315.663C545.874 316.278 539.559 316.102 533.275 315.426C525.152 314.293 517.223 312.401 509.286 310.487C509.274 314.843 509.239 318.706 509.173 321.929C508.851 337.327 508.56 352.725 508.521 368.126C522.024 370.605 536.027 370.813 549.689 368.777C556.924 367.698 563.855 365.375 571.063 364.227C572.693 364.091 574.319 364.048 575.953 364.141C576.931 364.328 577.894 364.566 578.841 364.861C579.155 365.008 579.466 365.163 579.768 365.332C579.912 365.411 580.052 365.497 580.188 365.583C580.382 365.774 580.649 366.051 580.886 366.292C580.898 366.306 580.906 366.324 580.913 366.335C580.937 366.371 580.952 366.407 580.975 366.443C581.154 366.986 581.298 367.537 581.422 368.09C581.627 370.889 581.461 373.712 581.127 376.5C580.028 382.863 577.956 389.01 575.352 394.977C572.15 401.793 568.389 408.364 564.589 414.907C562.734 418.101 560.875 421.295 559.074 424.514C559.765 424.528 560.456 424.546 561.146 424.557C578.697 424.902 596.256 425.118 613.81 425.169C615.382 425.172 616.919 425.179 618.425 425.183C620.463 422.795 622.345 420.291 624.065 417.73C632.413 405.293 636.527 391.189 638.409 376.773C640.373 361.738 639.372 346.384 637.691 331.363C636.725 322.706 635.13 314.577 631.268 306.606Z" fill="#F79E88"/>
<path d="M557.719 121.499C557.688 121.427 557.657 121.359 557.63 121.287C557.622 121.269 557.61 121.244 557.603 121.222C557.587 121.19 557.572 121.154 557.556 121.121C557.316 120.607 556.927 119.913 557.719 121.499Z" fill="white"/>
<path d="M924.369 199.287C924.442 199.266 924.52 199.226 924.597 199.183C924.566 199.187 924.504 199.205 924.427 199.233C924.373 199.273 924.349 199.294 924.369 199.287Z" fill="white"/>
<path d="M923.103 199.417C923.103 199.417 923.2 199.439 923.336 199.475C923.208 199.421 923.119 199.396 923.103 199.417Z" fill="white"/>
<path d="M925.568 198.255C925.669 198.14 925.762 198.032 925.844 197.95C925.886 197.906 925.929 197.86 925.968 197.813C926.026 197.723 926.088 197.633 926.15 197.547C925.366 198.227 925.358 198.406 925.568 198.255Z" fill="white"/>
<path opacity="0.14" d="M725.321 23.8197C712.436 23.9168 699.546 23.9744 686.657 24.0104C686.315 23.4924 685.826 23.068 685.224 22.8918C683.082 22.2623 680.757 21.5789 678.498 21.4566C676.232 21.3343 674.858 22.4565 673.922 24.0391C659.539 24.0571 645.151 24.0427 630.767 23.9852C621.41 23.9492 612.052 23.8917 602.698 23.8233C602.644 23.7154 602.594 23.6075 602.535 23.4996C601.973 22.4278 600.374 21.5825 599.07 21.9458C597.292 22.4422 595.394 22.9745 593.694 23.7514C574.536 23.5931 555.375 23.3773 536.217 23.0896C533.186 23.0428 530.155 22.9925 527.124 22.9421C526.479 21.9674 524.997 21.2444 523.774 21.5861C522.47 21.9494 521.096 22.3342 519.784 22.8198C507.512 22.604 495.244 22.3702 482.975 22.1472C479.629 22.0861 479.629 29.5567 482.975 29.6394C493.823 29.9056 504.671 30.1286 515.519 30.3228C516.124 32.6715 516.722 35.0239 517.328 37.3726C516.699 37.592 516.311 37.7359 516.28 37.7718C515.018 38.5092 513.997 39.5379 513.466 40.9694C512.779 42.8254 513.213 44.8144 513.485 46.7064C513.772 48.7026 514.106 50.6917 514.49 52.6699C515.111 55.8639 515.364 60.6297 518.546 62.6583C520.223 63.7266 522.233 63.6367 524.1 63.1223C526.355 62.5037 528.591 61.7843 530.815 61.0721C532.67 60.4786 534.517 59.8636 536.361 59.2305C538.616 58.4536 541.011 57.8638 541.993 55.5942C542.641 54.0979 542.435 52.5225 541.962 51.001C541.317 48.9364 540.591 46.8898 539.908 44.836C539.311 43.0376 538.709 41.2392 538.111 39.4408C537.494 37.592 536.869 35.6821 534.983 34.5994C533.66 33.8405 532.092 33.7578 530.566 33.8225C530.283 32.7363 530.031 31.6464 529.767 30.5566C545.684 30.8048 561.6 30.9918 577.517 31.1537C582 31.2004 586.483 31.2328 590.966 31.2724C591.517 33.4233 592.068 35.5742 592.623 37.7251C591.994 37.9445 591.606 38.0884 591.575 38.1243C590.314 38.8617 589.293 39.8904 588.761 41.3219C588.074 43.1779 588.509 45.1669 588.78 47.0589C589.068 49.0551 589.401 51.0442 589.786 53.0224C590.407 56.2164 590.659 60.9822 593.842 63.0108C595.518 64.0791 597.529 63.9892 599.396 63.4748C601.65 62.8562 603.886 62.1368 606.11 61.4246C607.965 60.8311 609.813 60.2161 611.656 59.583C613.911 58.8061 616.306 58.2162 617.288 55.9466C617.936 54.4504 617.73 52.8749 617.257 51.3535C616.613 49.2889 615.887 47.2423 615.204 45.1885C614.606 43.3901 614.004 41.5917 613.407 39.7933C612.79 37.9445 612.165 36.0346 610.278 34.9519C608.955 34.193 607.387 34.1103 605.862 34.175C605.617 33.247 605.4 32.3119 605.175 31.3803C627.014 31.5313 648.85 31.5997 670.689 31.5817C670.557 31.9018 670.425 32.2219 670.293 32.5457C669.641 32.3982 669.23 32.3155 669.187 32.3262C667.697 32.2759 666.226 32.5888 664.918 33.4952C663.218 34.6678 662.372 36.5417 661.444 38.243C660.466 40.0414 659.535 41.8579 658.646 43.6958C657.214 46.656 654.524 50.724 655.917 54.0655C656.651 55.8243 658.366 56.7991 660.222 57.353C662.461 58.022 664.743 58.5939 667.014 59.1694C668.908 59.6478 670.81 60.1082 672.715 60.547C675.048 61.0829 677.388 61.849 679.581 60.4858C681.025 59.5866 681.817 58.1803 682.352 56.6768C683.078 54.6338 683.722 52.5656 684.409 50.5118C685.007 48.7134 685.609 46.915 686.206 45.1166C686.823 43.2678 687.468 41.3651 686.567 39.4839C685.939 38.1675 684.693 37.2791 683.392 36.5345C684.072 34.8656 684.829 33.2254 685.496 31.5529C698.77 31.5206 712.047 31.4558 725.321 31.3587C728.694 31.3551 728.702 23.7946 725.321 23.8197Z" fill="#D9D6D0"/>
<path opacity="0.14" d="M1261.78 2.61277C1248.9 2.70988 1236.01 2.76743 1223.12 2.8034C1222.78 2.28545 1222.29 1.86103 1221.69 1.68478C1219.55 1.05534 1217.22 0.37194 1214.96 0.249648C1212.7 0.127355 1211.32 1.24957 1210.39 2.83217C1196 2.85016 1181.61 2.83577 1167.23 2.77822C1157.87 2.74225 1148.52 2.6847 1139.16 2.61636C1139.11 2.50846 1139.06 2.40055 1139 2.29265C1138.44 1.22079 1136.84 0.375534 1135.53 0.738814C1133.76 1.23518 1131.86 1.76751 1130.16 2.54443C1111 2.38617 1091.84 2.17035 1072.68 1.88261C1069.65 1.83585 1066.62 1.78549 1063.59 1.73514C1062.94 0.760397 1061.46 0.037432 1060.24 0.379131C1058.93 0.742411 1057.56 1.12727 1056.25 1.61284C1043.98 1.39703 1031.71 1.16324 1019.44 0.940239C1016.09 0.879093 1016.09 8.34971 1019.44 8.43244C1030.29 8.69861 1041.13 8.92161 1051.98 9.11584C1052.59 11.4646 1053.19 13.8169 1053.79 16.1656C1053.16 16.385 1052.77 16.5289 1052.74 16.5649C1051.48 17.3022 1050.46 18.3309 1049.93 19.7625C1049.24 21.6184 1049.68 23.6075 1049.95 25.4994C1050.24 27.4956 1050.57 29.4847 1050.95 31.463C1051.58 34.6569 1051.83 39.4227 1055.01 41.4514C1056.69 42.5196 1058.7 42.4297 1060.56 41.9154C1062.82 41.2967 1065.05 40.5773 1067.28 39.8652C1069.13 39.2717 1070.98 38.6566 1072.82 38.0236C1075.08 37.2467 1077.47 36.6568 1078.46 34.3872C1079.1 32.8909 1078.9 31.3155 1078.43 29.794C1077.78 27.7294 1077.06 25.6828 1076.37 23.6291C1075.77 21.8306 1075.17 20.0322 1074.58 18.2338C1073.96 16.385 1073.33 14.4751 1071.45 13.3925C1070.12 12.6335 1068.56 12.5508 1067.03 12.6156C1066.75 11.5293 1066.49 10.4395 1066.23 9.34963C1082.15 9.59781 1098.06 9.78485 1113.98 9.94671C1118.46 9.99347 1122.95 10.0258 1127.43 10.0654C1127.98 12.2163 1128.53 14.3672 1129.09 16.5181C1128.46 16.7375 1128.07 16.8814 1128.04 16.9174C1126.78 17.6547 1125.76 18.6834 1125.22 20.115C1124.54 21.9709 1124.97 23.96 1125.24 25.8519C1125.53 27.8481 1125.87 29.8372 1126.25 31.8155C1126.87 35.0094 1127.12 39.7752 1130.31 41.8038C1131.98 42.8721 1133.99 42.7822 1135.86 42.2678C1138.11 41.6492 1140.35 40.9298 1142.57 40.2177C1144.43 39.6242 1146.28 39.0091 1148.12 38.3761C1150.37 37.5992 1152.77 37.0093 1153.75 34.7397C1154.4 33.2434 1154.19 31.668 1153.72 30.1465C1153.08 28.0819 1152.35 26.0353 1151.67 23.9815C1151.07 22.1831 1150.47 20.3847 1149.87 18.5863C1149.25 16.7375 1148.63 14.8276 1146.74 13.745C1145.42 12.986 1143.85 12.9033 1142.33 12.968C1142.08 12.0401 1141.86 11.1049 1141.64 10.1733C1163.48 10.3244 1185.31 10.3927 1207.15 10.3747C1207.02 10.6948 1206.89 11.015 1206.76 11.3387C1206.11 11.1912 1205.69 11.1085 1205.65 11.1193C1204.16 11.0689 1202.69 11.3818 1201.38 12.2882C1199.68 13.4608 1198.84 15.3348 1197.91 17.0361C1196.93 18.8345 1196 20.6509 1195.11 22.4889C1193.68 25.4491 1190.99 29.5171 1192.38 32.8585C1193.11 34.6174 1194.83 35.5921 1196.69 36.146C1198.92 36.815 1201.21 37.3869 1203.48 37.9624C1205.37 38.4408 1207.27 38.9012 1209.18 39.34C1211.51 39.8759 1213.85 40.6421 1216.04 39.2789C1217.49 38.3797 1218.28 36.9733 1218.82 35.4698C1219.54 33.4268 1220.19 31.3586 1220.87 29.3049C1221.47 27.5064 1222.07 25.708 1222.67 23.9096C1223.29 22.0608 1223.93 20.1581 1223.03 18.277C1222.4 16.9605 1221.16 16.0721 1219.86 15.3276C1220.54 13.6586 1221.29 12.0185 1221.96 10.346C1235.23 10.3136 1248.51 10.2488 1261.78 10.1517C1265.15 10.1517 1265.16 2.58759 1261.78 2.61277Z" fill="#D9D6D0"/>
</svg>
