<svg width="336" height="271" viewBox="0 0 336 271" fill="none" xmlns="http://www.w3.org/2000/svg">
<path d="M328.91 127.021C328.843 119.936 328.693 112.84 328.269 105.767C328.269 105.761 328.268 105.756 328.268 105.749C328.285 105.554 328.29 105.357 328.28 105.159C328.137 101.953 325.814 99.7507 322.673 99.5448C294.069 97.6727 301.97 98.3706 273.353 99.585C244.851 100.794 216.357 102.506 187.822 102.663C171.715 102.752 155.597 102.336 139.533 101.105C136.629 100.881 133.85 103.823 133.977 106.669C134.122 109.886 136.422 111.98 139.533 112.233C140.371 112.301 141.209 112.367 142.047 112.43C142.068 112.489 142.093 112.548 142.115 112.606C142.03 113.386 141.913 114.166 141.849 114.918C141.715 116.47 141.587 118.025 141.465 119.58C141.22 122.687 140.998 125.798 140.795 128.909C140.389 135.132 140.056 141.359 139.781 147.59C139.23 160.052 138.902 172.524 138.639 184.997C138.578 187.928 138.416 190.885 138.634 193.813C138.831 196.446 139.239 199.148 140.281 201.57C137.937 202.221 135.991 204.361 136.106 206.912C136.24 209.896 138.54 212.483 141.643 212.457C169.363 212.221 197.082 211.782 224.798 211.34C252.371 210.901 279.946 210.288 307.495 208.976C322.95 208.24 301.808 207.28 317.23 206.019C320.145 205.78 322.98 203.608 322.837 200.404C322.821 200.057 322.772 199.706 322.692 199.359C323.45 198.768 324.14 197.951 324.586 197.189C325.372 195.842 325.48 194.453 325.644 192.939C325.98 189.845 326.292 186.748 326.578 183.65C327.154 177.395 327.625 171.131 327.989 164.859C328.724 152.264 329.032 139.641 328.91 127.021Z" fill="#C4C1BB"/>
<path d="M332.177 134.741C331.214 130.936 327.344 128.755 323.708 128.214C320.804 127.783 317.856 127.63 314.927 127.445C309.679 127.113 304.397 126.955 299.156 127.48C296.145 127.782 293.128 128.218 290.19 128.956C288.41 129.402 323.334 130.045 322.044 131.4C319.722 133.841 319.697 137.535 321.375 140.324C322.778 142.654 288.366 143.931 290.788 144.627C291.229 144.964 291.708 145.255 292.218 145.494C295.299 146.927 298.949 146.979 302.297 147.213C307.636 147.586 312.972 147.647 318.272 146.825C320.889 146.419 323.354 145.592 325.748 144.454C329.487 142.675 333.353 139.386 332.177 134.741Z" fill="#356B68"/>
<path d="M321.549 155.287C322.952 156.376 288.54 156.973 290.962 157.299C291.403 157.456 291.882 157.592 292.393 157.704C295.473 158.374 299.123 158.398 302.472 158.506C307.81 158.681 313.146 158.709 318.446 158.325C321.063 158.135 323.529 157.747 325.923 157.215C329.661 156.385 333.528 154.846 332.351 152.675C331.388 150.896 327.518 149.877 323.882 149.624C320.978 149.421 318.03 149.35 315.101 149.264C309.854 149.109 304.571 149.036 299.33 149.28C296.32 149.421 293.302 149.625 290.365 149.969C288.584 150.179 323.508 150.479 322.218 151.112C319.896 152.257 319.872 153.982 321.549 155.287ZM323.534 161.141C320.63 160.938 317.682 160.867 314.753 160.781C309.505 160.626 304.223 160.553 298.982 160.797C295.971 160.938 292.954 161.142 290.016 161.486C288.236 161.696 323.159 161.996 321.87 162.629C319.548 163.77 319.523 165.497 321.201 166.802C322.604 167.891 288.192 168.488 290.614 168.814C291.055 168.971 291.534 169.107 292.044 169.219C295.124 169.889 298.775 169.913 302.123 170.021C307.461 170.196 312.798 170.224 318.098 169.84C320.715 169.65 323.18 169.262 325.574 168.73C329.313 167.9 333.179 166.361 332.003 164.191C331.04 162.413 327.17 161.394 323.534 161.141Z" fill="#27374D"/>
<path d="M335.777 50.1531C335.752 47.0422 333.224 44.6397 330.17 44.5385C313.261 43.9732 220.961 43.5719 216.217 43.8022C215.06 43.8581 213.904 43.9174 212.747 43.9785C211.396 44.05 209.94 44.036 208.649 44.4495C205.501 45.4597 203.713 48.5619 204.34 51.7722C204.38 63.3066 204.433 74.841 204.481 86.3737C204.532 98.2292 204.577 110.085 204.626 121.94C204.675 133.738 204.725 145.534 204.772 157.332C204.819 169.13 204.868 180.928 204.919 192.726C204.943 198.654 204.969 204.583 204.994 210.511C205.001 211.965 205.004 213.418 205.013 214.872C205.025 217.421 205.051 216.255 206.694 218.221C209.114 221.118 327.592 219.987 329.634 219.753C331.101 219.586 332.547 219.258 333.601 218.108C334.597 217.021 335.273 215.646 335.244 214.135C334.832 193.287 334.536 172.431 334.921 151.58C335.116 141.129 335.796 52.73 335.777 50.1531ZM302.395 163.207C302.484 156.479 302.574 149.749 302.663 143.022C302.693 140.715 302.724 138.409 302.754 136.102C302.933 134.363 303.121 132.623 303.325 130.885C303.449 134.823 303.561 138.763 303.656 142.701C303.104 150.353 302.672 158.012 302.362 165.679C302.376 164.854 302.384 164.028 302.395 163.207ZM245.966 172.816C247.679 172.152 249.277 171.323 250.456 169.863C251.658 168.374 252.486 166.851 253.047 165.004C253.483 163.566 253.706 162.06 253.85 160.541C254.512 161.087 255.282 161.495 256.028 161.701C257.025 161.969 258.021 161.969 259.016 161.701C259.969 161.434 260.795 160.951 261.497 160.253C262.413 159.536 263.217 158.522 263.755 157.498C264.565 155.957 264.853 154.579 265.053 152.869C265.21 151.534 264.313 149.796 263.407 148.889C263.018 148.5 262.528 148.149 261.994 147.872C260.023 129.589 261.182 111.151 260.988 92.7961C260.974 91.4805 260.953 90.1668 260.922 88.8512C262.147 89.495 263.582 89.7236 264.928 89.2874C267.429 88.4761 268.834 86.4418 269.051 83.863C269.079 83.5385 269.105 83.214 269.133 82.8895C269.315 83.1739 269.503 83.4565 269.7 83.7304C271.048 85.613 272.9 86.7384 275.297 86.4156C277.369 86.1364 279.524 84.554 279.968 82.3853C279.989 82.2823 280.009 82.1794 280.029 82.0782C280.345 82.3224 280.671 82.5475 281.005 82.7516C275.101 96.2733 270.104 110.191 266.178 124.419C264.928 128.956 263.79 133.522 262.744 138.11C262.095 140.961 263.616 144.311 266.652 145.004C269.499 145.653 272.839 144.147 273.536 141.09C276.034 130.118 279.146 119.283 282.841 108.652C282.735 109.68 282.629 110.707 282.524 111.737C282.436 112.608 282.768 113.628 283.261 114.49C283.253 115.113 283.244 115.736 283.233 116.357C283.028 128.828 282.627 141.294 282.155 153.759C281.89 160.774 281.601 167.788 281.314 174.802C281.193 177.747 283.984 180.563 286.934 180.43C287.859 180.389 288.807 180.179 289.635 179.748C289.649 180.581 289.664 181.415 289.683 182.247C289.748 185.059 291.774 187.402 294.558 187.776C297.219 188.133 300.079 186.483 300.728 183.742C301.458 180.654 301.848 177.52 302.067 174.371C301.921 179.516 301.83 184.665 301.792 189.812C300.468 189.814 299.146 189.815 297.821 189.812C297.402 189.718 296.971 189.653 296.539 189.606C280.209 187.795 263.758 187.106 247.334 187.568C245.817 187.61 244.299 187.668 242.782 187.729C243.005 182.795 243.207 177.857 243.404 172.921C244.261 173.131 245.156 173.131 245.966 172.816Z" fill="#FFFFF7"/>
<path d="M319.513 190.62C319.075 185.991 318.497 181.374 317.798 176.779C317.471 174.624 317.11 172.475 316.722 170.33C316.434 168.744 314.627 167.806 313.162 168.003C311.481 168.23 310.495 169.561 310.35 171.194C310.04 174.692 309.73 178.19 309.422 181.69C309.265 183.468 309.106 185.246 308.949 187.024C308.878 187.826 308.806 188.629 308.737 189.433C308.702 189.835 308.665 190.236 308.631 190.637C308.611 190.852 308.575 191.07 308.573 191.285C308.573 191.298 308.573 191.307 308.573 191.318C308.57 191.326 308.568 191.333 308.564 191.344C308.564 191.346 308.563 191.349 308.563 191.353C308.402 191.389 308.24 191.443 308.082 191.483C307.674 191.585 307.261 191.67 306.848 191.752C306.035 191.918 305.217 192.059 304.395 192.181C304.285 192.197 304.174 192.213 304.064 192.228C303.979 192.239 303.82 192.26 303.778 192.263C303.284 192.317 302.79 192.375 302.296 192.422C298.926 192.738 295.536 192.766 292.154 192.68C285.298 192.508 278.461 192.026 271.6 192.009C264.541 191.991 257.483 192.246 250.435 192.645C244.008 193.01 237.588 193.499 231.169 194.013C231.967 187.978 232.537 181.917 232.772 175.831C232.814 174.729 232.145 173.661 231.206 173.075C231.45 170.674 231.734 168.277 232.039 165.883C232.108 165.332 232.182 164.779 232.253 164.227C232.293 163.92 232.335 163.615 232.375 163.308C232.382 163.255 232.391 163.187 232.403 163.104C232.568 161.889 232.736 160.675 232.905 159.462C233.244 157.035 233.589 154.608 233.924 152.18C234.593 147.319 235.232 142.451 235.694 137.566C236.201 132.206 236.487 126.827 236.391 121.443C236.361 119.82 235.178 118.468 233.579 118.254C232.124 118.058 230.286 118.983 230.021 120.579C229.662 122.737 229.317 124.897 228.986 127.061C229.059 124.744 229.114 122.425 229.14 120.106C229.19 115.764 229.154 111.419 228.997 107.079C228.845 102.863 228.486 98.6584 228.328 94.4449C228.249 92.3495 228.232 90.2506 228.356 88.1552C228.385 87.6474 228.424 87.1397 228.471 86.632C228.492 86.4069 228.514 86.1819 228.54 85.9568C228.533 86.0231 228.6 85.5101 228.619 85.3339C228.648 85.1507 228.694 84.8559 228.692 84.8663C228.722 84.6884 228.753 84.5121 228.784 84.3342C228.866 83.8893 228.957 83.4479 229.058 83.0082C229.241 82.2126 229.455 81.4257 229.704 80.6493C229.842 80.2184 229.99 79.7892 230.15 79.3652C230.215 79.196 230.281 79.0285 230.347 78.8592C230.361 78.8243 230.373 78.7947 230.384 78.7668C230.401 78.7319 230.42 78.6882 230.445 78.6359C230.786 77.9014 231.145 77.179 231.551 76.4794C231.73 76.1706 231.919 75.8653 232.114 75.5669C232.236 75.3802 232.359 75.1953 232.488 75.0138C232.518 74.972 232.687 74.7399 232.786 74.6038C232.886 74.4817 233.035 74.2933 233.035 74.2933C233.149 74.1572 233.265 74.0228 233.384 73.8902C233.649 73.5919 233.924 73.304 234.208 73.0231C234.494 72.7439 234.786 72.4735 235.091 72.2135C235.152 72.1612 235.213 72.1123 235.274 72.0617C235.253 72.0844 235.644 71.7826 235.708 71.7372C237.083 70.7619 237.868 68.8706 236.867 67.3143C235.987 65.9465 233.924 65.109 232.45 66.1541C225.746 70.905 222.752 78.6813 222.005 86.632C221.59 91.0462 221.881 95.4848 222.158 99.8972C222.439 104.345 222.62 108.794 222.672 113.25C222.878 131.116 221.315 148.933 220.202 166.747C219.644 175.66 219.198 184.585 219.139 193.518C219.113 197.414 219.31 201.854 222.946 204.201C224.89 205.457 227.275 205.413 229.499 205.452C231.755 205.49 234.009 205.523 236.266 205.549C254.312 205.761 272.362 205.569 290.398 204.974C294.907 204.825 299.416 204.651 303.923 204.452C306.118 204.354 308.315 204.262 310.51 204.143C312.512 204.037 314.551 203.801 316.335 202.812C320.863 200.308 319.917 194.91 319.513 190.62Z" fill="#F2EFE9"/>
<path d="M316.844 77.8753C316.906 74.918 317.427 71.5175 316.237 68.7224C314.993 65.8035 312.084 64.7444 309.129 64.5316C306.078 64.3135 302.959 64.5141 299.904 64.5316C293.314 64.5717 286.725 64.6101 280.136 64.6502C266.9 64.7287 253.662 64.802 240.426 64.8927C238.807 64.9032 232.882 65.5488 232.133 65.896C228.434 67.6093 228.432 72.2695 228.155 75.7729C227.551 83.427 228.68 130.067 228.375 145.716C228.223 153.57 228.084 161.427 228.08 169.283C228.079 173.153 228.11 177.021 228.188 180.889C228.228 182.852 228.14 191.056 229.065 192.743C230.124 194.676 232.162 194.964 234.156 195.029C236.067 195.09 237.978 195.147 239.889 195.201C243.829 195.313 247.768 195.413 251.707 195.496C259.586 195.664 267.468 195.769 275.348 195.793C283.171 195.817 288.931 195.856 296.752 195.707C300.691 195.632 304.63 195.533 308.568 195.407C310.327 195.352 312.439 195.573 314.115 194.98C316.392 194.172 316.746 191.927 316.852 189.803C316.952 187.854 316.695 159.134 316.589 147.516C316.465 134.225 316.772 81.1816 316.844 77.8753Z" fill="white"/>
<path d="M153.616 199.67C153.585 194.041 153.548 188.411 153.494 182.783C153.384 171.466 153.142 160.153 152.788 148.842C152.076 126.046 151.05 103.252 150.969 80.4401C150.924 67.5953 151.203 44.6696 150.25 43.6698C149.915 42.9039 149.455 42.192 148.83 41.557C147.138 39.8419 144.878 39.3568 142.629 38.8631C140.875 38.4775 38.6874 10.9683 37.9295 11.0172C32.3995 11.3678 4.72713 11.2719 4.40481 11.2858C2.17297 11.3853 0.176336 13.1283 0.219892 15.4767C0.814005 47.3861 1.2548 78.875 1.43425 110.79C1.61196 142.54 1.56841 174.293 1.30707 206.043C1.15897 223.883 0.942932 241.721 0.655458 259.558C0.617129 261.908 2.61725 263.674 4.86303 263.771C16.3463 264.27 27.8296 264.769 39.3128 265.268C40.0132 265.298 40.6631 265.13 41.2311 264.82C42.6632 264.597 44.0222 264.115 45.3829 263.546C49.6201 261.777 147.811 224.982 149.84 222.857C151.03 221.613 151.715 220.184 152.137 218.66C152.323 218.314 152.461 217.948 152.523 217.566C153.496 211.626 153.647 205.673 153.616 199.67Z" fill="#FFFCF5"/>
<path d="M38.1316 58.4545C37.9452 42.8165 37.4922 27.1732 36.5897 11.5579C36.6019 11.3991 36.6141 11.2403 36.6263 11.0815C28.8836 11.3537 4.81773 11.2717 4.51806 11.2839C2.28622 11.3834 0.289586 13.1264 0.333143 15.4748C0.927255 47.3842 1.36805 78.8731 1.54576 110.788C1.72347 142.538 1.67991 174.291 1.41857 206.041C1.27048 223.881 1.05444 241.719 0.766967 259.556C0.728637 261.906 2.72876 263.672 4.97454 263.769C16.0118 264.249 27.0473 264.729 38.0846 265.207C38.1264 261.655 38.1664 258.101 38.1995 254.548C38.318 241.828 38.3755 229.107 38.372 216.384C38.3685 203.724 38.3041 191.065 38.1804 178.407C38.0584 165.749 38.4051 81.5164 38.1316 58.4545Z" fill="#F2EFE9"/>
<path d="M134.639 198.743C133.076 197.305 130.773 196.911 128.891 198C126.576 199.34 124.212 200.593 121.8 201.749C120.696 202.28 119.581 202.789 118.457 203.278C118.406 203.3 118.312 203.342 118.211 203.388C117.953 203.499 117.692 203.602 117.433 203.709C116.762 203.983 116.089 204.249 115.413 204.509C110.472 206.408 105.385 207.924 100.212 209.035C97.9192 209.529 95.5218 210.112 93.168 210.326C92.999 210.337 92.7028 210.356 92.5774 210.372C92.2464 210.414 91.9136 210.452 91.5826 210.49C91.0285 210.553 90.4745 210.613 89.9204 210.665C88.6904 210.784 87.4586 210.881 86.2268 210.979C81.5454 211.352 76.8047 211.705 72.2242 212.8C69.9192 213.352 67.6351 214.139 65.4939 215.199C65.642 212.785 65.7883 210.372 65.9381 207.957C66.0828 205.605 64.0251 203.595 61.8334 203.3C61.5111 203.257 61.18 203.252 60.8472 203.279C61.9153 189.397 62.9641 175.514 63.8875 161.62C64.513 152.225 65.081 142.826 65.5583 133.422C66.0322 124.112 66.5967 114.764 66.243 105.44C65.8824 95.9244 64.06 86.6005 62.6958 77.2016C62.6278 76.7341 62.5634 76.2647 62.4972 75.7971C62.4972 75.7919 62.4954 75.7902 62.4954 75.7849C62.4588 75.4883 62.4188 75.1917 62.3822 74.8934C62.2358 73.707 62.1034 72.5205 61.9919 71.3306C61.7863 69.1427 61.6504 66.9479 61.6191 64.7512C61.586 62.5023 61.6644 60.2516 61.8874 58.0131C61.9118 57.7688 61.9396 57.5246 61.9658 57.2803C61.9606 57.296 61.9553 57.3082 61.9484 57.3239C61.9553 57.3065 61.9606 57.2873 61.9658 57.2698C61.971 57.2227 61.9762 57.1756 61.9815 57.1285C61.9971 56.9663 62.0442 56.8424 62.0755 56.8022C62.1296 56.4411 62.1435 56.0485 62.1975 55.7345C62.2289 55.5548 62.6035 53.8746 62.7986 53.1767C62.8178 53.1401 62.8369 53.1052 62.8578 53.0685C65.1001 53.6286 67.7797 51.842 68.278 49.6471C68.893 46.941 67.4522 44.7898 64.9816 43.8337C62.0459 42.6978 58.5875 43.9209 56.4132 46.0146C54.5054 47.8518 53.5715 50.4916 53.1168 53.0423C52.2474 57.9084 52.007 62.8425 52.2753 67.7731C52.5541 72.8538 54.0733 187.027 52.5575 206.675C52.183 211.525 51.8101 216.375 51.4425 221.226C51.277 223.41 51.162 225.472 51.6516 227.639C52.2788 230.42 54.1064 232.655 56.7721 233.664C59.7862 234.805 62.6383 233.362 65.3196 232.092C67.4051 231.104 127.55 218.684 133.329 211.672C134.73 209.972 134.495 206.521 135.383 204.501C136.211 202.609 136.301 200.272 134.639 198.743ZM62.7742 52.8836C62.7829 52.8958 62.8178 52.8888 62.8979 52.8522C62.9066 52.8487 62.9118 52.8452 62.9205 52.8417C62.9467 52.8347 62.9711 52.826 62.9955 52.819C62.9989 52.8138 63.0042 52.8068 63.0094 52.8016H63.0111C63.0129 52.7998 63.0146 52.7981 63.0146 52.7946C63.0355 52.7684 63.0599 52.7388 63.0913 52.7039C63.1174 52.6742 63.1401 52.6498 63.1592 52.6271C63.1279 52.6847 63.1 52.7318 63.0739 52.7719C63.3004 52.6725 63.2429 52.7196 63.1 52.7859C63.1348 52.7754 63.1558 52.7684 63.154 52.7702C63.1157 52.7876 63.0808 52.8016 63.046 52.8155C62.9746 52.9167 62.9327 52.9446 62.9415 52.9115C62.9432 52.908 62.9449 52.9045 62.9467 52.9028C62.9589 52.8818 62.9746 52.8592 62.9885 52.8365C62.9868 52.8365 62.985 52.8382 62.9833 52.8382H62.9815C62.8822 52.8749 62.7934 52.8993 62.7202 52.915C62.6871 52.9185 62.6557 52.9185 62.6348 52.9115C62.6435 52.9167 62.701 52.9045 62.7742 52.8836Z" fill="#F2EFE9"/>
<path d="M62.9867 52.8365C63.0059 52.8295 63.0251 52.8226 63.0442 52.8156C63.046 52.8138 63.046 52.8121 63.0477 52.8104C63.0669 52.8016 63.0826 52.7947 63.1 52.7859C63.0861 52.7894 63.0721 52.7947 63.0547 52.7999C63.0617 52.7912 63.0669 52.7807 63.0739 52.772C63.0547 52.7807 63.0355 52.7894 63.0111 52.7999C63.0077 52.8051 63.0042 52.8121 62.9989 52.8173C62.9972 52.8173 62.9955 52.8173 62.9955 52.8191C62.9902 52.8261 62.9867 52.8313 62.9815 52.8383C62.9815 52.8383 62.985 52.8383 62.9867 52.8365Z" fill="#F2EFE9"/>
<path d="M61.9623 57.2802C62.1243 56.8597 62.1156 56.7446 62.0721 56.8022C62.0477 56.9697 62.0128 57.1284 61.964 57.2698C61.9623 57.2732 61.9623 57.2767 61.9623 57.2802Z" fill="#F2EFE9"/>
<path d="M134.575 60.611C131.932 59.4438 106.211 52.7841 95.3458 50.2822C89.6469 48.9701 83.4653 46.8834 77.7664 45.5714C74.8882 44.9084 72.0099 44.2454 69.1317 43.5824C66.6908 43.0206 64.0495 42.2337 61.5529 42.9526C60.8925 43.1427 60.3158 43.4306 59.8019 43.8022C59.1015 44.0971 58.537 44.6537 58.2757 45.3673C57.7809 46.0529 57.7948 47.0091 58.1398 47.8047C58.4325 69.8162 58.7252 91.826 59.0196 113.838C59.3193 136.359 59.6189 158.878 59.9186 181.399C60.0876 194.052 60.2549 206.706 60.4239 219.359C60.4396 220.507 61.248 221.697 62.4066 221.967C65.6019 222.709 68.7798 222.36 71.9699 221.775C75.0502 221.21 78.1201 220.578 81.1899 219.963C87.314 218.734 93.4293 217.468 99.5377 216.163C105.589 214.868 111.633 213.537 117.668 212.165C120.741 211.467 123.813 210.759 126.881 210.042C129.294 209.478 131.902 208.941 133.942 207.446C135.406 206.373 136.481 205.045 137.082 203.313C137.625 201.748 137.646 200.029 137.676 198.389C137.709 196.456 137.742 194.521 137.777 192.588C137.909 191.387 137.974 190.182 138.005 188.997C138.131 184.276 138.094 179.546 138.131 174.823C138.206 165.204 138.28 155.584 138.355 145.965L138.582 116.76C138.657 107.181 138.033 72.7648 138.033 67.3806C138.031 63.0187 135.81 61.1571 134.575 60.611ZM65.7935 216.998C65.7935 216.935 65.7918 216.871 65.7918 216.808C65.8667 216.874 65.9451 216.939 66.0235 217.002C65.9486 217 65.8702 217.002 65.7935 216.998ZM128.095 204.175C128.118 204.079 128.132 203.983 128.144 203.887C128.32 203.939 128.498 203.981 128.679 204.005C128.485 204.066 128.29 204.12 128.095 204.175Z" fill="white"/>
<path opacity="0.25" d="M185.653 264.068C184.55 262.382 182.316 261.423 180.483 260.796C178.661 260.172 176.715 259.901 174.798 259.771C173.246 259.664 171.683 259.645 170.117 259.676C167.655 259.577 165.186 259.657 162.714 259.84C158.484 260.156 154.203 260.512 150.023 261.25C148.034 261.601 146.061 262.082 144.169 262.801C142.218 263.543 139.781 264.729 139.781 267.182C139.781 269.928 142.843 270.698 145.032 270.796C147.185 270.893 149.36 270.79 151.513 270.714C155.815 270.56 160.108 270.344 164.413 270.431C168.659 270.516 172.911 270.754 177.156 270.495C179.232 270.37 181.499 270.263 183.506 269.686C185.984 268.972 187.1 266.28 185.653 264.068ZM144.009 266.116C143.899 266.087 143.791 266.052 143.683 266.013C143.812 265.994 143.92 266.029 144.009 266.116Z" fill="#C4C1BB"/>
<path opacity="0.25" d="M241.971 251.312C239.349 248.058 234.692 247.345 230.784 247.065C229.356 246.964 227.936 246.983 226.521 247.081C222.2 245.83 217.559 246.497 213.163 246.935C210.921 247.158 208.68 247.414 206.445 247.704C204.305 247.981 202.018 248.109 199.995 248.918C196.594 250.279 190.773 255.564 195.782 258.713C199.432 261.009 204.222 260.325 208.278 260.041C217.479 259.395 226.7 260.306 235.908 259.889C238.062 259.792 240.423 259.591 241.978 257.895C243.778 255.929 243.585 253.315 241.971 251.312Z" fill="#C4C1BB"/>
<path d="M209.595 226.244C209.198 222.074 209.179 217.885 209.541 213.711C209.581 213.249 209.285 212.942 208.914 212.823C208.661 212.162 207.75 211.888 207.318 212.375C207.131 212.31 206.921 212.303 206.722 212.352C206.227 211.892 205.217 211.946 205.1 212.752C205.053 213.073 205.011 213.396 204.967 213.718C204.483 213.518 203.826 213.722 203.64 214.317C203.392 214.287 203.128 214.346 202.917 214.496C202.368 214.263 201.549 214.544 201.497 215.336C201.314 218.101 201.425 220.849 201.779 223.593C201.779 223.599 201.779 223.602 201.777 223.607C201.779 223.607 201.779 223.607 201.781 223.607C201.791 223.693 201.8 223.778 201.812 223.862C201.889 224.427 202.328 224.612 202.765 224.537C202.824 224.68 202.903 224.82 203.004 224.953C203.384 225.45 204.009 225.516 204.413 225.214C204.567 225.457 204.8 225.572 205.048 225.588C205.387 226.492 206.811 226.378 206.901 225.263C206.914 225.11 206.928 224.954 206.94 224.801C206.968 224.981 206.995 225.16 207.027 225.34C207.09 225.698 207.34 225.909 207.64 225.989C207.647 226.073 207.654 226.158 207.661 226.244C207.781 227.472 209.713 227.484 209.595 226.244Z" fill="#F28168"/>
<path d="M207.804 255.159C207.804 255.145 207.804 255.133 207.804 255.119C208.867 249.393 209.004 243.429 209.659 237.642C209.989 234.737 210.313 231.862 209.95 228.943C209.771 227.497 209.466 226.069 209.151 224.647C208.875 223.409 208.149 221.648 208.602 220.409C209.025 219.253 207.94 218.843 207.513 219.994C207.502 220.024 207.494 220.054 207.483 220.085C207.353 220.041 207.21 220.024 207.069 220.031C207.067 219.949 207.065 219.867 207.063 219.783C207.03 218.59 205.229 218.429 205.143 219.57C204.832 219.464 204.464 219.532 204.194 219.752C203.994 218.919 202.657 218.626 202.366 219.635C200.957 224.515 202.687 229.402 203.431 234.231C204.314 239.97 204.87 245.776 205.574 251.541C205.71 252.657 205.905 253.805 205.887 254.943C205.799 255.417 207.793 255.562 207.804 255.159Z" fill="#F28168"/>
<path d="M201.333 255.669C202.128 255.15 202.861 254.664 203.678 254.182C204.262 253.838 204.84 253.465 205.516 253.341C206.154 253.224 207.87 253.287 207.955 253.29C208.786 253.315 208.764 254.828 208.8 255.663C208.867 257.171 207.421 256.939 206.34 257.028C204.701 257.162 203.143 257.439 201.502 257.481C201.075 257.492 200.338 257.523 200.096 257.258C199.955 257.104 199.469 256.883 201.333 255.669Z" fill="#27374D"/>
<path d="M221.007 253.116C221.002 253.104 220.996 253.092 220.991 253.08C219.65 247.413 217.364 241.903 215.623 236.346C214.75 233.556 213.883 230.796 212.372 228.273C211.623 227.024 210.767 225.841 209.905 224.668C209.154 223.648 207.776 222.332 207.689 221.017C207.607 219.787 206.45 219.851 206.525 221.079C206.527 221.111 206.532 221.142 206.534 221.174C206.396 221.186 206.26 221.228 206.133 221.292C206.098 221.217 206.063 221.142 206.028 221.069C205.516 219.992 203.804 220.575 204.187 221.653C203.858 221.683 203.551 221.894 203.392 222.203C202.873 221.523 201.532 221.796 201.675 222.836C202.359 227.87 205.917 231.637 208.55 235.751C211.679 240.64 214.532 245.726 217.507 250.71C218.083 251.677 218.726 252.647 219.167 253.694C219.278 254.165 221.16 253.49 221.007 253.116Z" fill="#F28168"/>
<path d="M215.327 256.316C215.817 255.503 216.264 254.744 216.79 253.953C217.165 253.39 217.524 252.8 218.078 252.395C218.601 252.013 220.172 251.321 220.251 251.286C221.008 250.946 221.646 252.315 222.043 253.051C222.759 254.379 221.357 254.801 220.423 255.353C219.007 256.188 217.724 257.118 216.266 257.872C215.886 258.068 215.236 258.418 214.904 258.286C214.714 258.211 214.179 258.223 215.327 256.316Z" fill="#27374D"/>
<path d="M156.689 264.493C157.081 261.131 159.21 245.286 159.54 245.486C159.973 245.748 160.392 246.538 160.846 246.69C161.108 246.535 161.519 246.603 161.62 246.924C161.771 246.966 161.923 247.008 162.076 247.051C162.08 247.053 162.083 247.053 162.087 247.055C162.317 246.774 162.803 246.896 162.972 247.214C163.031 247.325 163.08 247.44 163.122 247.556C163.275 247.681 163.411 247.829 163.524 248.013C163.547 248.049 163.564 248.086 163.578 248.123C163.73 248.215 163.829 248.383 163.786 248.615C163.55 249.886 161.801 256.785 161.332 257.963C160.656 260.109 159.946 262.265 159.092 264.333C158.77 265.116 158.149 265.928 157.198 265.805C156.224 265.678 156.588 265.352 156.689 264.493Z" fill="#C67F60"/>
<path d="M152.395 264.769C153.229 264.321 154.003 263.895 154.856 263.485C155.466 263.192 156.074 262.867 156.757 262.803C157.402 262.74 159.106 262.948 159.193 262.958C160.019 263.052 159.869 264.556 159.836 265.394C159.777 266.901 158.355 266.549 157.269 266.547C155.625 266.542 154.048 266.688 152.41 266.591C151.985 266.566 151.246 266.535 151.029 266.25C150.901 266.085 150.436 265.823 152.395 264.769Z" fill="#27374D"/>
<path d="M177.809 265.007C177.238 261.671 174.814 245.869 175.187 245.966C175.676 246.095 176.3 246.734 176.779 246.751C176.987 246.528 177.4 246.477 177.586 246.757C177.743 246.755 177.9 246.751 178.06 246.75C178.063 246.75 178.067 246.75 178.07 246.75C178.211 246.416 178.713 246.395 178.964 246.652C179.053 246.743 179.131 246.839 179.205 246.938C179.386 247.015 179.56 247.12 179.72 247.263C179.752 247.291 179.78 247.322 179.802 247.352C179.973 247.399 180.116 247.53 180.14 247.765C180.274 249.051 180.539 256.164 180.421 257.427C180.377 259.676 180.302 261.948 180.067 264.171C179.978 265.014 179.612 265.966 178.664 266.118C177.696 266.275 177.955 265.86 177.809 265.007Z" fill="#C67F60"/>
<path d="M173.22 265.111C174.039 264.633 174.795 264.181 175.635 263.74C176.234 263.424 176.83 263.08 177.511 262.99C178.154 262.904 179.863 263.051 179.95 263.058C180.78 263.122 180.684 264.631 180.68 265.469C180.673 266.978 179.241 266.676 178.157 266.713C176.515 266.767 174.943 266.969 173.304 266.931C172.877 266.92 172.138 266.917 171.91 266.639C171.776 266.479 171.3 266.233 173.22 265.111Z" fill="#27374D"/>
<path d="M180.586 202.215C180.088 198.082 179.4 193.971 178.476 189.924C178.145 188.475 176.65 188.577 176.061 189.514C176.034 189.269 176.007 189.025 175.978 188.781C175.776 187.092 173.614 186.591 173.269 188.428C173.178 188.913 173.101 189.398 173.035 189.885C172.967 189.887 172.899 189.889 172.833 189.89C172.742 189.507 172.648 189.123 172.549 188.739C172.249 187.591 170.821 187.306 170.195 188.071C170.019 188.198 169.859 188.385 169.727 188.641C169.64 188.61 169.549 188.587 169.45 188.577C169.26 188.556 169.072 188.58 168.896 188.641C168.779 187.265 166.84 186.628 166.249 187.973C166.131 187.856 165.988 187.758 165.815 187.689C165.16 187.42 164.394 187.682 164.049 188.385C163.948 188.591 163.855 188.8 163.766 189.009C163.515 189.102 163.282 189.255 163.071 189.498C163.148 188.69 162.801 187.893 162.031 187.683C161.345 187.497 160.43 187.985 160.318 188.824C159.804 192.689 157.456 196.93 156.951 201.899C155.25 218.638 155.51 240.133 154.562 253.249C154.475 254.454 154.389 255.66 154.308 256.866C154.233 257.961 154.039 259.165 154.792 260.046C155.487 260.857 156.461 260.863 157.402 260.929C158.526 261.009 159.648 261.088 160.771 261.168C161.437 261.215 161.921 260.589 162.12 259.971C164.597 252.237 167.474 238.823 169.869 225.963C171.072 236.417 172.368 246.599 173.736 254.144C173.95 255.328 174.168 256.513 174.387 257.698C174.586 258.772 174.703 259.989 175.61 260.624C176.448 261.21 177.346 260.939 178.227 260.739C179.279 260.5 180.332 260.259 181.384 260.02C182.008 259.879 182.301 259.137 182.33 258.488C183.025 243.944 182.342 216.775 180.586 202.215Z" fill="#B38740"/>
<path d="M166.679 141.956C166.922 141.506 167.158 141.076 167.375 140.637C167.735 137.435 168.462 134.338 171.758 133.302C173.688 132.695 177.748 132.262 179.215 133.747C180.597 135.146 181.351 137.133 181.544 139.07C181.856 142.179 180.705 145.667 178.445 147.921C178.236 148.647 178.095 149.394 177.983 150.137C177.687 152.119 178.063 155.231 178.063 157.231C178.063 157.882 177.37 157.374 176.774 157.611C176.635 158.381 175.777 158.826 175.028 158.751C174.906 158.841 174.777 158.915 174.645 158.965C171.995 159.951 171.645 160.703 171.493 159.155L171.605 150.95C170.331 150.418 169.22 150.449 168.382 149.303C167.496 148.094 167.178 146.225 167.132 144.505C166.712 144.402 166.289 144.215 166.11 143.796C165.812 143.114 166.374 142.521 166.679 141.956Z" fill="#C67F60"/>
<path d="M183.987 137.665C183.558 136.325 182.924 135.512 181.834 134.706C181.199 134.237 180.518 133.872 179.851 133.459C179.232 133.077 179.102 132.415 178.583 131.913C177.617 130.978 176.342 130.903 175.136 131.332C174.952 131.398 174.459 131.655 174.241 131.529C174.028 131.407 174.096 130.901 174.03 130.695C173.852 130.144 173.366 129.723 172.817 129.563C171.657 129.223 170.085 129.854 169.406 130.819C169.22 131.082 169.098 131.479 168.868 131.702C168.573 131.988 168.099 132 167.753 132.213C167.219 132.541 166.901 133.122 166.768 133.722C166.488 134.991 166.962 136.345 167.857 137.257C168.749 138.273 169.098 138.85 169.328 139.581C169.483 140.073 169.592 140.577 169.896 141.006C170.214 141.458 170.671 141.708 171.204 141.816C171.978 141.973 172.601 141.8 172.99 142.645C173.31 143.343 173.291 144.147 173.455 144.887C173.589 145.49 173.823 146.073 174.143 146.604C174.828 147.736 175.837 148.603 176.873 149.4C177.234 149.678 177.661 149.489 177.898 149.167C179.069 148.069 180.128 146.869 181.18 145.66C182.147 144.548 183.133 143.409 183.811 142.092C184.475 140.797 184.447 139.105 183.987 137.665Z" fill="#27374D"/>
<path d="M182.389 169.448C181.966 161.148 178.353 155.09 178.335 155.031C177.814 153.277 175.403 153.038 173.556 154.131C169.932 156.275 167.561 159.311 166.012 162.73C164.653 165.733 161.82 180.171 160.75 186.023C159.278 188.671 157.93 191.381 156.994 194.277C156.254 196.568 155.588 199.588 157.898 201.205C158.186 201.406 158.576 201.354 158.869 201.205C160.754 200.244 162.5 199.071 164.117 197.74C167.141 197.906 170.669 197.784 171.765 197.786C173.682 197.791 178.319 197.78 179.955 196.578C185.423 192.56 182.7 175.512 182.389 169.448Z" fill="#FFFCF5"/>
<path d="M214.1 215.995C213.879 215.351 213.482 214.819 213.093 214.28C213.093 211.569 213.093 208.857 213.093 206.146C213.093 205.829 212.966 205.593 212.778 205.44C212.769 204.407 212.715 203.374 212.616 202.343C212.856 200.024 212.776 197.672 212.358 195.376C212.24 194.73 212.058 194.022 211.781 193.373C212.585 192.358 211.954 190.854 210.818 190.119C210.675 190.027 210.529 189.945 210.379 189.866C211.119 189.336 211.255 188.041 210.145 187.748C208.476 187.308 206.767 187.017 205.042 186.93C203.669 186.86 201.399 186.518 200.755 188.116C200.458 188.849 200.425 189.733 200.262 190.505C200.079 191.372 199.873 192.232 199.65 193.089C199.194 194.84 198.655 196.568 198.342 198.354C197.718 201.894 197.544 205.544 197.193 209.119L196.66 214.561C196.589 215.29 196.437 216.061 196.643 216.779C196.873 217.579 197.54 218.052 198.246 218.417C201.669 220.184 212.51 219.46 213.281 218.956C214.262 218.312 214.461 217.045 214.1 215.995ZM212.36 217.12C212.322 217.246 212.226 217.339 212.093 217.408C212.109 217.244 212.095 217.077 212.055 216.92C212.166 216.932 212.278 216.925 212.386 216.902C212.386 216.977 212.381 217.051 212.36 217.12Z" fill="#627A94"/>
<path d="M206.994 187.28C206.764 184.88 206.117 182.608 205.034 180.453C204.924 180.237 204.758 180.103 204.57 180.035C204.546 179.816 204.52 179.598 204.49 179.38C204.398 178.714 203.783 178.583 203.274 178.777C203.518 178.073 203.762 177.37 203.992 176.667C204.375 175.493 202.54 174.998 202.15 176.16C201.596 177.807 201.053 179.459 200.504 181.108C200.07 182.413 199.457 183.829 199.509 185.229C199.556 186.499 200.262 187.462 201.506 187.776C202.943 188.137 204.556 188.109 206.028 188.247C206.515 188.292 207.039 187.765 206.994 187.28Z" fill="white"/>
<path d="M202.002 151.576C202.725 152.797 204.715 153.288 205.995 153.506L205.957 153.855C208.083 153.276 209.361 153.53 211.525 153.169C211.698 152.499 209.823 150.699 210.079 150.053C212.548 148.029 216.108 145.801 216.101 142.676C216.095 140.731 215.264 139.171 214.024 137.644C212.708 136.024 208.719 135.893 206.738 136.308C203.358 137.018 202.514 139.701 201.845 142.854C201.589 143.269 201.312 143.674 201.026 144.098C200.668 144.632 200.051 145.166 200.277 145.874C200.415 146.309 200.819 146.534 201.227 146.679C201.105 148.395 201.241 150.287 202.002 151.576Z" fill="#F28168"/>
<path d="M214.755 156.406C214.208 154.584 212.82 152.086 212.027 150.357C211.907 150.093 211.7 149.952 211.466 149.903C211.24 149.673 210.924 149.585 210.626 149.615C210.135 148.91 208.922 149.184 208.82 149.938C208.804 149.943 208.788 149.95 208.774 149.957C208.208 149.744 207.492 150.025 207.44 150.618C207.267 150.657 207.11 150.733 206.987 150.845C206.563 150.801 206.124 151.063 205.934 151.531C205.799 151.864 205.779 152.19 205.835 152.506C205.818 152.677 205.849 152.86 205.945 153.049C206.394 153.923 208.091 157.63 208.842 158.456C209.208 158.859 214.789 156.515 214.755 156.406Z" fill="#F28168"/>
<path d="M219.594 133.862C219.299 132.569 217.953 132.45 216.944 133.003C215.56 133.762 214.56 135.137 214.106 136.66C212.597 135.968 210.687 135.575 209.071 135.603C205.405 135.666 203.938 137.222 203.743 137.599C203.399 138.26 203.338 138.969 203.534 139.687C203.746 140.469 204.29 141.099 204.534 141.863C204.744 142.524 204.736 143.191 205.136 143.789C205.544 144.396 206.529 144.459 206.748 145.192C206.945 145.843 206.966 147.043 206.401 147.61C205.873 148.141 207.482 148.762 207.966 149.324C208.811 150.304 210.233 151.841 211.654 151.649C213.017 151.466 214.203 149.803 215.001 148.814C216.026 147.542 216.858 146.127 217.294 144.543C217.698 143.074 217.66 141.462 217.151 140.043C217.977 139.321 218.636 138.386 219.052 137.376C219.479 136.346 219.848 134.978 219.594 133.862Z" fill="#574443"/>
<path d="M229.634 235.808C228.631 234.481 227.559 233.191 226.754 231.727C226 230.356 225.57 228.817 225.371 227.268C224.955 224.016 225.369 220.711 225.375 217.449C225.38 214.153 224.824 210.946 223.841 207.805C222.871 204.702 221.597 201.706 220.517 198.64C219.416 195.516 218.562 192.333 218.411 189.008C218.245 185.38 218.676 181.764 219.01 178.159C219.385 174.12 219.487 170.128 219.029 166.091C218.559 161.935 217.717 157.835 216.832 153.75C216.454 152.005 213.938 152.593 213.952 154.206C213.538 154.425 213.229 154.844 213.222 155.462C213.219 155.823 213.215 156.182 213.212 156.543C213.116 156.493 213.013 156.458 212.905 156.435C212.586 155.621 211.489 155.347 210.76 155.753C210.672 155.694 210.578 155.643 210.482 155.601C210.344 154.516 208.964 153.647 207.999 154.673C204.858 158.009 202.774 162.331 202.108 166.865C201.195 168.495 200.161 170.063 199.122 171.618C198.054 173.218 196.976 174.813 196.009 176.477C195.064 178.103 194.084 180.268 195.605 181.891C198.092 184.543 201.807 182.481 203.872 180.281C204.053 180.848 204.237 181.415 204.422 181.98C205.546 185.401 206.652 188.831 207.536 192.323C208.405 195.758 209.006 199.227 209.285 202.761C209.558 206.226 209.644 209.705 210.037 213.16C210.429 216.608 211.132 219.958 212.473 223.168C213.75 226.226 215.405 229.156 216.193 232.397C217.071 236.004 216.862 239.834 218.435 243.265C219.791 246.223 222.458 248.917 225.828 248.779C231.807 248.533 233.424 246.347 233.394 244.607C233.342 241.301 231.565 238.363 229.634 235.808Z" fill="#F07556"/>
<path d="M219.432 153.424C218.852 151.014 219.575 148.472 218.622 146.125C218.202 145.093 217.578 144.173 217.327 143.076C217.102 142.085 217.047 141.055 216.688 140.097C216.268 138.976 215.517 137.925 214.332 137.54C213.027 137.116 211.841 137.876 211.396 139.105C211.266 139.464 211.158 139.836 211.062 140.214C210.666 139.986 210.17 139.984 209.75 140.188C209.581 140.106 209.389 140.059 209.173 140.059C208.612 140.059 207.907 140.49 207.821 141.09C207.806 141.205 207.79 141.321 207.774 141.434C206.718 140.431 204.739 141.724 205.616 143.133C206.184 144.048 206.887 145.103 206.931 146.216C206.969 147.226 206.14 147.921 205.612 148.692C205.034 149.536 204.746 150.505 204.94 151.525C205.086 152.304 205.858 153.141 205.591 153.931C205.307 154.774 204.704 155.435 204.549 156.343C204.359 157.451 204.757 158.508 205.623 159.225C206.401 159.869 207.414 160.16 208.415 160.094C209.659 160.012 210.708 159.422 211.872 159.054C212.384 158.892 212.909 158.752 213.435 158.928C213.877 159.077 214.275 159.378 214.714 159.549C215.731 159.942 216.886 159.855 217.846 159.335C220.144 158.093 219.96 155.619 219.432 153.424Z" fill="#574443"/>
<path d="M253.66 64.9224C249.228 64.9503 244.797 64.9765 240.365 65.0061C238.746 65.0166 232.821 65.6621 232.072 66.0093C228.373 67.7227 228.371 72.3828 228.094 75.8863C227.69 80.9914 228.058 103.437 228.258 122.465C229.964 123.962 231.849 125.219 233.906 126.107C240.203 128.827 247.224 128.691 253.787 127.024C260.373 125.353 266.558 122.008 270.64 116.46C272.869 113.431 274.182 109.771 274.479 106.03C274.63 104.123 274.548 101.832 273.686 100.098C273.623 99.9706 273.552 99.8502 273.477 99.7333C272.944 97.5105 271.653 95.5023 269.736 94.2478C268.907 93.7052 267.966 93.3563 266.99 93.2062C265.926 92.4054 264.699 91.7738 263.459 91.3219C262.22 88.7449 260.685 86.2604 259.291 83.8213C258.34 82.1568 257.486 80.4453 256.707 78.6935C256.678 78.6272 256.653 78.5732 256.634 78.5295C256.525 78.2678 256.418 78.0061 256.314 77.7427C256.141 77.3082 255.976 76.8703 255.814 76.4306C255.474 75.5024 255.16 74.5655 254.873 73.6199C254.298 71.7286 253.827 69.8059 253.467 67.864C253.413 67.5778 253.368 67.2917 253.319 67.0038C253.465 66.4717 253.563 65.9081 253.627 65.3045C253.643 65.1771 253.653 65.0497 253.66 64.9224Z" fill="#B38740"/>
<path d="M303.728 153.347C298.938 151.197 294.806 148.078 290.368 145.309C285.328 142.165 279.557 139.815 273.51 140.188C267.192 140.577 261.115 143.175 256.751 147.832C252.935 151.902 250.617 156.95 248.825 162.175C247.139 167.097 245.954 172.181 244.01 177.013C242.653 180.08 241.017 183.018 239.03 185.722C237.616 187.476 236.051 189.093 234.312 190.522C232.833 191.592 231.262 192.504 229.6 193.261C229.493 193.305 229.391 193.348 229.288 193.394C230.411 194.791 232.213 195.027 233.98 195.084C235.891 195.146 237.802 195.203 239.713 195.257C243.653 195.369 247.592 195.468 251.531 195.552C259.41 195.72 267.292 195.824 275.172 195.849C282.995 195.873 288.755 195.911 296.576 195.763C300.515 195.688 304.454 195.589 308.392 195.463C310.151 195.407 312.263 195.629 313.939 195.036C316.216 194.228 316.57 191.982 316.676 189.859C316.755 188.304 316.608 169.716 316.492 156.362C315.654 156.31 314.817 156.236 313.983 156.14C310.469 155.599 307.033 154.663 303.728 153.347Z" fill="#27374D"/>
<path d="M262.764 80.4837C262.757 80.3162 262.757 80.365 262.764 80.4837V80.4837ZM316.588 147.631C316.554 144.028 316.553 137.505 316.568 129.842C314.546 129.406 312.472 129.158 310.385 128.954C309.439 128.862 308.493 128.778 307.549 128.678C307.2 128.642 306.853 128.6 306.507 128.56C306.242 128.516 305.975 128.479 305.711 128.436C304.852 128.291 303.998 128.118 303.155 127.897C302.336 127.682 301.367 127.478 300.618 127.064C300.783 127.146 301.313 127.386 300.757 127.106C300.599 127.026 300.437 126.951 300.278 126.869C299.883 126.665 299.498 126.443 299.125 126.201C298.977 126.105 298.834 126.004 298.687 125.904C298.332 125.576 297.97 125.267 297.639 124.911C297.517 124.781 297.402 124.645 297.283 124.512C296.813 123.987 297.33 124.624 297.386 124.664C297.088 124.451 296.842 123.88 296.649 123.561C296.443 123.219 296.252 122.868 296.074 122.511C295.975 122.312 295.884 122.108 295.787 121.907C295.781 121.898 295.778 121.891 295.774 121.883C295.769 121.867 295.762 121.851 295.755 121.832C294.55 118.597 294.037 115.202 293.17 111.875C292.22 108.237 290.744 104.613 288.112 101.86C285.106 98.7161 280.918 97.6693 276.958 96.277C276.095 95.9734 275.247 95.6454 274.397 95.3121C274.331 95.2859 274.28 95.272 274.242 95.2633C274.142 95.2144 274.045 95.1603 273.989 95.1342C273.51 94.9196 273.034 94.6945 272.564 94.4572C271.757 94.0507 270.968 93.611 270.205 93.1277C269.886 92.9253 269.571 92.716 269.261 92.4979C269.208 92.4612 269.072 92.3705 268.956 92.2955C268.788 92.1646 268.628 92.0163 268.471 91.8802C267.832 91.3306 267.229 90.7374 266.673 90.1024C266.553 89.9663 266.44 89.8232 266.32 89.6871C266.313 89.6784 266.306 89.6714 266.299 89.6627C266.025 89.2701 265.746 88.8828 265.492 88.4745C265.06 87.7819 264.673 87.0613 264.326 86.3215C264.29 86.2413 264.227 86.1313 264.177 86.0214C264.161 85.9639 264.144 85.9045 264.124 85.8557C263.943 85.3863 263.778 84.9118 263.626 84.432C263.337 83.5108 263.103 82.5721 262.92 81.623C262.877 81.3962 262.835 81.1693 262.797 80.9425C262.779 80.8361 262.767 80.6197 262.76 80.4889C262.762 80.5657 262.767 80.686 262.771 80.8657C262.758 80.4086 262.664 79.9445 262.628 79.4874C262.448 77.2559 262.532 75.0104 262.783 72.7876C262.805 72.5905 262.825 72.3898 262.854 72.1927C262.88 72.0339 262.908 71.8629 262.915 71.8246C263.009 71.2191 263.116 70.6155 263.231 70.0135C263.45 68.862 263.704 67.7175 263.981 66.5781C264.121 66.0041 264.265 65.4319 264.415 64.8613C260.002 64.8875 255.589 64.9154 251.178 64.9433C250.927 66.0617 250.707 67.1906 250.524 68.3299C249.723 73.3355 249.317 78.4615 249.893 83.516C250.439 88.2931 251.587 93.0038 254.033 97.1929C256.387 101.223 259.877 104.463 264.076 106.487C267.938 108.349 272.078 109.483 276.054 111.055C276.251 111.144 276.449 111.231 276.644 111.324C277.075 111.526 277.5 111.737 277.918 111.962C278.333 112.185 278.738 112.421 279.137 112.672C279.336 112.798 279.531 112.925 279.725 113.058C279.787 113.101 279.864 113.164 279.939 113.229C279.89 113.18 279.836 113.126 279.775 113.065C279.848 113.138 279.921 113.208 279.995 113.279C279.977 113.264 279.958 113.246 279.939 113.231C280.364 113.653 280.293 113.562 280.104 113.382C280.617 113.857 281.153 114.295 281.62 114.827C281.7 115.008 281.969 115.282 282.057 115.418C282.397 115.937 282.704 116.476 282.979 117.031C283.084 117.24 283.18 117.451 283.279 117.662C283.281 117.669 283.282 117.674 283.286 117.681C283.467 118.187 283.657 118.688 283.822 119.199C284.171 120.277 284.465 121.371 284.748 122.469C285.305 124.627 285.821 126.806 286.614 128.893C287.614 131.522 288.887 133.804 290.652 135.989C292.252 137.969 294.219 139.616 296.311 141.054C301.128 144.365 306.942 146.044 312.643 147.017C313.938 147.239 315.255 147.455 316.582 147.642C316.588 147.637 316.588 147.635 316.588 147.631Z" fill="#27374D"/>
<path d="M316.309 68.6489C315.065 65.73 312.155 64.671 309.2 64.4581C306.149 64.24 303.031 64.4407 299.975 64.4581C293.386 64.4965 286.796 64.5366 280.207 64.5767C278.317 64.5872 276.426 64.5994 274.536 64.6099C273.871 66.9775 273.466 69.4096 273.454 71.8994C273.425 77.5959 275.531 83.7461 280.094 87.3821C282.517 89.3135 285.251 90.7616 288.302 91.4281C291.44 92.1121 294.445 92.0929 297.598 91.5939C302.902 90.7564 308.238 87.7415 311.648 83.5786C314.366 80.2584 316.27 76.3327 317.053 72.1506C316.978 70.9328 316.776 69.7429 316.309 68.6489Z" fill="#B38740"/>
<path d="M138.031 67.3806C138.031 63.0188 135.81 61.1554 134.575 60.611C131.932 59.4438 106.211 52.7842 95.3458 50.2822C93.9032 49.9507 92.431 49.5686 90.9431 49.1621C89.0196 51.8979 87.4725 54.925 86.2442 58.0916C83.4479 65.2974 82.8276 73.2028 82.92 80.8674C83.0245 89.5579 83.8974 98.2327 82.9897 106.909C82.1168 115.249 80.3885 123.734 82.791 132.002C84.035 136.287 86.4934 140.963 90.6678 143.041C93.2743 144.337 96.3197 144.88 99.1439 143.92C101.498 143.121 103.566 141.718 105.209 139.848C107.995 136.674 110.246 132.93 112.495 129.367C114.645 125.958 116.696 122.488 118.65 118.964C126.532 104.753 132.899 89.687 138.104 74.3002C138.059 71.0149 138.031 68.5339 138.031 67.3806Z" fill="#627A94"/>
<path d="M76.6043 101.218C75.4997 101.087 74.0327 101.766 73.8567 103.015C73.6023 104.809 73.1389 106.105 72.1789 107.574C71.435 108.713 71.9507 110.359 73.0814 111.02C74.3149 111.742 75.7662 111.25 76.5224 110.116C77.8238 108.165 78.5033 105.993 78.7769 103.681C78.9197 102.462 77.7123 101.35 76.6043 101.218Z" fill="#27374D"/>
<path d="M65.628 136.287C64.5234 136.156 63.0564 136.835 62.8805 138.084C62.6261 139.878 62.1627 141.174 61.2027 142.643C60.4587 143.782 60.9744 145.428 62.1052 146.089C63.3387 146.811 64.79 146.319 65.5461 145.185C66.8476 143.235 67.5271 141.062 67.8006 138.751C67.9435 137.531 66.7361 136.42 65.628 136.287Z" fill="#27374D"/>
<path d="M76.9458 114.708C75.6791 114.359 74.1686 115.136 73.8637 116.462C73.2452 119.142 72.2242 121.375 70.651 123.652C69.8792 124.768 70.4454 126.443 71.5517 127.092C72.8149 127.832 74.1947 127.296 74.9875 126.19C76.7733 123.697 78.0312 120.789 78.6985 117.796C78.9912 116.474 78.296 115.08 76.9458 114.708Z" fill="#27374D"/>
<path d="M85.4829 139.309C84.2163 138.96 82.7057 139.736 82.4008 141.062C81.7823 143.742 80.7613 145.976 79.1881 148.253C78.4163 149.369 78.9825 151.044 80.0888 151.693C81.352 152.433 82.7319 151.897 83.5246 150.791C85.3104 148.298 86.5683 145.389 87.2356 142.397C87.5283 141.075 86.8331 139.681 85.4829 139.309Z" fill="#27374D"/>
<path d="M91.5808 148.382C90.3142 148.033 88.8036 148.809 88.4987 150.135C87.8802 152.815 86.8592 155.048 85.286 157.325C84.5142 158.442 85.0804 160.117 86.1867 160.766C87.4499 161.506 88.8298 160.97 89.6225 159.864C91.4083 157.371 92.6662 154.462 93.3335 151.47C93.6262 150.147 92.931 148.753 91.5808 148.382Z" fill="#27374D"/>
<path d="M81.3015 179.787C80.0349 179.438 78.5243 180.214 78.2194 181.54C77.6009 184.22 76.5799 186.453 75.0067 188.73C74.2348 189.847 74.8011 191.522 75.9074 192.171C77.1706 192.911 78.5504 192.375 79.3432 191.269C81.129 188.776 82.3869 185.867 83.0542 182.875C83.3469 181.552 82.6517 180.158 81.3015 179.787Z" fill="#27374D"/>
<path d="M72.9386 197.409C71.6719 197.06 70.1614 197.836 69.8565 199.162C69.238 201.842 68.217 204.075 66.6438 206.352C65.8719 207.469 66.4382 209.144 67.5445 209.793C68.8077 210.533 70.1875 209.997 70.9803 208.891C72.7661 206.397 74.024 203.489 74.6913 200.497C74.984 199.174 74.2888 197.78 72.9386 197.409Z" fill="#27374D"/>
<path d="M91.9292 164.084C90.6626 163.735 89.1521 164.512 88.8472 165.838C88.2287 168.518 87.2077 170.751 85.6344 173.028C84.8626 174.144 85.4288 175.819 86.5352 176.468C87.7983 177.208 89.1782 176.672 89.9709 175.566C91.7568 173.073 93.0147 170.165 93.682 167.172C93.9747 165.85 93.2795 164.456 91.9292 164.084Z" fill="#27374D"/>
<path d="M102.383 141.751C101.116 141.402 99.6057 142.179 99.3008 143.505C98.6823 146.185 97.6613 148.418 96.088 150.695C95.3162 151.812 95.8825 153.486 96.9888 154.136C98.2519 154.875 99.6318 154.34 100.425 153.233C102.21 150.74 103.468 147.832 104.136 144.84C104.428 143.517 103.733 142.123 102.383 141.751Z" fill="#27374D"/>
<path d="M70.3252 149.428C69.0585 149.079 67.548 149.856 67.2431 151.182C66.6246 153.862 65.6036 156.095 64.0304 158.372C63.2585 159.488 63.8248 161.163 64.9311 161.812C66.1943 162.552 67.5741 162.017 68.3669 160.91C70.1527 158.417 71.4106 155.509 72.0779 152.517C72.3706 151.194 71.6754 149.8 70.3252 149.428Z" fill="#27374D"/>
<path d="M72.7173 133.014C72.0709 135.306 71.1928 137.329 70.0081 139.393C68.393 142.205 72.6825 144.709 74.3463 141.931C75.7558 139.576 76.8238 136.994 77.5451 134.347C78.3953 131.229 73.5919 129.906 72.7173 133.014Z" fill="#27374D"/>
<path d="M107.737 124.988C107.09 127.281 106.212 129.303 105.028 131.367C103.413 134.179 107.702 136.683 109.366 133.906C110.775 131.55 111.843 128.968 112.565 126.321C113.415 123.203 108.611 121.881 107.737 124.988Z" fill="#27374D"/>
<path d="M94.8441 131.444C94.1977 133.736 93.3196 135.759 92.1348 137.823C90.5198 140.635 94.8092 143.139 96.4731 140.361C97.8826 138.006 98.9506 135.424 99.6719 132.777C100.522 129.659 95.7187 128.336 94.8441 131.444Z" fill="#27374D"/>
<path d="M87.3802 122.345C86.1031 121.994 84.6222 122.774 84.3016 124.095C83.8295 126.033 83.1395 127.572 82.0123 129.261C81.2579 130.39 81.7927 132.044 82.913 132.698C84.1605 133.429 85.5717 132.915 86.3453 131.796C87.6677 129.887 88.612 127.691 89.1294 125.428C89.4309 124.111 88.7252 122.715 87.3802 122.345Z" fill="#27374D"/>
<path d="M69.2606 167.01C67.9836 166.66 66.5026 167.439 66.1821 168.76C65.7099 170.699 65.02 172.237 63.8927 173.926C63.1383 175.055 63.6732 176.709 64.7935 177.363C66.0409 178.095 67.4522 177.58 68.2257 176.461C69.5481 174.553 70.4924 172.356 71.0099 170.093C71.3113 168.776 70.6057 167.38 69.2606 167.01Z" fill="#27374D"/>
<path d="M80.0627 160.031C78.7856 159.681 77.3047 160.46 76.9841 161.781C76.5119 163.72 75.822 165.258 74.6948 166.947C73.9404 168.076 74.4752 169.73 75.5955 170.384C76.843 171.115 78.2542 170.601 79.0278 169.482C80.3502 167.574 81.2945 165.377 81.8119 163.114C82.1133 161.797 81.4077 160.401 80.0627 160.031Z" fill="#27374D"/>
<path d="M68.5637 183.236C67.2867 182.885 65.8057 183.665 65.4852 184.986C65.013 186.924 64.3231 188.463 63.1958 190.152C62.4414 191.281 62.9763 192.935 64.0966 193.589C65.344 194.32 66.7553 193.806 67.5288 192.687C68.8512 190.778 69.7955 188.582 70.313 186.319C70.6144 185.002 69.9088 183.606 68.5637 183.236Z" fill="#27374D"/>
<path d="M38.2187 58.3691C38.0323 42.731 37.5793 27.0878 36.6768 11.4724C36.689 11.3136 36.7012 11.1549 36.7134 10.9961C28.9708 11.2683 4.90485 11.1863 4.60518 11.1985C2.37334 11.2979 0.376699 13.0409 0.420255 15.3893C1.01437 47.2987 1.45516 78.7877 1.63461 110.702C1.74089 129.662 1.76703 148.622 1.71476 167.582C9.32846 165.607 16.4648 160.893 21.4076 154.874C24.4966 151.11 26.8696 147.063 28.5056 142.463C30.2914 137.442 30.7409 131.969 30.8315 126.675C30.9256 121.171 30.6207 115.647 31.2444 110.165C31.6904 107.368 32.4414 104.666 33.485 102.036C34.8701 98.9219 36.5618 95.9715 38.3267 93.0613C38.3285 78.2922 38.3023 65.4474 38.2187 58.3691Z" fill="#E3E0DA"/>
<path d="M138.056 70.3555C131.942 68.3979 125.297 69.2563 119.539 71.9868C113.204 74.9912 108.434 80.7663 106.31 87.405C104.109 94.2845 104.86 102.045 107.016 108.834C109.441 116.476 113.505 123.43 116.683 130.756C118.523 135.246 119.985 139.887 120.727 144.69C121.058 147.619 121.098 150.563 120.783 153.495C120.417 155.788 119.83 158.03 118.99 160.193C118.192 161.923 117.229 163.554 116.108 165.096C113 168.903 109.141 171.984 105.343 175.076C101.083 178.543 97.0463 182.2 93.5008 186.412C85.5944 195.803 78.8153 207.291 77.9476 219.794C77.9302 220.04 77.918 220.289 77.9058 220.537C79.0017 220.317 80.0958 220.095 81.19 219.876C87.314 218.647 93.4294 217.381 99.5378 216.076C105.589 214.781 111.633 213.45 117.668 212.078C120.741 211.38 123.813 210.672 126.881 209.955C129.294 209.391 131.902 208.854 133.942 207.359C135.406 206.286 136.481 204.958 137.082 203.226C137.625 201.661 137.646 199.942 137.676 198.302C137.709 196.369 137.742 194.434 137.777 192.501C137.909 191.3 137.974 190.095 138.005 188.91C138.131 184.189 138.094 179.459 138.131 174.736C138.206 165.117 138.281 155.497 138.355 145.878L138.582 116.673C138.645 108.232 138.169 80.5116 138.056 70.3555Z" fill="#F79E88"/>
<path d="M316.192 98.9933C313.53 98.4175 311.134 96.3919 309.681 94.1639C308.057 91.6724 307.693 88.5476 307.855 85.6391C308 83.029 308.531 80.4503 308.569 77.8332C308.573 77.6517 308.576 75.7919 308.468 75.7849C308.451 75.7831 308.521 76.1356 308.529 76.1792C308.531 76.1844 308.531 76.1862 308.529 76.1792C308.526 76.1583 308.509 76.0797 308.474 75.9105C308.441 75.75 308.414 75.5895 308.38 75.4307C308.32 75.1533 308.251 74.8776 308.174 74.6037C308.076 74.2547 307.965 73.9093 307.839 73.5691C307.813 73.4975 307.785 73.412 307.756 73.3283C307.737 73.2934 307.716 73.2585 307.702 73.2306C307.418 72.6566 307.125 72.093 306.78 71.5522C306.602 71.2747 306.413 71.0061 306.221 70.7391C306.381 70.9677 305.989 70.453 305.848 70.2907C305.426 69.8092 304.977 69.3538 304.501 68.9246C304.353 68.7903 304.202 68.6594 304.048 68.5303C304.038 68.5216 304.02 68.5076 304.001 68.4902C302.968 68.2023 301.931 67.9353 300.897 67.6876C297.726 66.9304 294.387 66.4104 291.124 66.7542C285.272 67.3683 279.691 70.4251 277.733 76.2752C276.82 79.0004 276.994 81.9926 278.268 84.5661C279.496 87.0489 281.789 88.8669 284.122 90.2504C286.329 91.559 288.72 92.5308 290.87 93.9371C292.837 95.2229 294.414 96.7914 294.772 99.1294C294.997 100.595 294.835 102.113 294.889 103.591C294.945 105.089 295.171 106.581 295.755 107.968C297.09 111.137 299.968 112.361 303.2 112.705C306.195 113.024 309.498 113.209 312.406 112.29C313.965 111.798 315.357 110.973 316.612 109.959C316.629 106.22 316.647 102.54 316.666 99.0805C316.506 99.0544 316.349 99.0265 316.192 98.9933Z" fill="#F79E88"/>
<path opacity="0.58" d="M138.589 111.685C138.512 98.4666 138.045 72.0164 138.045 67.3528C138.045 62.9909 135.824 61.1276 134.589 60.5832C132.754 59.7737 119.816 56.3208 108.435 53.4473C106.718 57.2543 105.463 61.2776 104.625 65.4161C102.907 73.8973 102.074 83.3398 105.31 91.5749C106.921 95.6785 109.242 99.4628 112.638 102.335C115.892 105.088 119.64 107.373 123.396 109.376C127.473 111.55 132.892 113.888 137.524 112.152C137.892 112.013 138.246 111.856 138.589 111.685Z" fill="white"/>
<path opacity="0.58" d="M115.678 181.901C113.995 178.972 111.519 176.547 108.967 174.378C107.496 173.129 105.963 171.914 104.329 170.885C102.848 169.953 101.261 169.254 99.6405 168.601C94.3057 166.45 88.4482 166.098 83.0925 164.032C82.3242 163.679 81.575 163.287 80.8572 162.835C80.6098 162.678 80.3711 162.51 80.1289 162.345C79.7177 161.99 79.3205 161.628 78.9442 161.235C78.7229 161.003 78.5086 160.766 78.3013 160.521C78.3326 160.568 78.3657 160.619 78.4006 160.675C78.364 160.617 78.3257 160.562 78.2873 160.506C78.2873 160.506 78.2873 160.506 78.2873 160.504C78.1479 160.338 77.9528 160.029 77.9354 159.987C77.7472 159.715 77.5591 159.441 77.3866 159.157C76.8378 158.253 76.3639 157.309 75.9318 156.344C73.9195 151.278 72.9055 145.888 70.691 140.883C68.4366 135.788 64.4694 131.426 59.2548 129.367C59.4865 146.731 59.7165 164.093 59.9482 181.456C60.1172 194.109 60.2845 206.764 60.4535 219.417C60.4692 220.565 61.2776 221.754 62.4362 222.025C65.6315 222.766 68.8094 222.417 71.9995 221.833C75.0798 221.268 78.1497 220.636 81.2196 220.02C87.3436 218.792 93.459 217.525 99.5674 216.22C105.134 215.03 110.692 213.805 116.244 212.551C117.37 208.997 118.133 205.337 118.555 201.571C119.283 195.057 119.016 187.713 115.678 181.901ZM65.8232 217.056C65.8232 216.993 65.8214 216.929 65.8214 216.866C65.8963 216.932 65.9747 216.997 66.0531 217.059C65.9765 217.059 65.8998 217.059 65.8232 217.056ZM78.303 160.521C78.0138 160.076 77.9249 159.958 77.9371 159.989C78.0556 160.16 78.1741 160.333 78.2891 160.506C78.2943 160.511 78.2978 160.516 78.303 160.521Z" fill="white"/>
<path d="M283.211 138.339C282.46 136.662 281.369 135.01 279.988 133.792C277.979 132.023 275.698 131.128 273.053 130.866C268.375 130.404 264.149 132.909 260.697 135.772C259.295 136.934 258.014 138.403 256.49 139.403C256.552 139.361 257.518 138.655 256.819 139.143C256.617 139.284 256.42 139.431 256.216 139.571C255.854 139.817 255.484 140.052 255.106 140.274C254.488 140.637 253.852 140.965 253.202 141.265C251.423 141.952 249.583 142.428 247.703 142.732C244.878 143.03 242.043 142.945 239.222 142.617C235.576 142.067 232.016 141.15 228.453 140.221C228.448 142.334 228.432 144.208 228.403 145.771C228.258 153.241 228.127 160.71 228.11 168.181C234.171 169.383 240.457 169.484 246.59 168.497C249.838 167.973 252.949 166.846 256.185 166.289C256.917 166.223 257.647 166.202 258.38 166.248C258.819 166.338 259.251 166.453 259.676 166.597C259.817 166.668 259.957 166.743 260.093 166.825C260.157 166.863 260.22 166.905 260.281 166.947C260.368 167.04 260.488 167.174 260.595 167.291C260.6 167.298 260.603 167.307 260.607 167.312C260.617 167.329 260.624 167.347 260.635 167.364C260.715 167.628 260.779 167.895 260.835 168.163C260.927 169.521 260.852 170.89 260.703 172.242C260.209 175.329 259.279 178.311 258.11 181.205C256.673 184.511 254.984 187.699 253.279 190.873C252.446 192.422 251.611 193.971 250.803 195.533C251.113 195.54 251.423 195.549 251.733 195.554C259.612 195.721 267.494 195.826 275.374 195.85C276.08 195.852 276.77 195.856 277.446 195.857C278.36 194.699 279.205 193.485 279.977 192.242C283.725 186.209 285.572 179.368 286.417 172.375C287.298 165.082 286.849 157.634 286.094 150.348C285.66 146.148 284.944 142.205 283.211 138.339Z" fill="#F79E88"/>
<path d="M250.195 48.5481C250.181 48.5132 250.167 48.48 250.155 48.4451C250.151 48.4364 250.146 48.4242 250.143 48.4137C250.136 48.398 250.129 48.3806 250.122 48.3649C250.014 48.1154 249.839 47.7786 250.195 48.5481Z" fill="white"/>
<path opacity="0.14" d="M325.431 1.16633C319.647 1.21344 313.861 1.24135 308.075 1.2588C307.921 1.00756 307.702 0.801681 307.432 0.716189C306.47 0.410861 305.426 0.079364 304.412 0.0200431C303.395 -0.0392778 302.778 0.505077 302.358 1.27276C295.901 1.28148 289.443 1.2745 282.986 1.24659C278.785 1.22914 274.585 1.20123 270.386 1.16808C270.362 1.11573 270.339 1.06339 270.313 1.01105C270.06 0.491119 269.342 0.0811088 268.757 0.257327C267.959 0.4981 267.107 0.756321 266.344 1.13318C257.744 1.05641 249.143 0.951729 240.543 0.81215C239.182 0.789469 237.821 0.765044 236.461 0.740618C236.171 0.267796 235.506 -0.0828959 234.957 0.0828536C234.372 0.259071 233.755 0.445756 233.166 0.681295C227.657 0.576611 222.15 0.463205 216.642 0.355031C215.141 0.325371 215.141 3.94918 216.642 3.98931C221.512 4.11842 226.382 4.22659 231.251 4.32081C231.523 5.46012 231.791 6.60117 232.063 7.74048C231.781 7.84691 231.607 7.9167 231.593 7.93415C231.026 8.29182 230.568 8.79081 230.33 9.48521C230.021 10.3855 230.216 11.3503 230.338 12.2681C230.467 13.2364 230.617 14.2012 230.79 15.1608C231.068 16.7101 231.182 19.0219 232.61 20.0059C233.363 20.5241 234.265 20.4805 235.103 20.231C236.116 19.9309 237.119 19.582 238.118 19.2365C238.95 18.9486 239.78 18.6503 240.607 18.3432C241.619 17.9664 242.694 17.6802 243.135 16.5793C243.426 15.8535 243.334 15.0893 243.121 14.3513C242.832 13.3498 242.506 12.357 242.2 11.3608C241.931 10.4884 241.661 9.61607 241.393 8.7437C241.116 7.84691 240.835 6.92046 239.989 6.39529C239.395 6.02715 238.691 5.98703 238.006 6.01843C237.879 5.49152 237.766 4.96287 237.647 4.43421C244.792 4.5546 251.937 4.64533 259.082 4.72384C261.095 4.74652 263.107 4.76222 265.119 4.78141C265.367 5.82476 265.614 6.86811 265.863 7.91146C265.581 8.01789 265.407 8.08768 265.393 8.10513C264.826 8.4628 264.368 8.96179 264.13 9.6562C263.821 10.5565 264.016 11.5213 264.138 12.439C264.267 13.4074 264.417 14.3722 264.59 15.3318C264.868 16.8811 264.982 19.1929 266.41 20.1769C267.163 20.6951 268.065 20.6515 268.903 20.402C269.916 20.1019 270.919 19.753 271.917 19.4075C272.75 19.1196 273.58 18.8213 274.407 18.5142C275.419 18.1373 276.494 17.8512 276.935 16.7503C277.226 16.0245 277.134 15.2603 276.921 14.5223C276.632 13.5208 276.306 12.528 276 11.5318C275.731 10.6594 275.461 9.78705 275.193 8.91468C274.916 8.01789 274.635 7.09144 273.789 6.56628C273.195 6.19814 272.491 6.15801 271.806 6.18941C271.696 5.73927 271.599 5.28564 271.498 4.83376C281.301 4.90704 291.103 4.94019 300.907 4.93146C300.848 5.08674 300.789 5.24203 300.729 5.39905C300.437 5.32752 300.252 5.28739 300.233 5.29262C299.564 5.2682 298.903 5.41999 298.316 5.85966C297.553 6.42844 297.173 7.33745 296.757 8.16271C296.318 9.03507 295.9 9.91616 295.501 10.8077C294.858 12.2436 293.65 14.2169 294.276 15.8378C294.605 16.691 295.375 17.1638 296.208 17.4325C297.213 17.757 298.238 18.0344 299.257 18.3136C300.107 18.5456 300.961 18.7689 301.816 18.9818C302.864 19.2418 303.914 19.6134 304.899 18.9521C305.547 18.5159 305.902 17.8338 306.143 17.1045C306.468 16.1134 306.758 15.1102 307.066 14.114C307.334 13.2416 307.604 12.3693 307.873 11.4969C308.15 10.6001 308.439 9.67713 308.035 8.76464C307.752 8.12607 307.193 7.69512 306.609 7.33396C306.914 6.5244 307.254 5.7288 307.554 4.9175C313.512 4.9018 319.473 4.8704 325.431 4.82329C326.945 4.82154 326.949 1.15412 325.431 1.16633Z" fill="#D9D6D0"/>
</svg>
