<svg width="145" height="62" viewBox="0 0 145 62" fill="none" xmlns="http://www.w3.org/2000/svg">
<path d="M62.4565 61.1477C62.3872 61.1477 62.3233 61.1059 62.296 61.0386L39.2269 1.10288C39.1923 1.01558 39.2379 0.915545 39.3254 0.880987C39.413 0.848248 39.5133 0.8919 39.5461 0.979203L62.617 60.9149C62.6516 61.0022 62.606 61.1022 62.5185 61.135C62.4984 61.1441 62.4765 61.1477 62.4565 61.1477Z" fill="black"/>
<path d="M81.6226 54.5216L77.4279 43.6377L77.4042 43.5795H76.6765L72.4344 54.5634L67.4245 41.6279H66.3612L71.9766 56.2003L71.9985 56.2585H72.7755L77.0413 45.1946L81.298 56.2585H82.0494L87.6867 41.6279H86.6071L81.6226 54.5216Z" fill="black"/>
<path d="M91.3288 56.2585H99.2149V55.3309H92.3319V49.0342H98.0075V48.1066H92.3319V42.5555H99.2149V41.6279H91.3288V56.2585Z" fill="black"/>
<path d="M125.813 41.6279H124.6L117.389 49.3416V41.6279H116.388V56.2585H117.389V50.6638L118.965 48.9578L125.393 56.2276L125.421 56.2585H126.699L119.643 48.2466L125.813 41.6279Z" fill="black"/>
<path d="M103.979 56.2585H111.865V55.3309H104.982V49.0342H110.657V48.1066H104.982V42.5555H111.865V41.6279H103.979V56.2585Z" fill="black"/>
<path d="M71.8562 38.1577H72.9086L67.2713 23.5234H66.4469L60.8132 38.1577H61.8637L63.5234 33.8434H70.1875L71.8562 38.1577ZM69.8337 32.9177H63.879L66.8573 25.1786L69.8337 32.9177Z" fill="black"/>
<path d="M89.1038 24.4603H94.2724V38.1651H95.2737V24.4603H100.442V23.5327H89.1038V24.4603Z" fill="black"/>
<path d="M110.336 17.6943C111.505 16.4393 112.124 14.6569 112.124 12.5416C112.124 7.94542 109.282 5.20264 104.522 5.20264H100.448V19.8333H104.522C107.059 19.8333 109.014 19.113 110.336 17.6943ZM111.121 12.5416C111.121 14.9097 110.267 18.882 104.546 18.882H101.449V6.15388H104.546C110.267 6.15388 111.121 10.1553 111.121 12.5416Z" fill="black"/>
<path d="M85.5383 7.21607L94.4347 19.8333H95.1752V5.20264H94.1976V17.8198L85.3031 5.20264H84.5608V19.8333H85.5383V7.21607Z" fill="black"/>
<path d="M122.827 4.86426C118.563 4.86426 115.468 8.08358 115.468 12.5179C115.468 16.9522 118.563 20.1697 122.827 20.1697C127.091 20.1697 130.188 16.9522 130.188 12.5179C130.188 8.08358 127.093 4.86426 122.827 4.86426ZM129.187 12.5179C129.187 16.4629 126.572 19.2202 122.829 19.2202C119.087 19.2202 116.472 16.4647 116.472 12.5179C116.472 8.57284 119.085 5.8155 122.829 5.8155C126.572 5.8155 129.187 8.57284 129.187 12.5179Z" fill="black"/>
<path d="M143.879 5.20264V17.8198L134.985 5.20264H134.242V19.8333H135.22V7.21607L144.116 19.8333H144.857V5.20264H143.879Z" fill="black"/>
<path d="M63.7568 18.9057H56.8739V5.20264H55.8708V19.8333H63.7568V18.9057Z" fill="black"/>
<path d="M72.8666 20.1697C77.1307 20.1697 80.2274 16.9522 80.2274 12.5179C80.2274 8.08358 77.1325 4.86426 72.8666 4.86426C68.6026 4.86426 65.5077 8.08358 65.5077 12.5179C65.5077 16.9522 68.6026 20.1697 72.8666 20.1697ZM66.5089 12.5179C66.5089 8.57284 69.1224 5.8155 72.8666 5.8155C76.6091 5.8155 79.2244 8.57102 79.2244 12.5179C79.2244 16.4629 76.6109 19.2202 72.8666 19.2202C69.1242 19.2202 66.5089 16.4629 66.5089 12.5179Z" fill="black"/>
<path d="M77.2382 38.1631H78.2413V31.9701H81.3655L85.666 38.1631H86.8533L82.4415 31.9009C84.9693 31.5281 85.8757 29.5292 85.8757 27.7595C85.8757 25.8061 84.745 23.5234 81.557 23.5234H77.2382V38.1631ZM81.557 24.451C84.6337 24.451 84.8726 26.9828 84.8726 27.7595C84.8726 28.7471 84.5498 31.0425 81.557 31.0425H78.2395V24.451H81.557Z" fill="black"/>
<path d="M1.61864 29.4311C1.61864 29.4311 1.62047 29.4311 1.61864 29.4311C1.62047 29.4311 1.62047 29.4311 1.61864 29.4311H16.4387C17.0223 29.4311 17.4929 28.96 17.4929 28.378C17.4929 27.7978 17.0205 27.3267 16.4387 27.3267H2.67462V5.93005C2.67462 5.34985 2.20226 4.87695 1.62047 4.87695C1.03868 4.87695 0.56632 5.34803 0.56632 5.93005V28.378C0.564496 28.96 1.03686 29.4311 1.61864 29.4311Z" fill="black"/>
<path d="M11.4033 55.7857C11.4051 55.7821 11.4069 55.7803 11.4069 55.7784L29.4642 8.8655L33.8759 20.3259H27.2775C26.6957 20.3259 26.2233 20.797 26.2233 21.379C26.2233 21.961 26.6957 22.4321 27.2775 22.4321H34.6875L37.1223 28.758C37.2828 29.1763 37.684 29.4328 38.1071 29.4328C38.233 29.4328 38.3606 29.4109 38.4847 29.3618C39.0281 29.1545 39.2999 28.5452 39.092 28.0032L30.4491 5.5516C30.4454 5.54251 30.4418 5.53523 30.4381 5.52614C30.4308 5.50977 30.4235 5.4934 30.4162 5.47703C30.4089 5.46066 30.3998 5.44611 30.3925 5.42974C30.3852 5.41519 30.3779 5.40246 30.3688 5.38791C30.3597 5.37154 30.3487 5.35517 30.3378 5.34062C30.3287 5.32789 30.3214 5.31697 30.3123 5.30424C30.3013 5.28787 30.2886 5.27332 30.2776 5.25877C30.2685 5.24786 30.2576 5.23695 30.2484 5.22421C30.2357 5.20966 30.2229 5.19693 30.2101 5.18238C30.1992 5.17147 30.1883 5.16056 30.1755 5.14964C30.1627 5.13691 30.1481 5.126 30.1354 5.11327C30.1226 5.10235 30.1098 5.09326 30.0971 5.08235C30.0825 5.07143 30.0679 5.06052 30.0533 5.05143C30.0405 5.04233 30.0259 5.03324 30.0132 5.02596C29.9968 5.01687 29.9803 5.00596 29.9639 4.99686C29.9512 4.98959 29.9384 4.98413 29.9238 4.97685C29.9056 4.96776 29.8855 4.95867 29.8654 4.95139C29.8581 4.94775 29.8527 4.94593 29.8454 4.9423C29.8399 4.94048 29.8344 4.93866 29.8271 4.93684C29.8071 4.92956 29.787 4.92229 29.767 4.91683C29.7542 4.9132 29.7396 4.90956 29.7268 4.90592C29.7086 4.90046 29.6885 4.89683 29.6703 4.89319C29.6557 4.88955 29.6393 4.88773 29.6247 4.88409C29.6065 4.88228 29.5882 4.88046 29.57 4.87864C29.5536 4.87682 29.5372 4.875 29.5207 4.875C29.5043 4.875 29.4861 4.875 29.4697 4.875C29.4533 4.875 29.435 4.875 29.4186 4.875C29.4022 4.875 29.3858 4.87682 29.3694 4.87864C29.3511 4.88046 29.3329 4.88228 29.3147 4.88409C29.3001 4.88591 29.2837 4.88955 29.2691 4.89319C29.249 4.89683 29.2308 4.90046 29.2107 4.90592C29.1979 4.90956 29.1833 4.9132 29.1706 4.91683C29.1505 4.92229 29.1286 4.92956 29.1086 4.93684C29.1031 4.93866 29.0976 4.94048 29.0903 4.9423C29.083 4.94412 29.0776 4.94775 29.0703 4.95139C29.0502 4.95867 29.032 4.96776 29.0119 4.97685C28.9991 4.98413 28.9864 4.98959 28.9736 4.99686C28.9572 5.00596 28.939 5.01505 28.9225 5.02596C28.9098 5.03324 28.8952 5.04233 28.8824 5.05143C28.8678 5.06052 28.8532 5.07143 28.8386 5.08235C28.8259 5.09144 28.8131 5.10235 28.8004 5.11145C28.7858 5.12236 28.773 5.13509 28.7584 5.14782C28.7475 5.15874 28.7365 5.16783 28.7256 5.17874C28.711 5.19148 28.6982 5.20603 28.6854 5.22058C28.6763 5.23149 28.6654 5.2424 28.6563 5.25332C28.6435 5.26787 28.6326 5.28424 28.6198 5.3006C28.6107 5.31152 28.6034 5.32425 28.5943 5.33698C28.5833 5.35335 28.5742 5.36972 28.5633 5.38609C28.556 5.39882 28.5468 5.41337 28.5395 5.42792C28.5304 5.44429 28.5231 5.45884 28.5158 5.47521C28.5085 5.49158 28.5013 5.50795 28.494 5.52432C28.4903 5.53341 28.4867 5.54069 28.483 5.54978L10.4257 52.4627L2.6035 32.1555C2.39558 31.6135 1.78462 31.3407 1.24113 31.5499C0.697639 31.759 0.425895 32.3665 0.633807 32.9085L9.43722 55.7784C9.44087 55.7857 9.44452 55.7912 9.44634 55.7984C9.46275 55.8385 9.48099 55.8803 9.50288 55.9185C9.51017 55.9312 9.51746 55.9421 9.52476 55.953C9.54117 55.9803 9.55941 56.0076 9.57947 56.0331C9.59042 56.0476 9.60136 56.0622 9.6123 56.0749C9.63784 56.1058 9.66519 56.1349 9.69437 56.1622C9.70714 56.1749 9.72173 56.1859 9.73632 56.1986C9.75638 56.2168 9.77827 56.2331 9.80198 56.2495C9.81657 56.2604 9.83298 56.2713 9.84757 56.2822C9.8804 56.3041 9.91323 56.3223 9.9497 56.3405C9.96976 56.3495 9.98983 56.3586 10.0099 56.3677C10.0208 56.3732 10.0318 56.3786 10.0445 56.3823C10.05 56.3841 10.0555 56.3841 10.061 56.3877C10.112 56.4059 10.1649 56.4205 10.2196 56.4314C10.2269 56.4332 10.2324 56.435 10.2397 56.4368C10.2999 56.4478 10.3619 56.455 10.4239 56.455C10.4512 56.455 10.4804 56.4496 10.5078 56.4478C10.5351 56.4459 10.5625 56.4441 10.588 56.4405C10.6172 56.435 10.6464 56.4278 10.6756 56.4205C10.7048 56.4132 10.7339 56.4059 10.7613 56.3968C10.7741 56.3932 10.7886 56.3914 10.8014 56.3859C10.982 56.3168 11.1297 56.204 11.2428 56.064C11.2446 56.0603 11.2464 56.0585 11.2501 56.0549C11.3121 55.973 11.365 55.8821 11.4033 55.7857Z" fill="black"/>
<path d="M38.4828 31.5496C37.9393 31.3405 37.3284 31.6115 37.1205 32.1553L29.3019 52.4661L22.7253 35.3801C22.5156 34.8381 21.9064 34.5653 21.363 34.7744C20.8195 34.9836 20.5477 35.5911 20.7556 36.1331L28.3171 55.7782C28.3189 55.7855 28.3243 55.7909 28.3262 55.7982C28.3426 55.84 28.3626 55.8819 28.3845 55.9201C28.39 55.9292 28.3955 55.9383 28.4009 55.9473C28.4192 55.9783 28.4411 56.0092 28.463 56.0383C28.4721 56.0492 28.4794 56.0619 28.4885 56.0728C28.5158 56.1056 28.545 56.1383 28.5779 56.1674C28.587 56.1765 28.5961 56.1838 28.6052 56.1911C28.6326 56.2147 28.6599 56.2365 28.6909 56.2584C28.7 56.2656 28.711 56.2729 28.7201 56.2802C28.7566 56.3038 28.7949 56.3257 28.835 56.3457C28.846 56.3511 28.8587 56.3566 28.8697 56.362C28.8879 56.3693 28.9043 56.3784 28.9225 56.3857C28.9317 56.3893 28.939 56.3893 28.9481 56.393C28.99 56.4075 29.0338 56.4202 29.0776 56.4293C29.094 56.433 29.1086 56.4366 29.1232 56.4402C29.1815 56.4493 29.2399 56.4566 29.3001 56.4566C29.3037 56.4566 29.3092 56.4548 29.3128 56.4548C29.3676 56.4548 29.4204 56.4493 29.4752 56.4402C29.4934 56.4366 29.5135 56.4312 29.5317 56.4275C29.5718 56.4184 29.6119 56.4075 29.6521 56.3948C29.6612 56.3911 29.6703 56.3911 29.6812 56.3875C29.7013 56.3802 29.7214 56.3711 29.7396 56.362C29.7487 56.3584 29.756 56.3548 29.7651 56.3511C29.8071 56.3311 29.8472 56.3075 29.8855 56.282C29.8928 56.2766 29.9001 56.2711 29.9074 56.2656C29.9402 56.242 29.9712 56.2184 30.0022 56.1911C30.0095 56.1856 30.0168 56.1783 30.0241 56.1729C30.0569 56.142 30.0879 56.1092 30.1171 56.0747C30.1244 56.0656 30.1317 56.0547 30.139 56.0456C30.1627 56.0146 30.1864 55.9819 30.2065 55.9473C30.2101 55.9401 30.2156 55.9328 30.2193 55.9255C30.243 55.8855 30.2612 55.8437 30.2794 55.8C30.2813 55.7946 30.2849 55.7891 30.2886 55.7818L39.092 32.9119C39.2981 32.3663 39.0263 31.757 38.4828 31.5496Z" fill="black"/>
</svg>
